SplineFontDB: 3.0
FontName: BohemiaText-RegularItalic
FullName: Bohemia Text Regular Italic
FamilyName: Bohemia Text
Weight: Regular
Copyright: Copyright (c) 2011, Barry Schwartz
Version: 1.00
DefaultBaseFilename: BohemiaText-400-Italic
ItalicAngle: -9
UnderlinePosition: -100
UnderlineWidth: 50
Ascent: 690
Descent: 310
InvalidEm: 0
sfntRevision: 0x00011999
LayerCount: 2
Layer: 0 0 "Back" 1
Layer: 1 0 "Fore" 0
FSType: 0
OS2Version: 4
OS2_WeightWidthSlopeOnly: 0
OS2_UseTypoMetrics: 1
CreationTime: 1287776574
ModificationTime: 1431297169
PfmFamily: 17
TTFWeight: 400
TTFWidth: 5
LineGap: 90
VLineGap: 0
Panose: 2 0 5 3 0 0 0 0 0 0
OS2TypoAscent: 690
OS2TypoAOffset: 0
OS2TypoDescent: -310
OS2TypoDOffset: 0
OS2TypoLinegap: 90
OS2WinAscent: 918
OS2WinAOffset: 0
OS2WinDescent: 393
OS2WinDOffset: 0
HheadAscent: 918
HheadAOffset: 0
HheadDescent: -393
HheadDOffset: 0
OS2SubXSize: 650
OS2SubYSize: 700
OS2SubXOff: 21
OS2SubYOff: 140
OS2SupXSize: 650
OS2SupYSize: 700
OS2SupXOff: -75
OS2SupYOff: 480
OS2StrikeYSize: 49
OS2StrikeYPos: 258
OS2CapHeight: 286
OS2XHeight: 308
OS2Vendor: '    '
OS2CodePages: 00000093.00000000
OS2UnicodeRanges: a000006f.0000004a.00000000.00000000
Lookup: 3 0 0 "'aalt' Access All Alternates lookup 0" { "'aalt' Access All Alternates lookup 0 subtable"  } ['aalt' ('DFLT' <'dflt' > ) ]
Lookup: 3 0 0 "'aalt' Access All Alternates in Latin lookup 1" { "'aalt' Access All Alternates in Latin lookup 1 subtable"  } ['aalt' ('latn' <'AZE ' 'CAT ' 'CRT ' 'MOL ' 'ROM ' 'TRK ' 'dflt' > ) ]
Lookup: 1 0 0 "'locl' Localized Forms in Latin lookup 2" { "'locl' Localized Forms in Latin lookup 2 subtable"  } ['locl' ('latn' <'CAT ' > ) ]
Lookup: 1 0 0 "'locl' Localized Forms in Latin lookup 3" { "'locl' Localized Forms in Latin lookup 3 subtable"  } ['locl' ('latn' <'MOL ' 'ROM ' > ) ]
Lookup: 1 0 0 "'locl' Localized Forms in Latin lookup 4" { "'locl' Localized Forms in Latin lookup 4 subtable"  } ['locl' ('latn' <'AZE ' 'CRT ' 'TRK ' > ) ]

StartChar: .notdef
Encoding: 65536 -1 0
Width: 500
Flags: MW
HStem: 0 50<100 400 100 450> 410 50<100 400 100 100>
VStem: 50 50<50 50 50 410> 400 50<50 410 410 410>
LayerCount: 2
Back
Fore
SplineSet
50 0 m 1
 50 460 l 1
 450 460 l 1
 450 0 l 1
 50 0 l 1
100 50 m 1
 400 50 l 1
 400 410 l 1
 100 410 l 1
 100 50 l 1
EndSplineSet
EndChar

StartChar: exclam
Encoding: 33 33 2
Width: 220
GlyphClass: 2
Flags: MW
HStem: -11 104<100.5 121 100.5 121>
VStem: 62 96<29.5 52> 99 31<150 150> 153 65
LayerCount: 2
Back
Fore
SplineSet
62 38 m 0xc0
 62 66 90 93 111 93 c 0
 131 93 158 65 158 43 c 0
 158 6 127 -11 115 -11 c 0
 85 -11 62 21 62 38 c 0xc0
99 150 m 0xb0
 99 155 107 237 119 333 c 0
 141 508 148 574 153 635 c 0
 154 655 172 660 185 660 c 2
 190 660 l 2
 210 660 218 653 218 640 c 0
 218 635 217 632 216 627 c 0
 207 587 176 437 130 150 c 0
 129 143 123 143 119 143 c 2
 111 143 l 2
 105 143 99 144 99 150 c 0xb0
EndSplineSet
Position2: "'cpsp' Capital Spacing in Latin lookup 0 subtable" dx=4 dy=0 dh=8 dv=0
EndChar

StartChar: quotedbl
Encoding: 34 34 3
Width: 261
GlyphClass: 2
Flags: MW
HStem: 494 197<35.5 82.5 59 180>
VStem: 27 35 37 67 157 35 167 67
LayerCount: 2
Back
Fore
SplineSet
27 511 m 0xc0
 27 512 34 637 37 659 c 0
 39 676 46 691 72 691 c 0
 93 691 104 679 104 663 c 0xa0
 104 659 103 653 102 648 c 0
 94 616 67 532 62 515 c 0
 57 500 58 494 42 494 c 0
 29 494 27 503 27 511 c 0xc0
157 511 m 0x90
 157 512 164 637 167 659 c 0
 169 676 176 691 202 691 c 0
 223 691 234 679 234 663 c 0x88
 234 659 233 653 232 648 c 0
 224 616 197 532 192 515 c 0
 187 500 188 494 172 494 c 0
 159 494 157 503 157 511 c 0x90
EndSplineSet
EndChar

StartChar: numbersign
Encoding: 35 35 4
Width: 442
GlyphClass: 2
Flags: MW
HStem: -13 21G<101 119 246 264.5> 152 37<41 42 42 100 313 398> 320 36<34 132 37 127 338 397 397 399>
VStem: 88 46 167 46 233 46<2 2 2 4> 312 44
LayerCount: 2
Back
Fore
SplineSet
27 169 m 2
 27 173 l 2
 27 185 31 189 41 189 c 2
 110 189 l 2
 119 189 118 191 119 199 c 0
 124 237 131 293 133 311 c 0
 134 318 134 320 127 320 c 2
 37 320 l 2
 31 320 27 325 27 336 c 2
 27 342 l 2
 27 349 28 356 37 356 c 2
 132 356 l 2
 144 356 143 357 144 366 c 0
 167 523 164 521 167 526 c 0
 171 533 170 535 191 535 c 0
 202 535 213 535 213 521 c 0
 213 515 194 398 189 366 c 0
 188 357 187 356 195 356 c 2
 277 356 l 2
 288 356 285 355 287 366 c 0
 307 497 310 518 312 526 c 0
 313 528 315 535 329 535 c 0
 344 535 356 535 356 522 c 0
 356 513 337 393 333 364 c 0
 332 357 332 356 338 356 c 2
 397 356 l 2
 411 356 415 353 415 337 c 0
 415 321 407 320 399 320 c 2
 334 320 l 2
 324 320 324 319 323 311 c 2
 306 198 l 2
 305 190 304 189 313 189 c 2
 401 189 l 2
 413 189 415 184 415 169 c 0
 415 155 411 152 398 152 c 2
 307 152 l 2
 300 152 300 151 299 145 c 2
 279 2 l 2
 277 -9 276 -13 253 -13 c 0
 239 -13 233 -12 233 -2 c 0
 233 10 249 112 254 144 c 0
 255 151 256 152 248 152 c 2
 164 152 l 2
 156 152 156 151 155 144 c 0
 135 -2 136 0 134 -3 c 0
 130 -10 129 -13 109 -13 c 0
 93 -13 88 -9 88 3 c 0
 88 10 105 115 109 144 c 0
 110 152 109 152 100 152 c 2
 42 152 l 2
 28 152 27 160 27 169 c 2
162 199 m 0
 161 191 160 191 170 191 c 2
 252 191 l 2
 260 191 261 191 262 199 c 0
 271 258 276 293 279 310 c 0
 281 321 281 322 272 322 c 2
 191 322 l 2
 182 322 181 321 180 314 c 0
 175 278 165 218 162 199 c 0
EndSplineSet
EndChar

StartChar: dollar
Encoding: 36 36 5
Width: 500
GlyphClass: 2
Flags: MW
HStem: -2 24<239.5 245 239.5 284.5> 605 25<269 270.5> 665 20G<292 306 306 309>
VStem: 47 71 85 59<460.5 521 460.5 523> 357 62<107 170.5> 387 54
LayerCount: 2
Back
Fore
SplineSet
47 128 m 0xf4
 47 143 72 157 83 157 c 0
 92 157 102 121 118 92 c 0xf4
 131 69 148 47 168 36 c 0
 175 33 184 29 192 28 c 0
 198 27 199 28 200 36 c 2
 232 270 l 2
 234 285 235 287 226 292 c 0
 158 334 85 378 85 470 c 0
 85 576 179 630 268 630 c 0
 273 630 277 631 278 637 c 2
 283 673 l 2
 284 682 287 685 292 685 c 2
 306 685 l 2
 312 685 313 682 312 673 c 2
 307 636 l 2
 306 628 306 628 310 627 c 0
 402 612 441 529 441 496 c 0
 441 478 431 468 420 468 c 0
 406 468 390 483 387 499 c 0xea
 382 521 380 550 372 562 c 0
 360 578 341 597 311 602 c 0
 305 603 302 603 302 600 c 2
 270 355 l 2
 269 349 268 341 272 338 c 0
 340 294 419 251 419 145 c 0
 419 53 338 -2 231 -2 c 0
 223 -2 223 -8 222 -14 c 2
 208 -137 l 2
 207 -143 204 -145 199 -145 c 2
 180 -145 l 2
 176 -145 174 -140 175 -134 c 2
 193 -13 l 2
 194 -9 194 -7 194 -4 c 0
 194 3 193 2 180 5 c 0
 94 23 47 92 47 128 c 0xf4
144 485 m 0xe8
 144 436 188 385 231 361 c 0
 239 357 241 359 242 368 c 2
 273 601 l 2
 273 605 272 605 269 605 c 0
 210 603 144 557 144 485 c 0xe8
230 28 m 0
 230 21 234 22 245 22 c 0
 308 24 357 69 357 145 c 0xe4
 357 196 314 245 265 269 c 0
 261 271 261 271 260 266 c 0
 250 189 230 32 230 28 c 0
EndSplineSet
Substitution2: "'subs' Subscript in Latin lookup 10 subtable" dollar.sub
Substitution2: "'sups' Superscript in Latin lookup 9 subtable" dollar.sup
Substitution2: "'dnom' Denominators in Latin lookup 6 subtable" dollar.denom
Substitution2: "'numr' Numerators in Latin lookup 5 subtable" dollar.numer
AlternateSubs2: "'aalt' Access All Alternates in Latin lookup 1 subtable" dollar.sub dollar.sup dollar.denom dollar.numer
AlternateSubs2: "'aalt' Access All Alternates lookup 0 subtable" dollar.sub dollar.sup dollar.denom dollar.numer
EndChar

StartChar: percent
Encoding: 37 37 6
Width: 657
GlyphClass: 2
Flags: MW
HStem: -12 22<420.5 470.5 420.5 480> 247 21<135 184.5 135 192.5> 270 39<497 542.5> 488 23<353 372.5 344 377> 528 38<211.5 244.5 173.5 257.5>
VStem: 47 55<330.5 381 318.5 398.5> 289 35<460 464 464 478 460 481> 333 55<71.5 123 60 149.5> 575 35<148.5 222>
LayerCount: 2
Back
Fore
SplineSet
47 362 m 0
 47 435 120 566 227 566 c 0
 262 566 281 553 300 534 c 0
 314 520 332 511 356 511 c 0
 389 511 425 526 447 539 c 0
 483 561 512 593 536 616 c 0
 537 617 552 635 554 635 c 0
 560 635 575 626 575 620 c 0
 575 617 572 612 568 606 c 0
 512 524 158 -1 135 -37 c 0
 131 -44 120 -44 113 -44 c 0
 105 -44 92 -43 92 -33 c 0
 92 -30 95 -26 96 -24 c 0
 98 -19 407 417 458 506 c 0
 463 514 465 517 455 512 c 0
 438 504 398 488 356 488 c 0
 350 488 343 488 336 489 c 0
 322 490 324 490 324 478 c 2
 324 464 l 2
 324 456 324 447 323 439 c 0
 315 343 235 247 150 247 c 0
 83 247 47 299 47 362 c 0
102 336 m 0
 102 301 117 268 153 268 c 0
 216 268 289 353 289 461 c 0
 289 501 275 528 240 528 c 0
 183 528 102 426 102 336 c 0
333 103 m 0
 333 196 420 309 517 309 c 0
 575 309 610 265 610 197 c 0
 610 91 524 -12 436 -12 c 0
 369 -12 333 40 333 103 c 0
388 78 m 0
 388 42 402 10 439 10 c 0
 502 10 575 95 575 202 c 0
 575 242 560 270 525 270 c 0
 469 270 388 168 388 78 c 0
EndSplineSet
EndChar

StartChar: ampersand
Encoding: 38 38 7
Width: 693
GlyphClass: 2
Flags: MW
HStem: -11 67<238 335.5 238 358.5> 309 53<580.5 594> 331 56<177.5 185.5 158.5 195> 354 55<387 392.5> 475 48<606.5 608.5> 583 63<194 241>
VStem: 32 60<184.5 256> 80 37<450.5 502.5 450.5 520> 285 28<277.5 317.5 277.5 324.5> 498 36<226 276> 670 26<418 440.5>
LayerCount: 2
Back
Fore
SplineSet
32 201 m 0xcee0
 32 311 119 359 125 368 c 1
 121 375 80 404 80 476 c 0
 80 564 139 646 246 646 c 0
 276 646 299 641 325 630 c 0
 344 622 364 610 364 586 c 0
 364 563 353 543 342 532 c 0
 330 520 322 535 317 541 c 0
 288 572 260 583 222 583 c 0
 166 583 117 531 117 474 c 0
 117 427 144 387 173 387 c 0
 198 387 209 392 228 392 c 0
 242 392 250 386 250 377 c 0
 250 351 204 331 186 331 c 0xade0
 169 331 148 344 146 345 c 0
 140 344 92 322 92 242 c 0
 92 127 182 56 294 56 c 0
 377 56 498 104 498 265 c 0
 498 287 493 324 488 326 c 0
 461 336 410 354 375 354 c 0
 338 354 313 335 313 300 c 0
 313 255 352 251 384 245 c 0
 396 243 402 240 402 233 c 0
 402 220 383 207 368 207 c 0
 359 207 349 209 342 211 c 0
 298 225 285 265 285 283 c 0
 285 366 352 409 422 409 c 0x9ee0
 472 409 544 362 617 362 c 0
 649 362 670 384 670 415 c 0
 670 466 628 475 589 475 c 0
 578 475 575 479 575 485 c 0
 575 509 598 523 615 523 c 0
 675 523 696 467 696 431 c 0
 696 405 689 381 679 364 c 0
 657 328 608 309 580 309 c 0
 570 309 551 310 542 312 c 0
 536 313 533 314 533 308 c 0
 533 301 534 286 534 277 c 0
 534 175 461 -11 256 -11 c 0
 113 -11 32 82 32 201 c 0xcee0
EndSplineSet
Position2: "'cpsp' Capital Spacing in Latin lookup 0 subtable" dx=4 dy=0 dh=8 dv=0
EndChar

StartChar: quotesingle
Encoding: 39 39 8
Width: 131
GlyphClass: 2
Flags: MW
HStem: 494 197<35.5 82.5>
VStem: 27 35 37 67
LayerCount: 2
Back
Fore
SplineSet
27 511 m 0xc0
 27 512 34 637 37 659 c 0
 39 676 46 691 72 691 c 0
 93 691 104 679 104 663 c 0xa0
 104 659 103 653 102 648 c 0
 94 616 67 532 62 515 c 0
 57 500 58 494 42 494 c 0
 29 494 27 503 27 511 c 0xc0
EndSplineSet
EndChar

StartChar: parenleft
Encoding: 40 40 9
Width: 279
GlyphClass: 2
Flags: MW
VStem: 37 63<170 416.5>
LayerCount: 2
Back
Fore
SplineSet
37 285 m 0
 37 548 217 692 223 692 c 0
 231 692 242 685 242 676 c 0
 242 667 100 546 100 297 c 0
 100 14 238 -107 238 -126 c 0
 238 -135 232 -143 219 -143 c 0
 204 -143 37 55 37 285 c 0
EndSplineSet
Substitution2: "'case' Case-Sensitive Forms in Latin lookup 14 subtable" parenleft.u
Substitution2: "'subs' Subscript in Latin lookup 10 subtable" parenleft.sub
Substitution2: "'sups' Superscript in Latin lookup 9 subtable" parenleft.sup
Substitution2: "'dnom' Denominators in Latin lookup 6 subtable" parenleft.denom
Substitution2: "'numr' Numerators in Latin lookup 5 subtable" parenleft.numer
AlternateSubs2: "'aalt' Access All Alternates in Latin lookup 1 subtable" parenleft.u parenleft.sub parenleft.sup parenleft.denom parenleft.numer
AlternateSubs2: "'aalt' Access All Alternates lookup 0 subtable" parenleft.u parenleft.sub parenleft.sup parenleft.denom parenleft.numer
EndChar

StartChar: parenright
Encoding: 41 41 10
Width: 279
GlyphClass: 2
Flags: MW
VStem: 179 63<132.5 379 132.5 393.5>
LayerCount: 2
Back
Fore
SplineSet
37 -127 m 0
 37 -118 179 3 179 252 c 0
 179 535 41 656 41 675 c 0
 41 684 47 692 60 692 c 0
 75 692 242 494 242 264 c 0
 242 1 62 -143 56 -143 c 0
 48 -143 37 -136 37 -127 c 0
EndSplineSet
Substitution2: "'case' Case-Sensitive Forms in Latin lookup 14 subtable" parenright.u
Substitution2: "'subs' Subscript in Latin lookup 10 subtable" parenright.sub
Substitution2: "'sups' Superscript in Latin lookup 9 subtable" parenright.sup
Substitution2: "'dnom' Denominators in Latin lookup 6 subtable" parenright.denom
Substitution2: "'numr' Numerators in Latin lookup 5 subtable" parenright.numer
AlternateSubs2: "'aalt' Access All Alternates in Latin lookup 1 subtable" parenright.u parenright.sub parenright.sup parenright.denom parenright.numer
AlternateSubs2: "'aalt' Access All Alternates lookup 0 subtable" parenright.u parenright.sub parenright.sup parenright.denom parenright.numer
EndChar

StartChar: asterisk
Encoding: 42 42 11
Width: 391
GlyphClass: 2
Flags: MW
HStem: 417 64 454 73 658 20G<261.5 277>
VStem: 161 69<377.5 396> 234 64
LayerCount: 2
Back
Fore
SplineSet
27 447 m 0xb8
 27 463 40 476 52 481 c 0xb8
 72 490 125 507 153 518 c 0
 177 528 174 528 156 541 c 0
 131 559 84 584 68 601 c 0
 61 609 54 621 54 632 c 0
 54 647 64 662 85 662 c 0
 98 662 111 654 118 646 c 0
 135 628 163 577 179 552 c 0
 188 538 186 537 192 551 c 0
 203 578 221 640 234 658 c 0
 241 669 255 678 268 678 c 0
 286 678 298 661 298 647 c 0
 298 636 293 626 288 619 c 0
 272 596 230 566 210 544 c 0
 199 532 193 529 216 527 c 0
 247 524 311 527 333 520 c 0
 348 515 364 504 364 486 c 0
 364 465 347 454 329 454 c 0x78
 306 454 252 488 215 505 c 0
 199 512 197 516 201 497 c 0
 209 465 230 412 230 387 c 0
 230 368 221 345 197 345 c 0
 172 345 161 369 161 386 c 0
 161 406 173 454 178 486 c 0
 179 491 180 498 180 502 c 0
 180 516 173 509 164 500 c 0
 141 479 106 436 86 424 c 0
 79 420 70 417 60 417 c 0
 42 417 27 428 27 447 c 0xb8
EndSplineSet
EndChar

StartChar: plus
Encoding: 43 43 12
Width: 527
GlyphClass: 2
Flags: MW
HStem: -25 21G<238 271.5> 185 50<38.5 219 49 217 303 475>
VStem: 238 51<-4 170 252 259 259 422>
LayerCount: 2
Back
Fore
SplineSet
28 212 m 0
 28 225 29 235 49 235 c 2
 219 235 l 2
 237 235 238 241 238 251 c 2
 238 427 l 2
 238 444 248 445 262 445 c 0
 276 445 289 444 289 422 c 2
 289 259 l 2
 289 245 290 235 303 235 c 2
 480 235 l 2
 498 235 499 225 499 211 c 0
 499 194 498 185 475 185 c 2
 303 185 l 2
 288 185 289 182 289 170 c 2
 289 -5 l 2
 289 -24 277 -25 266 -25 c 0
 246 -25 238 -24 238 -4 c 2
 238 170 l 2
 238 186 234 185 217 185 c 2
 48 185 l 2
 29 185 28 195 28 212 c 0
EndSplineSet
EndChar

StartChar: comma
Encoding: 44 44 13
Width: 195
GlyphClass: 2
Flags: MW
HStem: -151 250<20 105>
VStem: 95 63<-16.5 -6>
LayerCount: 2
Back
Fore
SplineSet
4 -126 m 0
 4 -123 27 -108 48 -88 c 0
 65 -71 95 -40 95 -11 c 0
 95 -1 91 9 81 22 c 0
 66 41 41 61 41 68 c 0
 41 79 81 99 98 99 c 0
 112 99 158 67 158 16 c 0
 158 -49 32 -151 24 -151 c 0
 16 -151 4 -134 4 -126 c 0
EndSplineSet
Substitution2: "'subs' Subscript in Latin lookup 10 subtable" comma.sub
Substitution2: "'sups' Superscript in Latin lookup 9 subtable" comma.sup
Substitution2: "'dnom' Denominators in Latin lookup 6 subtable" comma.denom
Substitution2: "'numr' Numerators in Latin lookup 5 subtable" comma.numer
AlternateSubs2: "'aalt' Access All Alternates in Latin lookup 1 subtable" comma.sub comma.sup comma.denom comma.numer
AlternateSubs2: "'aalt' Access All Alternates lookup 0 subtable" comma.sub comma.sup comma.denom comma.numer
EndChar

StartChar: hyphen
Encoding: 45 45 14
Width: 268
GlyphClass: 2
Flags: MW
HStem: 195 49 203 48
VStem: 27 209<198 245>
LayerCount: 2
Back
Fore
SplineSet
27 201 m 0xa0
 27 216 36 243 48 244 c 0xa0
 58 245 226 251 232 251 c 0
 235 251 236 247 236 243 c 0
 236 230 234 204 226 203 c 0x60
 212 202 48 195 34 195 c 0
 30 195 27 195 27 201 c 0xa0
EndSplineSet
Substitution2: "'case' Case-Sensitive Forms in Latin lookup 14 subtable" hyphen.u
Substitution2: "'subs' Subscript in Latin lookup 10 subtable" hyphen.sub
Substitution2: "'sups' Superscript in Latin lookup 9 subtable" hyphen.sup
Substitution2: "'dnom' Denominators in Latin lookup 6 subtable" hyphen.denom
Substitution2: "'numr' Numerators in Latin lookup 5 subtable" hyphen.numer
AlternateSubs2: "'aalt' Access All Alternates in Latin lookup 1 subtable" hyphen.u hyphen.sub hyphen.sup hyphen.denom hyphen.numer
AlternateSubs2: "'aalt' Access All Alternates lookup 0 subtable" hyphen.u hyphen.sub hyphen.sup hyphen.denom hyphen.numer
EndChar

StartChar: period
Encoding: 46 46 15
Width: 210
GlyphClass: 2
Flags: MW
HStem: -11 104<95.5 116 95.5 116>
VStem: 57 96<29.5 52>
LayerCount: 2
Back
Fore
SplineSet
57 38 m 0
 57 66 85 93 106 93 c 0
 126 93 153 65 153 43 c 0
 153 6 122 -11 110 -11 c 0
 80 -11 57 21 57 38 c 0
EndSplineSet
Substitution2: "'subs' Subscript in Latin lookup 10 subtable" period.sub
Substitution2: "'sups' Superscript in Latin lookup 9 subtable" period.sup
Substitution2: "'dnom' Denominators in Latin lookup 6 subtable" period.denom
Substitution2: "'numr' Numerators in Latin lookup 5 subtable" period.numer
AlternateSubs2: "'aalt' Access All Alternates in Latin lookup 1 subtable" period.sub period.sup period.denom period.numer
AlternateSubs2: "'aalt' Access All Alternates lookup 0 subtable" period.sub period.sup period.denom period.numer
EndChar

StartChar: slash
Encoding: 47 47 16
Width: 406
GlyphClass: 2
Flags: W
LayerCount: 2
Back
Fore
SplineSet
5 -224 m 0
 5 -220 17 -185 26 -162 c 2
 343 688 l 2
 348 704 348 707 375 707 c 0
 394 707 400 703 400 696 c 0
 400 691 391 663 385 648 c 2
 71 -203 l 2
 60 -234 61 -236 34 -236 c 0
 23 -236 5 -236 5 -224 c 0
EndSplineSet
Substitution2: "'numr' Numerators in Latin lookup 5 subtable" fraction
AlternateSubs2: "'aalt' Access All Alternates in Latin lookup 1 subtable" fraction
AlternateSubs2: "'aalt' Access All Alternates lookup 0 subtable" fraction
EndChar

StartChar: zero
Encoding: 48 48 17
Width: 500
GlyphClass: 2
Flags: MW
HStem: -8 38<196 269.5 196 296> 333 36<221.5 299>
VStem: 59 51<114.5 197 114.5 222.5> 388 54<154.5 245 140.5 246.5>
LayerCount: 2
Back
Fore
SplineSet
59 164 m 0
 59 281 146 369 264 369 c 0
 374 369 442 292 442 198 c 0
 442 83 352 -8 240 -8 c 0
 140 -8 59 58 59 164 c 0
110 156 m 0
 110 73 161 30 231 30 c 0
 308 30 388 102 388 207 c 0
 388 286 334 333 264 333 c 0
 179 333 110 238 110 156 c 0
EndSplineSet
Substitution2: "'pnum' Proportional Numbers in Latin lookup 12 subtable" zero.p
Substitution2: "'lnum' Lining Figures in Latin lookup 11 subtable" zero.u
Substitution2: "'subs' Subscript in Latin lookup 10 subtable" zero.sub
Substitution2: "'sups' Superscript in Latin lookup 9 subtable" zero.sup
Substitution2: "'dnom' Denominators in Latin lookup 6 subtable" zero.denom
Substitution2: "'numr' Numerators in Latin lookup 5 subtable" zero.numer
AlternateSubs2: "'aalt' Access All Alternates in Latin lookup 1 subtable" zero.p zero.u zero.sub zero.sup zero.denom zero.numer
AlternateSubs2: "'aalt' Access All Alternates lookup 0 subtable" zero.p zero.u zero.sub zero.sup zero.denom zero.numer
EndChar

StartChar: one
Encoding: 49 49 18
Width: 500
GlyphClass: 2
Flags: MW
HStem: -5 33<142 145 322.5 332 332 337.5> 355 33<176.5 182 182 191.5 176.5 237 359.5 366>
VStem: 127 254
LayerCount: 2
Back
Fore
SplineSet
127 12 m 0
 127 22 128 28 142 28 c 2
 184 28 l 2
 193 28 190 27 192 38 c 0
 212 140 242 342 242 344 c 0
 243 352 244 355 237 355 c 2
 182 355 l 2
 170 355 170 362 170 371 c 0
 170 380 171 388 182 388 c 0
 201 388 252 386 277 386 c 0
 302 386 350 388 369 388 c 0
 381 388 381 382 381 371 c 0
 381 361 380 355 366 355 c 2
 325 355 l 2
 315 355 317 355 315 345 c 0
 303 266 283 141 269 37 c 0
 268 30 270 28 279 28 c 2
 332 28 l 2
 344 28 344 21 344 12 c 0
 344 3 343 -5 332 -5 c 0
 313 -5 275 -3 234 -3 c 0
 200 -3 151 -5 139 -5 c 0
 128 -5 127 1 127 12 c 0
EndSplineSet
Substitution2: "'pnum' Proportional Numbers in Latin lookup 12 subtable" one.p
Substitution2: "'lnum' Lining Figures in Latin lookup 11 subtable" one.u
Substitution2: "'subs' Subscript in Latin lookup 10 subtable" one.sub
Substitution2: "'sups' Superscript in Latin lookup 9 subtable" one.sup
Substitution2: "'dnom' Denominators in Latin lookup 6 subtable" one.denom
Substitution2: "'numr' Numerators in Latin lookup 5 subtable" one.numer
AlternateSubs2: "'aalt' Access All Alternates in Latin lookup 1 subtable" one.p one.u one.sub one.sup one.denom one.numer
AlternateSubs2: "'aalt' Access All Alternates lookup 0 subtable" one.p one.u one.sub one.sup one.denom one.numer
EndChar

StartChar: two
Encoding: 50 50 19
Width: 500
GlyphClass: 2
Flags: MW
HStem: -3 64<145 394 394 395> 356 41<193.5 237>
VStem: 292 75<243 291>
LayerCount: 2
Back
Fore
SplineSet
51 11 m 0
 51 19 59 26 64 30 c 0
 95 59 165 97 220 146 c 0
 256 178 292 220 292 266 c 0
 292 316 263 356 211 356 c 0
 146 356 96 275 90 275 c 0
 84 275 69 285 69 294 c 0
 69 302 148 397 239 397 c 0
 323 397 367 353 367 280 c 0
 367 192 229 111 169 76 c 0
 157 69 149 64 145 61 c 2
 394 61 l 2
 400 61 423 110 427 110 c 0
 432 110 450 103 450 100 c 0
 450 93 422 44 407 5 c 0
 405 -1 402 -3 395 -3 c 2
 69 -3 l 2
 57 -3 51 3 51 11 c 0
EndSplineSet
Substitution2: "'pnum' Proportional Numbers in Latin lookup 12 subtable" two.p
Substitution2: "'lnum' Lining Figures in Latin lookup 11 subtable" two.u
Substitution2: "'subs' Subscript in Latin lookup 10 subtable" two.sub
Substitution2: "'sups' Superscript in Latin lookup 9 subtable" two.sup
Substitution2: "'dnom' Denominators in Latin lookup 6 subtable" two.denom
Substitution2: "'numr' Numerators in Latin lookup 5 subtable" two.numer
AlternateSubs2: "'aalt' Access All Alternates in Latin lookup 1 subtable" two.p two.u two.sub two.sup two.denom two.numer
AlternateSubs2: "'aalt' Access All Alternates lookup 0 subtable" two.p two.u two.sub two.sup two.denom two.numer
EndChar

StartChar: three
Encoding: 51 51 20
Width: 500
GlyphClass: 2
Flags: MW
HStem: -217 31<185.5 240.5 185.5 250> 70 38 356 34<231 268.5>
VStem: 324 64<237 297> 346 72<-73 3>
LayerCount: 2
Back
Fore
SplineSet
53 -146 m 0xe8
 53 -131 83 -131 91 -131 c 0
 101 -131 117 -132 127 -143 c 0
 138 -156 166 -186 205 -186 c 0
 276 -186 346 -111 346 -35 c 0xe8
 346 41 291 73 208 73 c 0
 187 73 157 70 152 70 c 0
 139 70 133 72 133 84 c 0
 133 101 138 103 154 108 c 0
 253 136 324 184 324 272 c 0
 324 322 293 356 244 356 c 0
 179 356 141 320 132 320 c 0
 128 320 118 335 118 340 c 0
 118 352 199 390 263 390 c 0
 335 390 388 353 388 281 c 0xf0
 388 193 289 143 268 131 c 1
 296 125 418 107 418 -21 c 0
 418 -130 305 -217 195 -217 c 0
 96 -217 53 -165 53 -146 c 0xe8
EndSplineSet
Substitution2: "'pnum' Proportional Numbers in Latin lookup 12 subtable" three.p
Substitution2: "'lnum' Lining Figures in Latin lookup 11 subtable" three.u
Substitution2: "'subs' Subscript in Latin lookup 10 subtable" three.sub
Substitution2: "'sups' Superscript in Latin lookup 9 subtable" three.sup
Substitution2: "'dnom' Denominators in Latin lookup 6 subtable" three.denom
Substitution2: "'numr' Numerators in Latin lookup 5 subtable" three.numer
AlternateSubs2: "'aalt' Access All Alternates in Latin lookup 1 subtable" three.p three.u three.sub three.sup three.denom three.numer
AlternateSubs2: "'aalt' Access All Alternates lookup 0 subtable" three.p three.u three.sub three.sup three.denom three.numer
EndChar

StartChar: four
Encoding: 52 52 21
Width: 500
GlyphClass: 2
Flags: MW
HStem: -3 60<127 262 361 443> 375 20G<382 394.5>
VStem: 235 78<-204 -190.5>
LayerCount: 2
Back
Fore
SplineSet
43 8 m 0
 43 25 64 58 87 88 c 0
 97 101 112 114 122 126 c 0
 175 189 228 241 285 300 c 0
 293 309 374 395 390 395 c 0
 399 395 404 390 404 378 c 0
 404 375 404 372 403 368 c 2
 353 72 l 2
 351 62 350 57 361 57 c 2
 448 57 l 2
 455 57 458 55 458 44 c 2
 458 10 l 2
 458 -1 455 -3 443 -3 c 2
 344 -3 l 2
 336 -3 338 -3 337 -8 c 0
 330 -69 313 -189 313 -192 c 0
 311 -205 306 -205 296 -207 c 2
 296 -207 254 -215 252 -215 c 0
 245 -215 235 -211 235 -197 c 0
 235 -193 259 -69 270 -10 c 0
 271 -4 271 -3 262 -3 c 2
 64 -3 l 2
 57 -3 43 -3 43 8 c 0
108 64 m 0
 108 60 113 57 127 57 c 2
 274 57 l 2
 285 57 287 58 290 74 c 2
 325 291 l 2
 326 295 325 297 324 297 c 0
 323 297 320 295 318 293 c 2
 121 83 l 2
 113 75 108 68 108 64 c 0
EndSplineSet
Substitution2: "'pnum' Proportional Numbers in Latin lookup 12 subtable" four.p
Substitution2: "'lnum' Lining Figures in Latin lookup 11 subtable" four.u
Substitution2: "'subs' Subscript in Latin lookup 10 subtable" four.sub
Substitution2: "'sups' Superscript in Latin lookup 9 subtable" four.sup
Substitution2: "'dnom' Denominators in Latin lookup 6 subtable" four.denom
Substitution2: "'numr' Numerators in Latin lookup 5 subtable" four.numer
AlternateSubs2: "'aalt' Access All Alternates in Latin lookup 1 subtable" four.p four.u four.sub four.sup four.denom four.numer
AlternateSubs2: "'aalt' Access All Alternates lookup 0 subtable" four.p four.u four.sub four.sup four.denom four.numer
EndChar

StartChar: five
Encoding: 53 53 22
Width: 500
GlyphClass: 2
Flags: MW
HStem: -215 29<62.5 65 61.5 126> 319 62 378 20G<408.5 413>
VStem: 120 45<164 225.5> 290 68<-62 49.5> 396 38
LayerCount: 2
Back
Fore
SplineSet
55 -199 m 0xdc
 55 -191 58 -186 65 -186 c 0
 168 -178 290 -133 290 -5 c 0
 290 104 120 148 120 180 c 0
 120 196 162 293 187 373 c 0
 190 381 197 381 203 381 c 0xdc
 212 381 361 366 373 366 c 0
 390 366 392 364 396 372 c 0
 401 382 407 398 410 398 c 0xbc
 416 398 434 395 434 387 c 0
 434 383 418 342 409 318 c 0
 404 305 403 297 386 297 c 0
 372 297 303 309 224 319 c 0
 214 320 202 320 199 314 c 0
 183 281 165 228 165 223 c 0
 165 213 358 147 358 9 c 0
 358 -133 186 -215 66 -215 c 0
 59 -215 55 -208 55 -199 c 0xdc
EndSplineSet
Substitution2: "'pnum' Proportional Numbers in Latin lookup 12 subtable" five.p
Substitution2: "'lnum' Lining Figures in Latin lookup 11 subtable" five.u
Substitution2: "'subs' Subscript in Latin lookup 10 subtable" five.sub
Substitution2: "'sups' Superscript in Latin lookup 9 subtable" five.sup
Substitution2: "'dnom' Denominators in Latin lookup 6 subtable" five.denom
Substitution2: "'numr' Numerators in Latin lookup 5 subtable" five.numer
AlternateSubs2: "'aalt' Access All Alternates in Latin lookup 1 subtable" five.p five.u five.sub five.sup five.denom five.numer
AlternateSubs2: "'aalt' Access All Alternates lookup 0 subtable" five.p five.u five.sub five.sup five.denom five.numer
EndChar

StartChar: six
Encoding: 54 54 23
Width: 500
GlyphClass: 2
Flags: MW
HStem: -8 35<187.5 268.5 187.5 276.5> 340 27<233 281.5> 639 31
VStem: 52 67<147.5 195 147.5 265> 351 75<153 234>
LayerCount: 2
Back
Fore
SplineSet
52 187 m 0
 52 343 151 479 247 563 c 0
 329 634 418 670 436 670 c 0
 446 670 449 656 449 648 c 0
 449 642 441 640 439 639 c 0
 389 619 348 597 310 560 c 0
 251 503 199 433 176 388 c 0
 170 375 163 363 162 356 c 1
 188 360 215 367 251 367 c 0
 356 367 426 305 426 191 c 0
 426 67 331 -8 222 -8 c 0
 143 -8 52 30 52 187 c 0
119 173 m 0
 119 122 142 27 233 27 c 0
 304 27 351 109 351 197 c 0
 351 271 329 340 234 340 c 0
 212 340 159 329 153 320 c 0
 128 286 119 217 119 173 c 0
EndSplineSet
Substitution2: "'pnum' Proportional Numbers in Latin lookup 12 subtable" six.p
Substitution2: "'lnum' Lining Figures in Latin lookup 11 subtable" six.u
Substitution2: "'subs' Subscript in Latin lookup 10 subtable" six.sub
Substitution2: "'sups' Superscript in Latin lookup 9 subtable" six.sup
Substitution2: "'dnom' Denominators in Latin lookup 6 subtable" six.denom
Substitution2: "'numr' Numerators in Latin lookup 5 subtable" six.numer
AlternateSubs2: "'aalt' Access All Alternates in Latin lookup 1 subtable" six.p six.u six.sub six.sup six.denom six.numer
AlternateSubs2: "'aalt' Access All Alternates lookup 0 subtable" six.p six.u six.sub six.sup six.denom six.numer
EndChar

StartChar: seven
Encoding: 55 55 24
Width: 500
GlyphClass: 2
Flags: MW
HStem: 332 64<176 190 190 383>
VStem: 62 33<285 285 285 292> 87 49 95 35
LayerCount: 2
Back
Fore
SplineSet
62 286 m 0xc0
 62 298 84 342 95 404 c 0
 97 418 100 427 110 427 c 0
 118 427 130 426 130 415 c 0x90
 130 409 128 403 128 397 c 1
 135 396 153 396 176 396 c 2
 444 396 l 2
 451 396 460 395 460 384 c 0
 460 367 293 100 245 18 c 0
 207 -47 163 -123 136 -196 c 0
 132 -207 129 -213 121 -213 c 0
 107 -213 87 -204 87 -190 c 0xa0
 87 -125 320 204 389 316 c 0
 392 321 394 325 394 327 c 0
 394 330 393 332 383 332 c 2
 190 332 l 2
 161 332 114 329 108 325 c 1
 95 285 l 2
 93 281 92 274 82 274 c 0
 75 274 62 276 62 286 c 0xc0
EndSplineSet
Substitution2: "'pnum' Proportional Numbers in Latin lookup 12 subtable" seven.p
Substitution2: "'lnum' Lining Figures in Latin lookup 11 subtable" seven.u
Substitution2: "'subs' Subscript in Latin lookup 10 subtable" seven.sub
Substitution2: "'sups' Superscript in Latin lookup 9 subtable" seven.sup
Substitution2: "'dnom' Denominators in Latin lookup 6 subtable" seven.denom
Substitution2: "'numr' Numerators in Latin lookup 5 subtable" seven.numer
AlternateSubs2: "'aalt' Access All Alternates in Latin lookup 1 subtable" seven.p seven.u seven.sub seven.sup seven.denom seven.numer
AlternateSubs2: "'aalt' Access All Alternates lookup 0 subtable" seven.p seven.u seven.sub seven.sup seven.denom seven.numer
EndChar

StartChar: eight
Encoding: 56 56 25
Width: 500
GlyphClass: 2
Flags: MW
HStem: -6 31<201.5 259 201.5 269> 635 29<235.5 299.5>
VStem: 67 60<107.5 188> 108 59<496 548> 338 65<110 177.5> 368 55<481.5 556>
LayerCount: 2
Back
Fore
SplineSet
67 130 m 0xe8
 67 246 193 316 207 329 c 1
 195 342 108 411 108 500 c 0
 108 596 180 664 283 664 c 0
 365 664 423 615 423 527 c 0xd4
 423 427 304 357 292 344 c 1
 304 331 403 254 403 150 c 0
 403 58 320 -6 218 -6 c 0
 130 -6 67 37 67 130 c 0xe8
127 145 m 0xe8
 127 70 176 25 227 25 c 0
 291 25 338 80 338 140 c 0
 338 215 237 306 225 312 c 1
 212 308 127 240 127 145 c 0xe8
167 534 m 0xd4
 167 458 260 367 271 362 c 1
 284 366 368 438 368 525 c 0
 368 587 330 635 269 635 c 0
 202 635 167 581 167 534 c 0xd4
EndSplineSet
Substitution2: "'pnum' Proportional Numbers in Latin lookup 12 subtable" eight.p
Substitution2: "'lnum' Lining Figures in Latin lookup 11 subtable" eight.u
Substitution2: "'subs' Subscript in Latin lookup 10 subtable" eight.sub
Substitution2: "'sups' Superscript in Latin lookup 9 subtable" eight.sup
Substitution2: "'dnom' Denominators in Latin lookup 6 subtable" eight.denom
Substitution2: "'numr' Numerators in Latin lookup 5 subtable" eight.numer
AlternateSubs2: "'aalt' Access All Alternates in Latin lookup 1 subtable" eight.p eight.u eight.sub eight.sup eight.denom eight.numer
AlternateSubs2: "'aalt' Access All Alternates lookup 0 subtable" eight.p eight.u eight.sub eight.sup eight.denom eight.numer
EndChar

StartChar: nine
Encoding: 57 57 26
Width: 500
GlyphClass: 2
Flags: MW
HStem: -208 39 22 33<217 238.5> 365 32<249.5 320.5>
VStem: 85 65<141 217.5 139 254> 384 64<202.5 259.5 148.5 281>
LayerCount: 2
Back
Fore
SplineSet
39 -185 m 0
 39 -178 55 -175 73 -169 c 0
 161 -138 244 -60 307 16 c 0
 317 28 323 39 325 44 c 1
 318 42 308 37 301 35 c 0
 279 28 251 22 226 22 c 0
 141 22 85 90 85 192 c 0
 85 316 187 397 296 397 c 0
 393 397 448 316 448 203 c 0
 448 94 386 -9 307 -75 c 0
 197 -168 60 -208 51 -208 c 0
 41 -208 39 -192 39 -185 c 0
150 173 m 0
 150 105 181 55 253 55 c 0
 284 55 305 59 326 68 c 0
 359 82 384 165 384 240 c 0
 384 322 346 365 295 365 c 0
 204 365 150 262 150 173 c 0
EndSplineSet
Substitution2: "'pnum' Proportional Numbers in Latin lookup 12 subtable" nine.p
Substitution2: "'lnum' Lining Figures in Latin lookup 11 subtable" nine.u
Substitution2: "'subs' Subscript in Latin lookup 10 subtable" nine.sub
Substitution2: "'sups' Superscript in Latin lookup 9 subtable" nine.sup
Substitution2: "'dnom' Denominators in Latin lookup 6 subtable" nine.denom
Substitution2: "'numr' Numerators in Latin lookup 5 subtable" nine.numer
AlternateSubs2: "'aalt' Access All Alternates in Latin lookup 1 subtable" nine.p nine.u nine.sub nine.sup nine.denom nine.numer
AlternateSubs2: "'aalt' Access All Alternates lookup 0 subtable" nine.p nine.u nine.sub nine.sup nine.denom nine.numer
EndChar

StartChar: colon
Encoding: 58 58 27
Width: 209
GlyphClass: 2
Flags: MW
HStem: -11 104<95.5 116 95.5 116> 264 104<124.5 145 124.5 145>
VStem: 57 96<29.5 52> 86 96<304.5 327>
LayerCount: 2
Back
Fore
SplineSet
57 38 m 0xe0
 57 66 85 93 106 93 c 0
 126 93 153 65 153 43 c 0
 153 6 122 -11 110 -11 c 0
 80 -11 57 21 57 38 c 0xe0
86 313 m 0xd0
 86 341 114 368 135 368 c 0
 155 368 182 340 182 318 c 0
 182 281 151 264 139 264 c 0
 109 264 86 296 86 313 c 0xd0
EndSplineSet
EndChar

StartChar: semicolon
Encoding: 59 59 28
Width: 195
GlyphClass: 2
Flags: MW
HStem: 264 104<115.5 136 115.5 136>
VStem: 77 96<304.5 327> 95 63<-16.5 -6>
LayerCount: 2
Back
Fore
SplineSet
4 -126 m 0xa0
 4 -123 27 -108 48 -88 c 0
 65 -71 95 -40 95 -11 c 0
 95 -1 91 9 81 22 c 0
 66 41 41 61 41 68 c 0
 41 79 81 99 98 99 c 0
 112 99 158 67 158 16 c 0
 158 -49 32 -151 24 -151 c 0
 16 -151 4 -134 4 -126 c 0xa0
77 313 m 0xc0
 77 341 105 368 126 368 c 0
 146 368 173 340 173 318 c 0
 173 281 142 264 130 264 c 0
 100 264 77 296 77 313 c 0xc0
EndSplineSet
EndChar

StartChar: less
Encoding: 60 60 29
Width: 527
GlyphClass: 2
Flags: MW
HStem: 364 20G<464 473>
LayerCount: 2
Back
Fore
SplineSet
38 211 m 0
 38 221 39 228 55 234 c 0
 462 382 460 384 468 384 c 0
 478 384 490 378 490 356 c 0
 490 345 480 340 472 337 c 2
 157 226 l 2
 140 220 121 212 117 208 c 1
 121 204 140 199 157 193 c 2
 477 81 l 2
 484 79 490 74 490 65 c 0
 490 56 483 38 463 38 c 0
 455 38 459 38 54 185 c 0
 39 190 38 197 38 211 c 0
EndSplineSet
EndChar

StartChar: equal
Encoding: 61 61 30
Width: 527
GlyphClass: 2
Flags: MW
HStem: 107 51<38 480 49 475> 263 50<38 480 49 475>
LayerCount: 2
Back
Fore
SplineSet
28 134 m 0
 28 147 29 158 49 158 c 2
 480 158 l 2
 498 158 499 148 499 134 c 0
 499 117 498 107 475 107 c 2
 48 107 l 2
 28 107 28 117 28 134 c 0
28 290 m 0
 28 303 29 313 49 313 c 2
 480 313 l 2
 498 313 499 303 499 289 c 0
 499 272 498 263 475 263 c 2
 48 263 l 2
 28 263 28 273 28 290 c 0
EndSplineSet
EndChar

StartChar: greater
Encoding: 62 62 31
Width: 527
GlyphClass: 2
Flags: MW
HStem: 364 20G<53.5 63>
LayerCount: 2
Back
Fore
SplineSet
38 65 m 0
 38 73 43 79 50 81 c 2
 371 193 l 2
 389 199 408 205 411 208 c 1
 406 213 387 220 371 226 c 2
 55 337 l 2
 47 340 38 345 38 356 c 0
 38 378 48 384 59 384 c 0
 67 384 65 382 472 234 c 0
 488 228 490 222 490 211 c 0
 490 197 488 190 473 185 c 0
 68 38 72 38 64 38 c 0
 44 38 38 56 38 65 c 0
EndSplineSet
EndChar

StartChar: question
Encoding: 63 63 32
Width: 374
GlyphClass: 2
Flags: MW
HStem: -11 104<115.5 136 115.5 136> 597 63<176 204.5 168.5 205>
VStem: 77 96<29.5 52> 81 40<185.5 205 179.5 226> 310 32<488.5 527.5 467.5 529>
LayerCount: 2
Back
Fore
SplineSet
77 38 m 0xe8
 77 66 105 93 126 93 c 0
 146 93 173 65 173 43 c 0
 173 6 142 -11 130 -11 c 0
 100 -11 77 21 77 38 c 0xe8
81 206 m 0xd8
 81 246 110 280 147 317 c 0
 215 385 310 462 310 515 c 0
 310 543 292 572 274 583 c 0
 253 596 223 597 187 597 c 0
 165 597 116 594 107 594 c 0
 93 594 92 611 92 626 c 2
 92 636 l 2
 92 652 99 653 113 655 c 0
 131 658 160 660 177 660 c 0
 232 660 255 650 269 641 c 0
 314 611 342 554 342 501 c 0
 342 434 322 417 292 383 c 0
 251 337 223 312 187 276 c 0
 167 256 121 218 121 192 c 0
 121 167 149 144 149 139 c 0
 149 135 137 123 132 123 c 0
 124 123 81 165 81 206 c 0xd8
EndSplineSet
Position2: "'cpsp' Capital Spacing in Latin lookup 0 subtable" dx=4 dy=0 dh=8 dv=0
EndChar

StartChar: at
Encoding: 64 64 33
Width: 795
GlyphClass: 2
Flags: MW
HStem: -116 35<285.5 418.5> 51 36<450.5 483> 51 53 371 27<404.5 435> 557 34<369.5 539.5 363.5 540.5>
VStem: 47 40<100 290 100 302> 201 73<136 172.5> 457 98<336.5 413.5> 712 36<308 413.5>
LayerCount: 2
Back
Fore
SplineSet
47 187 m 0xdf80
 47 417 259 591 468 591 c 0
 611 591 748 526 748 344 c 0
 748 150 557 51 409 51 c 0
 391 51 371 57 371 76 c 0
 371 86 373 103 375 114 c 1
 357 96 309 53 262 53 c 0
 220 53 201 96 201 139 c 0
 201 206 309 398 454 398 c 0
 468 398 483 392 485 392 c 0
 487 393 490 397 497 406 c 0
 507 418 512 423 527 423 c 0
 540 423 555 420 555 407 c 0
 555 403 554 397 552 392 c 0
 526 336 442 147 442 115 c 0
 442 98 442 87 459 87 c 0
 513 87 585 120 645 180 c 0
 686 221 712 279 712 337 c 0
 712 490 610 557 471 557 c 0
 268 557 87 399 87 181 c 0
 87 19 215 -81 356 -81 c 0
 492 -81 580 -32 664 46 c 0
 665 47 674 56 679 56 c 0
 690 56 697 40 697 36 c 0
 697 32 695 29 691 25 c 0
 607 -66 484 -116 353 -116 c 0
 195 -116 47 -10 47 187 c 0xdf80
274 147 m 0
 274 125 289 104 313 104 c 0xbf80
 378 104 457 323 457 350 c 0
 457 362 442 371 428 371 c 0
 381 371 274 255 274 147 c 0
EndSplineSet
EndChar

StartChar: A
Encoding: 65 65 34
Width: 688
GlyphClass: 2
Flags: MW
HStem: -6 36<38 39 197.5 209 209 215 460 466.5 649.5 657 657 663> 278 30<278 469 302 469 469 474 302 477> 670 20G<481.5 493>
LayerCount: 2
Back
Fore
SplineSet
17 15 m 0
 17 29 22 30 38 30 c 2
 70 30 l 1
 90 54 338 494 418 612 c 0
 432 632 451 642 468 674 c 0
 472 682 477 690 486 690 c 0
 500 690 501 678 502 669 c 0
 521 556 601 60 616 30 c 1
 657 30 l 2
 669 30 671 26 671 14 c 0
 671 -1 669 -6 657 -6 c 0
 642 -6 597 -3 567 -3 c 0
 537 -3 478 -6 455 -6 c 0
 441 -6 439 -2 439 15 c 0
 439 29 444 30 460 30 c 2
 516 30 l 1
 516 38 l 2
 516 78 491 229 488 262 c 0
 486 277 486 278 477 278 c 2
 284 278 l 2
 272 278 271 278 264 265 c 0
 240 220 150 54 143 30 c 1
 209 30 l 2
 221 30 223 26 223 14 c 0
 223 -1 221 -6 209 -6 c 0
 186 -6 152 -3 107 -3 c 0
 77 -3 45 -6 33 -6 c 0
 19 -6 17 -2 17 15 c 0
287 311 m 0
 287 310 289 308 302 308 c 2
 469 308 l 2
 479 308 479 309 479 310 c 0
 479 323 438 573 435 573 c 0
 434 573 310 353 294 325 c 0
 290 318 287 312 287 311 c 0
EndSplineSet
Position2: "'cpsp' Capital Spacing in Latin lookup 0 subtable" dx=4 dy=0 dh=8 dv=0
EndChar

StartChar: B
Encoding: 66 66 35
Width: 571
GlyphClass: 2
Flags: MW
HStem: -6 39<237.5 292> 320 27<220 231 231 236 236 246.5 220 262> 633 35<86 91.5 83.5 92 83.5 160>
VStem: 441 88<129.5 230>
LayerCount: 2
Back
Fore
SplineSet
17 15 m 0
 17 29 22 30 38 30 c 2
 78 30 l 1
 79 37 160 563 160 628 c 2
 160 633 l 1
 92 633 l 2
 80 633 76 634 76 651 c 0
 76 664 79 668 88 668 c 0
 95 668 178 665 213 665 c 0
 241 665 310 668 323 668 c 0
 428 668 524 634 524 516 c 0
 524 394 385 350 342 338 c 1
 386 332 529 307 529 165 c 0
 529 11 347 -6 237 -6 c 0
 214 -6 167 -3 137 -3 c 0
 107 -3 57 -6 34 -6 c 0
 20 -6 17 -2 17 15 c 0
169 48 m 0
 169 36 173 36 200 34 c 0
 214 33 230 33 245 33 c 0
 361 33 441 78 441 181 c 0
 441 279 362 320 262 320 c 2
 231 320 l 2
 206 320 207 319 205 310 c 0
 202 296 169 58 169 48 c 0
210 352 m 0
 210 348 211 347 220 347 c 2
 236 347 l 2
 257 347 283 346 287 346 c 0
 308 346 323 354 341 363 c 0
 392 389 439 429 439 501 c 0
 439 581 382 634 291 634 c 2
 275 634 l 2
 256 634 251 632 246 605 c 0
 235 539 215 393 211 364 c 0
 210 359 210 355 210 352 c 0
EndSplineSet
Position2: "'cpsp' Capital Spacing in Latin lookup 0 subtable" dx=4 dy=0 dh=8 dv=0
EndChar

StartChar: C
Encoding: 67 67 36
Width: 686
GlyphClass: 2
Flags: MW
HStem: -17 40<301.5 407.5> 640 34<320 440.5 301 447.5>
VStem: 32 96<204 367 204 400.5> 573 46 608 46
LayerCount: 2
Back
Fore
SplineSet
32 291 m 0xf0
 32 510 204 674 398 674 c 0
 483 674 563 636 608 590 c 1
 611 600 616 628 622 628 c 0
 630 628 654 624 654 614 c 0xe8
 654 607 624 460 619 434 c 0
 617 425 607 427 603 427 c 0
 590 427 577 434 577 441 c 0
 577 446 599 527 600 538 c 1
 593 550 498 640 397 640 c 0
 243 640 128 446 128 288 c 0
 128 120 236 23 367 23 c 0
 469 23 544 84 548 97 c 0
 559 129 567 159 573 181 c 0
 578 196 587 195 600 192 c 0
 609 190 619 186 619 178 c 0
 619 171 607 131 586 61 c 0
 579 38 455 -17 360 -17 c 0
 197 -17 32 62 32 291 c 0xf0
EndSplineSet
Position2: "'cpsp' Capital Spacing in Latin lookup 0 subtable" dx=4 dy=0 dh=8 dv=0
EndChar

StartChar: D
Encoding: 68 68 37
Width: 742
GlyphClass: 2
Flags: MW
HStem: -7 35<23.5 77 309 405.5> 632 34<327 418.5>
VStem: 611 94<317 442.5>
LayerCount: 2
Back
Fore
SplineSet
16 10 m 0
 16 27 23 28 36 28 c 2
 77 28 l 1
 88 64 154 545 164 625 c 0
 164 629 162 633 162 633 c 1
 93 631 l 2
 84 631 77 632 77 646 c 0
 77 658 78 665 93 665 c 0
 97 665 178 664 212 664 c 0
 272 664 310 666 344 666 c 0
 552 666 705 572 705 335 c 0
 705 110 537 -7 341 -7 c 0
 277 -7 188 -3 127 -3 c 0
 99 -3 41 -7 30 -7 c 0
 17 -7 16 -2 16 10 c 0
174 46 m 0
 174 37 177 32 179 31 c 0
 183 28 216 28 236 28 c 0
 575 28 611 269 611 365 c 0
 611 520 521 632 316 632 c 0
 297 632 256 631 256 628 c 0
 249 584 174 91 174 46 c 0
EndSplineSet
Position2: "'cpsp' Capital Spacing in Latin lookup 0 subtable" dx=4 dy=0 dh=8 dv=0
EndChar

StartChar: E
Encoding: 69 69 38
Width: 579
GlyphClass: 2
Flags: MW
HStem: -6 36<38 45.5> -6 46<488.5 490 484.5 505.5> 322 33<215.5 387 223 374> 633 35<96 100.5 92.5 102 92.5 160>
VStem: 161 50 161 91 409 36<241 241> 421 56 442 35<421 421> 504 37<548.5 552 547 556.5> 525 37
LayerCount: 2
Back
Fore
SplineSet
17 15 m 0xb120
 17 29 22 30 38 30 c 2
 78 30 l 1
 84 70 161 550 161 626 c 0
 161 630 160 633 160 633 c 1
 102 633 l 2
 90 633 84 634 84 651 c 0
 84 664 88 668 97 668 c 0
 104 668 178 665 213 665 c 0
 266 665 379 668 422 668 c 0
 491 668 513 670 514 678 c 0
 514 680 515 693 530 693 c 0
 544 693 550 691 550 679 c 0
 550 659 543 632 541 552 c 0
 541 542 536 541 522 541 c 0
 509 541 504 543 504 554 c 0
 504 559 509 617 510 629 c 1
 489 632 353 635 252 635 c 1xb440
 245 615 220 432 212 369 c 0
 211 364 211 360 211 359 c 0
 211 356 210 355 223 355 c 2
 387 355 l 2
 407 355 429 356 431 366 c 2
 442 421 l 2xb880
 443 428 454 428 461 428 c 0
 467 428 477 427 477 419 c 0xb1
 477 409 467 369 460 331 c 0
 454 299 446 254 445 241 c 0
 444 233 436 233 429 233 c 2
 425 233 l 2
 418 233 409 234 409 241 c 0xb2
 409 247 421 308 421 311 c 0
 421 318 417 322 374 322 c 2
 223 322 l 2
 208 322 208 322 206 314 c 0
 203 298 172 83 167 39 c 0
 167 36 168 33 171 33 c 0
 196 33 479 40 490 40 c 1x71
 497 46 513 106 525 135 c 0
 527 141 530 146 542 146 c 0
 550 146 562 141 562 132 c 0
 562 119 541 70 520 7 c 0
 517 -3 511 -6 500 -6 c 0
 477 -6 167 -3 137 -3 c 0
 107 -3 57 -6 34 -6 c 0
 20 -6 17 -2 17 15 c 0xb120
EndSplineSet
Position2: "'cpsp' Capital Spacing in Latin lookup 0 subtable" dx=4 dy=0 dh=8 dv=0
EndChar

StartChar: F
Encoding: 70 70 39
Width: 541
GlyphClass: 2
Flags: MW
HStem: -6 36<36 43.5 227.5 239 239 245> 322 33<215.5 379 223 366> 633 35<100 102.5 94.5 106 94.5 160>
VStem: 161 50 161 91 404 36<253 253> 413 53 431 35<409 409> 479 36<552.5 554 549 560.5>
LayerCount: 2
Back
Fore
SplineSet
17 15 m 0xe280
 17 29 20 30 36 30 c 2
 78 30 l 1
 84 70 161 550 161 626 c 0
 161 630 160 633 160 633 c 1
 106 633 l 2
 94 633 84 634 84 651 c 0
 84 664 90 668 99 668 c 0
 106 668 178 665 213 665 c 0
 266 665 379 668 422 668 c 0
 490 668 487 669 488 678 c 0
 490 692 495 693 504 693 c 0
 520 693 524 693 524 679 c 0
 524 671 517 623 515 554 c 0
 515 544 512 541 496 541 c 0
 478 541 479 547 479 558 c 0
 479 563 483 617 484 629 c 1
 466 632 352 635 252 635 c 1xea80
 245 611 217 403 212 368 c 0
 211 364 211 361 211 359 c 0
 211 355 210 355 223 355 c 2
 379 355 l 2
 399 355 421 357 423 366 c 2
 431 409 l 2xf180
 432 418 443 418 450 418 c 0
 456 418 466 417 466 409 c 0xe280
 466 399 459 369 452 331 c 0
 446 299 442 265 440 252 c 0
 439 245 431 243 424 243 c 0
 416 243 403 243 404 253 c 0xe480
 406 266 413 308 413 311 c 0
 413 318 409 322 366 322 c 2
 223 322 l 2
 208 322 208 322 206 314 c 0
 203 298 172 80 167 36 c 0
 166 32 167 30 172 30 c 2
 239 30 l 2
 251 30 251 26 251 14 c 0
 251 -1 251 -6 239 -6 c 0
 216 -6 167 -3 137 -3 c 0
 107 -3 55 -6 32 -6 c 0
 18 -6 17 -2 17 15 c 0xe280
EndSplineSet
Position2: "'cpsp' Capital Spacing in Latin lookup 0 subtable" dx=4 dy=0 dh=8 dv=0
EndChar

StartChar: G
Encoding: 71 71 40
Width: 721
GlyphClass: 2
Flags: MW
HStem: -29 40<300 379> 217 36<443 447 447 448 443 534> 647 31<334.5 452>
VStem: 32 101<193 362 193 377> 540 88<206 217> 606 40
LayerCount: 2
Back
Fore
SplineSet
32 266 m 0xf8
 32 488 207 678 411 678 c 0
 526 678 612 627 627 618 c 1
 632 634 627 655 645 655 c 0
 654 655 671 654 669 643 c 0
 661 590 657 565 646 468 c 0xf4
 645 460 643 451 628 451 c 0xf8
 612 451 606 457 606 466 c 0xf4
 606 468 607 469 607 471 c 0
 608 474 622 558 623 569 c 1
 614 580 489 647 415 647 c 0
 254 647 133 448 133 276 c 0
 133 110 238 11 362 11 c 0
 458 11 518 54 522 71 c 0
 527 90 537 136 540 206 c 0
 540 214 541 217 534 217 c 2
 447 217 l 2
 438 217 438 225 438 232 c 0
 438 240 438 253 448 253 c 0
 497 252 548 250 580 250 c 0
 612 250 638 252 685 253 c 0
 695 253 694 244 694 236 c 0
 694 229 695 217 685 217 c 2
 628 217 l 1
 623 201 614 106 610 74 c 0
 608 52 450 -29 308 -29 c 0
 229 -29 32 17 32 266 c 0xf8
EndSplineSet
Position2: "'cpsp' Capital Spacing in Latin lookup 0 subtable" dx=4 dy=0 dh=8 dv=0
EndChar

StartChar: H
Encoding: 72 72 41
Width: 795
GlyphClass: 2
Flags: MW
HStem: -6 36<36 43.5 237.5 249 249 255 483 490.5 676.5 688 688 694> 323 30<225.5 573 235 569> 636 36<102 121 106.5 121 106.5 171 312.5 320 545.5 560 749.5 757>
VStem: 534 92<30 45.5>
LayerCount: 2
Back
Fore
SplineSet
17 13 m 0
 17 26 19 30 36 30 c 2
 89 30 l 1
 103 65 177 587 177 623 c 0
 177 633 175 636 171 636 c 2
 106 636 l 2
 98 636 95 639 95 654 c 0
 95 671 100 672 113 672 c 0
 129 672 193 669 223 669 c 0
 253 669 301 672 324 672 c 0
 338 672 341 668 341 651 c 0
 341 637 336 636 320 636 c 2
 271 636 l 1
 264 621 245 499 226 369 c 0
 225 359 223 353 235 353 c 2
 573 353 l 2
 580 353 583 354 584 362 c 0
 601 486 614 602 614 623 c 0
 614 636 613 636 608 636 c 2
 545 636 l 2
 537 636 532 639 532 654 c 0
 532 671 539 672 552 672 c 0
 568 672 631 669 661 669 c 0
 691 669 738 672 761 672 c 0
 775 672 778 668 778 651 c 0
 778 637 773 636 757 636 c 2
 708 636 l 1
 691 603 626 51 626 40 c 0
 626 32 628 30 631 30 c 2
 688 30 l 2
 700 30 702 26 702 14 c 0
 702 -1 700 -6 688 -6 c 0
 665 -6 604 -3 574 -3 c 0
 544 -3 502 -6 479 -6 c 0
 465 -6 462 -2 462 15 c 0
 462 29 467 30 483 30 c 2
 534 30 l 1
 540 48 558 179 577 314 c 0
 578 321 578 323 569 323 c 2
 231 323 l 2
 220 323 219 323 217 310 c 0
 200 185 185 65 185 40 c 0
 185 32 187 30 190 30 c 2
 249 30 l 2
 261 30 263 26 263 14 c 0
 263 -1 261 -6 249 -6 c 0
 226 -6 166 -3 136 -3 c 0
 106 -3 55 -6 32 -6 c 0
 18 -6 17 0 17 13 c 0
EndSplineSet
Position2: "'cpsp' Capital Spacing in Latin lookup 0 subtable" dx=4 dy=0 dh=8 dv=0
EndChar

StartChar: I
Encoding: 73 73 42
Width: 377
GlyphClass: 2
Flags: MW
HStem: -6 36<38 45.5 256.5 268 268 274> 636 36<110.5 111 111 125 110.5 178 331.5 339>
LayerCount: 2
Back
Fore
SplineSet
17 15 m 0
 17 29 22 30 38 30 c 2
 96 30 l 1
 108 66 184 575 184 623 c 0
 184 633 182 636 178 636 c 2
 111 636 l 2
 103 636 97 639 97 654 c 0
 97 671 104 672 117 672 c 0
 133 672 204 669 234 669 c 0
 264 669 320 672 343 672 c 0
 357 672 360 668 360 651 c 0
 360 637 355 636 339 636 c 2
 283 636 l 1
 268 604 197 97 197 40 c 0
 197 32 199 30 202 30 c 2
 268 30 l 2
 280 30 282 26 282 14 c 0
 282 -1 280 -6 268 -6 c 0
 245 -6 177 -3 147 -3 c 0
 117 -3 57 -6 34 -6 c 0
 20 -6 17 -2 17 15 c 0
EndSplineSet
Position2: "'cpsp' Capital Spacing in Latin lookup 0 subtable" dx=4 dy=0 dh=8 dv=0
EndChar

StartChar: J
Encoding: 74 74 43
Width: 365
GlyphClass: 2
Flags: MW
HStem: -215 73<-16.5 78> 636 36<101 107 107 115 100.5 177 319.5 327>
LayerCount: 2
Back
Fore
SplineSet
-61 -188 m 0
 -61 -150 1 -121 9 -121 c 0
 27 -121 42 -142 61 -142 c 0
 95 -142 100 -64 106 -5 c 0
 131 239 184 605 184 621 c 0
 184 632 184 636 177 636 c 2
 107 636 l 2
 95 636 86 637 86 654 c 0
 86 671 94 672 107 672 c 0
 123 672 202 669 232 669 c 0
 262 669 308 672 331 672 c 0
 345 672 348 668 348 651 c 0
 348 637 343 636 327 636 c 2
 278 636 l 1
 265 608 216 207 206 130 c 0
 194 45 185 -66 106 -150 c 0
 77 -181 43 -215 -5 -215 c 0
 -28 -215 -61 -206 -61 -188 c 0
EndSplineSet
Position2: "'cpsp' Capital Spacing in Latin lookup 0 subtable" dx=4 dy=0 dh=8 dv=0
EndChar

StartChar: K
Encoding: 75 75 44
Width: 656
GlyphClass: 2
Flags: MW
HStem: -6 36<38 43.5 217.5 229 229 235 437 442.5 615.5 627 627 633> 317 24<204.5 264 215 256> 636 36<95 114 99.5 114 99.5 156 289.5 297 454 460 460 465 602.5 607>
LayerCount: 2
Back
Fore
SplineSet
17 13 m 0
 17 26 21 30 38 30 c 2
 69 30 l 1
 83 65 162 587 162 623 c 0
 162 633 160 636 156 636 c 2
 99 636 l 2
 91 636 84 639 84 654 c 0
 84 671 93 672 106 672 c 0
 122 672 178 669 208 669 c 0
 238 669 278 672 301 672 c 0
 315 672 316 668 316 651 c 0
 316 637 313 636 297 636 c 2
 260 636 l 1
 245 623 206 373 205 358 c 0
 204 347 208 341 215 341 c 2
 264 341 l 2
 275 341 443 561 486 620 c 0
 490 626 494 631 494 633 c 0
 494 635 492 636 483 636 c 2
 460 636 l 2
 448 636 440 637 440 654 c 0
 440 671 447 672 458 672 c 0
 472 672 501 669 531 669 c 0
 571 669 594 672 611 672 c 0
 625 672 628 668 628 651 c 0
 628 637 623 636 607 636 c 2
 551 636 l 1
 486 549 379 427 333 376 c 0
 326 368 318 360 318 359 c 0
 318 357 321 353 325 349 c 0
 394 287 481 157 564 46 c 0
 571 36 584 30 597 30 c 2
 627 30 l 2
 639 30 639 26 639 14 c 0
 639 -1 639 -6 627 -6 c 0
 604 -6 567 -3 511 -3 c 0
 481 -3 454 -6 431 -6 c 0
 417 -6 416 -2 416 15 c 0
 416 29 421 30 437 30 c 2
 445 30 l 2
 461 30 462 33 462 34 c 0
 462 37 457 44 451 52 c 0
 412 107 263 317 256 317 c 2
 207 317 l 2
 202 317 199 316 198 310 c 0
 185 214 161 69 161 38 c 0
 161 35 162 31 162 30 c 2
 229 30 l 2
 241 30 243 26 243 14 c 0
 243 -1 241 -6 229 -6 c 0
 206 -6 146 -3 116 -3 c 0
 86 -3 55 -6 32 -6 c 0
 18 -6 17 0 17 13 c 0
EndSplineSet
Position2: "'cpsp' Capital Spacing in Latin lookup 0 subtable" dx=4 dy=0 dh=8 dv=0
EndChar

StartChar: L
Encoding: 76 76 45
Width: 586
GlyphClass: 2
Flags: MW
HStem: -6 36<37 44.5> -6 46 636 36<98 104 104 114 98 163 306.5 317>
VStem: 163 95<626 636 636 636>
LayerCount: 2
Back
Fore
SplineSet
17 15 m 0xb0
 17 28 21 30 37 30 c 2
 87 30 l 1xb0
 94 71 163 596 163 626 c 2
 163 636 l 1
 104 636 l 2
 90 636 87 639 87 654 c 0
 87 670 90 672 106 672 c 0
 122 672 164 669 208 669 c 0
 256 669 295 672 318 672 c 0
 335 672 338 669 338 654 c 0
 338 641 334 636 317 636 c 2
 258 636 l 1
 252 594 181 65 181 53 c 0
 181 40 184 34 199 34 c 0
 308 34 476 39 486 40 c 0x70
 501 41 499 40 506 61 c 2
 532 140 l 2
 534 146 538 150 545 149 c 0
 554 148 569 145 569 135 c 0
 569 131 550 76 531 7 c 0
 528 -4 523 -6 513 -6 c 0
 490 -6 163 -3 133 -3 c 0
 103 -3 56 -6 33 -6 c 0
 19 -6 17 -2 17 15 c 0xb0
EndSplineSet
Substitution2: "'locl' Localized Forms in Latin lookup 2 subtable" L.CAT
AlternateSubs2: "'aalt' Access All Alternates in Latin lookup 1 subtable" L.CAT
Position2: "'cpsp' Capital Spacing in Latin lookup 0 subtable" dx=4 dy=0 dh=8 dv=0
EndChar

StartChar: M
Encoding: 77 77 46
Width: 883
GlyphClass: 2
Flags: MW
HStem: -6 36<38 41 189 194 194 200 600 600.5 802.5 812 812 818> 636 36<142 148 148 155 142 194 837.5 845>
LayerCount: 2
Back
Fore
SplineSet
17 15 m 0
 17 29 22 30 38 30 c 2
 84 30 l 1
 115 173 216 619 216 631 c 0
 216 635 214 636 194 636 c 2
 148 636 l 2
 136 636 134 640 134 652 c 0
 134 667 136 672 148 672 c 0
 162 672 232 669 253 669 c 0
 275 669 293 672 300 672 c 0
 310 672 320 672 323 657 c 2
 424 148 l 2
 427 135 429 130 432 130 c 0
 435 130 439 137 444 148 c 0
 526 319 602 480 696 653 c 0
 702 664 707 669 720 669 c 2
 764 669 l 2
 794 669 826 672 849 672 c 0
 863 672 866 668 866 651 c 0
 866 637 861 636 845 636 c 2
 802 636 l 1
 797 595 740 93 738 30 c 1
 812 30 l 2
 824 30 828 27 828 14 c 0
 828 -1 826 -6 814 -6 c 0
 791 -6 722 -3 692 -3 c 0
 662 -3 605 -6 596 -6 c 0
 582 -6 579 -2 579 15 c 0
 579 29 584 30 600 30 c 2
 638 30 l 1
 657 55 705 518 714 606 c 1
 628 442 566 329 469 123 c 0
 448 77 429 72 393 25 c 0
 384 14 380 12 375 12 c 0
 368 12 359 17 356 36 c 0
 333 181 262 533 248 604 c 1
 225 517 210 451 195 376 c 0
 165 233 134 61 132 30 c 1
 194 30 l 2
 206 30 208 26 208 14 c 0
 208 -1 206 -6 194 -6 c 0
 184 -6 136 -3 106 -3 c 0
 76 -3 48 -6 34 -6 c 0
 20 -6 17 -2 17 15 c 0
EndSplineSet
Position2: "'cpsp' Capital Spacing in Latin lookup 0 subtable" dx=4 dy=0 dh=8 dv=0
EndChar

StartChar: N
Encoding: 78 78 47
Width: 824
GlyphClass: 2
Flags: MW
HStem: -24 21G -6 36<27 85 215.5 227 227 233> 636 36<93 99 99 106 93 159 611 617 617 625.5 783 786>
VStem: 85 57<30 85> 692 54<627 636 636 636>
LayerCount: 2
Back
Fore
SplineSet
17 15 m 0x78
 17 29 22 30 38 30 c 2
 85 30 l 1x78
 113 203 144 373 174 541 c 0
 178 561 185 597 185 614 c 0
 185 617 184 618 180 625 c 0
 175 635 173 636 159 636 c 2
 99 636 l 2
 87 636 87 640 87 652 c 0
 87 667 87 672 99 672 c 0
 113 672 192 669 213 669 c 0
 235 669 251 672 258 672 c 0
 270 672 274 669 281 658 c 2
 609 159 l 2
 616 149 621 148 622 148 c 0
 634 179 692 570 692 627 c 2
 692 636 l 1
 617 636 l 2
 605 636 603 640 603 652 c 0
 603 667 605 672 617 672 c 0
 634 672 669 669 706 669 c 0
 748 669 776 672 790 672 c 0
 804 672 807 668 807 651 c 0
 807 637 802 636 786 636 c 2
 746 636 l 1
 737 607 688 304 667 172 c 0
 663 147 658 120 650 2 c 0
 649 -17 646 -24 632 -24 c 0xb8
 619 -24 610 -5 601 9 c 0
 556 82 527 126 484 189 c 2
 228 563 l 2
 219 575 214 583 212 566 c 0
 210 552 142 128 142 42 c 0
 142 35 143 31 143 30 c 2
 227 30 l 2
 239 30 241 26 241 14 c 0
 241 -1 239 -6 227 -6 c 0x78
 204 -6 151 -3 121 -3 c 0xb8
 91 -3 42 -6 34 -6 c 0
 20 -6 17 -2 17 15 c 0x78
EndSplineSet
Position2: "'cpsp' Capital Spacing in Latin lookup 0 subtable" dx=4 dy=0 dh=8 dv=0
EndChar

StartChar: O
Encoding: 79 79 48
Width: 734
GlyphClass: 2
Flags: MW
HStem: -25 30<273 428.5 273 436.5> 642 34<338.5 480.5>
VStem: 32 98<217 374 217 400.5> 605 97<293 428.5>
LayerCount: 2
Back
Fore
SplineSet
32 280 m 0
 32 521 224 676 407 676 c 0
 590 676 702 543 702 348 c 0
 702 146 539 -25 334 -25 c 0
 173 -25 32 64 32 280 c 0
130 286 m 0
 130 148 195 5 351 5 c 0
 506 5 605 213 605 373 c 0
 605 484 551 642 410 642 c 0
 267 642 130 462 130 286 c 0
EndSplineSet
Position2: "'cpsp' Capital Spacing in Latin lookup 0 subtable" dx=4 dy=0 dh=8 dv=0
EndChar

StartChar: P
Encoding: 80 80 49
Width: 570
GlyphClass: 2
Flags: MW
HStem: -6 36<38 45.5 227.5 239 239 245> 299 27<277.5 287.5 222 349> 633 35<98 100.5 92.5 104 92.5 160> 640 30<316 345>
VStem: 161 88 455 83<430.5 538.5>
LayerCount: 2
Back
Fore
SplineSet
17 15 m 0xdc
 17 29 22 30 38 30 c 2
 78 30 l 1
 84 72 161 598 161 626 c 0
 161 630 160 633 160 633 c 1
 104 633 l 2
 92 633 84 634 84 651 c 0
 84 664 88 668 97 668 c 0xec
 104 668 173 665 208 665 c 0
 238 665 307 670 325 670 c 0
 462 670 538 596 538 496 c 0
 538 342 407 299 291 299 c 0
 264 299 225 301 215 301 c 0
 203 301 201 300 200 294 c 0
 196 278 172 80 167 36 c 0
 166 32 167 30 172 30 c 2
 239 30 l 2
 251 30 251 26 251 14 c 0
 251 -1 251 -6 239 -6 c 0
 216 -6 167 -3 137 -3 c 0
 107 -3 57 -6 34 -6 c 0
 20 -6 17 -2 17 15 c 0xdc
205 335 m 0
 205 327 211 326 233 326 c 0
 342 326 455 371 455 490 c 0
 455 587 399 640 291 640 c 0xdc
 281 640 254 639 249 637 c 1
 244 607 216 419 207 354 c 0
 206 345 205 339 205 335 c 0
EndSplineSet
Position2: "'cpsp' Capital Spacing in Latin lookup 0 subtable" dx=4 dy=0 dh=8 dv=0
EndChar

StartChar: Q
Encoding: 81 81 50
Width: 717
GlyphClass: 2
Flags: MW
HStem: -201 47<577 591> -114 51<92.5 148.5> 643 35<331 447>
VStem: 32 92<195 390.5 195 395.5> 592 93<283.5 460 280.5 476>
LayerCount: 2
Back
Fore
SplineSet
13 -107 m 0
 13 -71 68 -63 117 -63 c 0
 143 -63 169 -68 188 -68 c 0
 198 -68 205 -66 210 -64 c 0
 221 -59 275 -33 312 -14 c 0
 320 -10 325 -9 312 -7 c 0
 245 2 32 42 32 305 c 0
 32 486 189 678 398 678 c 0
 574 678 685 545 685 375 c 0
 685 186 569 60 439 13 c 0
 404 0 396 2 358 -17 c 0
 329 -31 295 -48 267 -63 c 0
 242 -76 245 -75 272 -82 c 0
 331 -98 529 -154 625 -154 c 0
 693 -154 718 -143 725 -143 c 0
 728 -143 731 -149 731 -157 c 0
 731 -163 622 -201 560 -201 c 0
 368 -201 162 -114 135 -114 c 0
 132 -114 114 -117 99 -123 c 0
 83 -129 64 -136 49 -136 c 0
 29 -136 13 -126 13 -107 c 0
124 290 m 0
 124 100 248 20 368 20 c 0
 415 20 592 167 592 400 c 0
 592 552 509 643 385 643 c 0
 277 643 124 491 124 290 c 0
EndSplineSet
Position2: "'cpsp' Capital Spacing in Latin lookup 0 subtable" dx=4 dy=0 dh=8 dv=0
EndChar

StartChar: R
Encoding: 82 82 51
Width: 625
GlyphClass: 2
Flags: MW
HStem: -3 33 309 30<215.5 229 222 229 229 246 222 248> 640 32<327.5 347.5>
VStem: 451 84<145 188 128 201> 459 91<453 544.5>
LayerCount: 2
Back
Fore
SplineSet
17 13 m 0xf0
 17 26 21 30 38 30 c 2
 76 30 l 1
 100 170 147 498 158 610 c 0
 159 618 159 625 159 633 c 1
 94 633 l 2
 82 633 76 634 76 651 c 0
 76 665 84 668 92 668 c 0
 99 668 138 665 203 665 c 0
 234 665 310 672 345 672 c 0
 460 672 550 605 550 507 c 0xe8
 550 366 396 333 361 324 c 1
 372 320 393 314 420 303 c 0
 470 283 535 240 535 136 c 0
 535 120 532 66 532 38 c 0
 532 34 533 31 533 30 c 2
 578 30 l 2
 594 30 598 27 598 12 c 0
 598 3 597 -6 590 -6 c 0
 582 -6 485 -3 441 -3 c 0
 431 -3 434 6 435 13 c 0
 443 60 451 120 451 170 c 0
 451 232 396 288 318 304 c 0
 299 308 273 309 248 309 c 2
 219 309 l 2
 212 309 199 308 196 288 c 0
 188 231 169 77 167 36 c 0
 167 31 168 30 172 30 c 2
 225 30 l 2
 237 30 241 27 241 14 c 0
 241 -1 239 -6 227 -6 c 0
 204 -6 167 -3 137 -3 c 0
 107 -3 57 -6 34 -6 c 0
 20 -6 17 -4 17 13 c 0xf0
207 350 m 0
 207 340 212 339 222 339 c 2
 229 339 l 2
 263 339 288 336 299 336 c 0
 362 336 459 408 459 498 c 0
 459 591 404 640 291 640 c 0
 281 640 250 639 244 637 c 1
 208 362 l 2
 207 356 207 354 207 350 c 0
EndSplineSet
Position2: "'cpsp' Capital Spacing in Latin lookup 0 subtable" dx=4 dy=0 dh=8 dv=0
EndChar

StartChar: S
Encoding: 83 83 52
Width: 505
GlyphClass: 2
Flags: MW
HStem: -16 35<222.5 297> 635 37<245.5 324.5>
VStem: 37 43<56 103> 86 76<425 531.5> 392 71<113 213.5> 420 53 437 36
LayerCount: 2
Back
Fore
SplineSet
37 67 m 0xf8
 37 74 59 198 61 203 c 0
 62 205 66 205 70 205 c 0
 75 205 97 202 97 195 c 0
 97 191 80 105 80 101 c 0
 80 85 180 19 265 19 c 0
 339 19 392 70 392 139 c 0xf8
 392 288 86 261 86 473 c 0
 86 590 173 672 294 672 c 0
 358 672 418 627 431 617 c 1
 433 624 435 637 437 646 c 0xf2
 438 649 439 659 452 658 c 0
 457 657 473 658 473 648 c 0
 473 639 451 529 441 478 c 0
 439 467 433 466 428 466 c 0
 414 466 405 470 405 480 c 0
 405 483 420 536 420 550 c 0xf4
 418 558 366 635 283 635 c 0
 208 635 162 583 162 506 c 0
 162 344 463 395 463 175 c 0
 463 51 344 -16 250 -16 c 0
 130 -16 37 45 37 67 c 0xf8
EndSplineSet
Position2: "'cpsp' Capital Spacing in Latin lookup 0 subtable" dx=4 dy=0 dh=8 dv=0
EndChar

StartChar: T
Encoding: 84 84 53
Width: 681
GlyphClass: 2
Flags: MW
HStem: -3 33 630 34<147 527 201 311 412 415 415 521> 630 59<77 174>
VStem: 17 41<540 551> 619 36<542 543 538 549.5> 628 36
LayerCount: 2
Back
Fore
SplineSet
17 546 m 0xd8
 17 550 37 601 60 673 c 0
 65 689 70 689 84 689 c 0xb8
 97 689 98 681 98 674 c 2
 98 670 l 1
 107 666 154 664 201 664 c 2
 527 664 l 2xd8
 587 664 627 667 628 672 c 0
 629 683 631 689 645 689 c 0
 659 689 664 687 664 675 c 0xb4
 664 656 659 622 655 543 c 0
 655 533 647 532 633 532 c 0
 619 532 619 537 619 547 c 0
 619 552 625 616 625 626 c 1
 616 630 571 630 521 630 c 2
 415 630 l 2
 409 630 407 625 405 613 c 0
 390 513 324 45 324 41 c 0
 324 31 326 30 329 30 c 2
 393 30 l 2
 405 30 407 26 407 14 c 0
 407 -1 405 -6 393 -6 c 0
 370 -6 303 -3 273 -3 c 0
 243 -3 176 -6 160 -6 c 0
 146 -6 145 -2 145 15 c 0
 145 29 148 30 164 30 c 2
 219 30 l 1
 234 58 314 612 314 622 c 0
 314 627 314 630 311 630 c 2
 174 630 l 2
 120 630 84 627 82 621 c 2
 58 551 l 2
 53 538 51 532 39 532 c 0
 35 532 17 534 17 546 c 0xd8
EndSplineSet
Position2: "'cpsp' Capital Spacing in Latin lookup 0 subtable" dx=4 dy=0 dh=8 dv=0
EndChar

StartChar: U
Encoding: 85 85 54
Width: 759
GlyphClass: 2
Flags: MW
HStem: -10 53<309.5 312> 631 36<70 76 76 84 69.5 139 260.5 268 531 537 537 545 720 721>
VStem: 73 89<111.5 194.5> 534 41
LayerCount: 2
Back
Fore
SplineSet
57 649 m 0
 57 666 63 667 76 667 c 0
 92 667 140 664 170 664 c 0
 200 664 249 667 272 667 c 0
 286 667 287 663 287 646 c 0
 287 632 284 631 268 631 c 2
 235 631 l 1
 222 605 162 246 162 176 c 0
 162 47 297 43 322 43 c 0
 382 43 451 72 485 94 c 0
 499 104 515 123 523 152 c 0
 533 192 544 252 555 315 c 0
 576 437 595 545 603 631 c 1
 537 631 l 2
 525 631 516 632 516 649 c 0
 516 666 524 667 537 667 c 0
 553 667 613 664 643 664 c 0
 673 664 715 667 725 667 c 0
 739 667 742 663 742 646 c 0
 742 632 737 631 721 631 c 2
 691 631 l 1
 683 593 677 554 670 515 c 0
 641 338 609 140 575 25 c 0
 569 3 562 -2 553 -2 c 0
 540 -2 535 1 534 12 c 0
 529 58 529 76 524 76 c 0
 521 76 503 65 480 52 c 0
 438 29 356 -10 268 -10 c 0
 162 -10 73 49 73 151 c 0
 73 238 139 570 139 629 c 2
 139 631 l 1
 76 631 l 2
 64 631 57 632 57 649 c 0
EndSplineSet
Position2: "'cpsp' Capital Spacing in Latin lookup 0 subtable" dx=4 dy=0 dh=8 dv=0
EndChar

StartChar: V
Encoding: 86 86 55
Width: 666
GlyphClass: 2
Flags: MW
HStem: -20 21G<191 206> 631 36<32 38 38 46 31.5 77 223.5 231 469 475 475 480 626 635>
LayerCount: 2
Back
Fore
SplineSet
17 649 m 0
 17 666 25 667 38 667 c 0
 54 667 100 664 130 664 c 0
 160 664 212 667 235 667 c 0
 249 667 252 663 252 646 c 0
 252 632 247 631 231 631 c 2
 176 631 l 2
 175 631 175 630 175 629 c 0
 175 602 232 197 250 102 c 0
 251 95 252 90 254 90 c 0
 256 90 259 95 263 102 c 0
 293 149 365 276 427 394 c 2
 545 619 l 2
 547 624 549 627 549 629 c 0
 549 631 548 631 542 631 c 2
 475 631 l 2
 463 631 454 632 454 649 c 0
 454 666 461 667 474 667 c 0
 486 667 519 664 573 664 c 0
 588 664 621 667 631 667 c 0
 645 667 649 664 649 646 c 0
 649 632 643 631 627 631 c 0
 606 631 609 631 606 625 c 2
 292 87 l 2
 283 71 264 55 238 15 c 0
 232 6 214 -20 198 -20 c 0
 184 -20 182 -6 175 44 c 0
 154 198 90 603 77 631 c 1
 38 631 l 2
 26 631 17 632 17 649 c 0
EndSplineSet
Position2: "'cpsp' Capital Spacing in Latin lookup 0 subtable" dx=4 dy=0 dh=8 dv=0
EndChar

StartChar: W
Encoding: 87 87 56
Width: 1010
GlyphClass: 2
Flags: MW
HStem: -20 21G<187 202 553 568> 631 36<32 38 38 46 31.5 76 217.5 225 401 407 407 415 598.5 615 814 820 820 825 970 971>
VStem: 76 95<616 631> 466 76
LayerCount: 2
Back
Fore
SplineSet
17 649 m 0
 17 666 25 667 38 667 c 0
 54 667 100 664 130 664 c 0
 160 664 206 667 229 667 c 0
 243 667 246 663 246 646 c 0
 246 632 241 631 225 631 c 2
 172 631 l 2
 171 631 171 630 171 629 c 0
 171 603 220 238 239 121 c 0
 242 103 244 94 246 94 c 0
 248 94 255 106 264 121 c 0
 312 200 411 383 463 480 c 0
 467 487 467 491 466 502 c 0
 462 536 451 625 449 631 c 1
 407 631 l 2
 395 631 386 632 386 649 c 0
 386 666 394 667 407 667 c 0
 423 667 462 664 492 664 c 0
 521 664 578 667 619 667 c 0
 633 667 637 664 637 646 c 0
 637 632 631 631 615 631 c 2
 543 631 l 2
 542 628 542 623 542 615 c 0
 542 606 588 209 604 101 c 0
 606 90 608 83 610 83 c 0
 612 83 616 91 621 100 c 0
 679 202 861 566 887 619 c 0
 889 624 891 627 891 629 c 0
 891 631 890 631 884 631 c 2
 820 631 l 2
 808 631 799 632 799 649 c 0
 799 666 806 667 819 667 c 0
 831 667 861 664 915 664 c 0
 930 664 965 667 975 667 c 0
 989 667 993 664 993 646 c 0
 993 632 987 631 971 631 c 2
 960 631 l 2
 944 631 945 630 936 612 c 0
 872 488 810 363 742 243 c 2
 654 87 l 2
 646 71 626 54 600 14 c 0
 594 5 576 -20 560 -20 c 0
 546 -20 544 -6 537 44 c 0
 525 123 500 290 478 418 c 0
 477 423 477 425 476 425 c 0
 475 425 472 420 469 415 c 2
 286 87 l 2
 277 71 258 54 232 14 c 0
 226 5 210 -20 194 -20 c 0
 180 -20 178 -6 171 44 c 0
 150 198 87 601 76 631 c 1
 38 631 l 2
 26 631 17 632 17 649 c 0
EndSplineSet
Position2: "'cpsp' Capital Spacing in Latin lookup 0 subtable" dx=4 dy=0 dh=8 dv=0
EndChar

StartChar: X
Encoding: 88 88 57
Width: 661
GlyphClass: 2
Flags: MW
HStem: -6 36<36 41.5 178 180 180 188 396 403.5 600 608 608 614> 631 36<109 115 115 123 108.5 158 300.5 308 477 485 485 492.5 617 625>
LayerCount: 2
Back
Fore
SplineSet
17 12 m 0
 17 29 24 30 36 30 c 2
 62 30 l 1
 76 36 193 198 299 327 c 0
 306 335 306 336 302 345 c 2
 177 599 l 2
 167 620 160 630 158 631 c 2
 115 631 l 2
 103 631 94 632 94 649 c 0
 94 666 102 667 115 667 c 0
 131 667 180 664 210 664 c 0
 240 664 289 667 312 667 c 0
 326 667 329 663 329 646 c 0
 329 632 324 631 308 631 c 2
 258 631 l 2
 258 629 260 626 262 620 c 0
 266 606 318 485 357 406 c 0
 361 398 363 393 365 393 c 0
 366 393 370 398 376 406 c 0
 423 472 531 621 531 630 c 2
 531 631 l 1
 485 631 l 2
 469 631 464 632 464 646 c 0
 464 663 467 667 481 667 c 0
 504 667 519 664 549 664 c 0
 579 664 609 667 625 667 c 0
 638 667 644 665 644 649 c 0
 644 632 637 631 625 631 c 2
 597 631 l 1
 579 617 384 365 384 365 c 2
 380 360 380 359 384 352 c 0
 424 280 546 42 561 30 c 1
 608 30 l 2
 620 30 629 29 629 12 c 0
 629 -5 621 -6 608 -6 c 0
 592 -6 538 -3 508 -3 c 0
 478 -3 415 -6 392 -6 c 0
 378 -6 375 -2 375 15 c 0
 375 29 380 30 396 30 c 2
 443 30 l 2
 449 30 452 31 453 31 c 1
 453 32 451 35 449 41 c 0
 426 97 360 228 326 299 c 0
 324 303 323 305 322 305 c 0
 321 305 318 302 314 297 c 0
 281 255 130 49 129 31 c 0
 131 30 133 30 139 30 c 2
 180 30 l 2
 196 30 201 29 201 15 c 0
 201 -2 198 -6 184 -6 c 0
 172 -6 129 -3 99 -3 c 0
 69 -3 47 -6 36 -6 c 0
 23 -6 17 -4 17 12 c 0
EndSplineSet
Position2: "'cpsp' Capital Spacing in Latin lookup 0 subtable" dx=4 dy=0 dh=8 dv=0
EndChar

StartChar: Y
Encoding: 89 89 58
Width: 613
GlyphClass: 2
Flags: MW
HStem: -3 33 636 36<32 38 38 46 31.5 83 216.5 224 421 429 429 436.5 572 580>
LayerCount: 2
Back
Fore
SplineSet
17 654 m 0
 17 671 25 672 38 672 c 0
 54 672 109 669 139 669 c 0
 169 669 205 672 228 672 c 0
 242 672 244 668 244 651 c 0
 244 637 240 636 224 636 c 2
 184 636 l 2
 184 634 186 630 187 625 c 0
 203 572 262 429 290 360 c 0
 296 346 299 352 308 366 c 0
 355 437 479 615 479 636 c 1
 429 636 l 2
 413 636 408 637 408 651 c 0
 408 668 411 672 425 672 c 0
 448 672 473 669 503 669 c 0
 533 669 564 672 580 672 c 0
 593 672 596 670 596 654 c 0
 596 637 592 636 580 636 c 2
 542 636 l 1
 527 621 376 415 321 331 c 0
 317 324 315 318 313 309 c 2
 279 104 l 2
 273 67 269 42 269 33 c 0
 269 31 269 30 270 30 c 2
 334 30 l 2
 346 30 348 26 348 14 c 0
 348 -1 346 -6 334 -6 c 0
 311 -6 259 -3 229 -3 c 0
 199 -3 156 -6 133 -6 c 0
 119 -6 118 0 118 13 c 0
 118 26 120 30 137 30 c 2
 181 30 l 1
 186 36 194 89 223 261 c 0
 228 288 228 297 228 301 c 0
 228 305 94 612 83 636 c 1
 38 636 l 2
 26 636 17 637 17 654 c 0
EndSplineSet
Position2: "'cpsp' Capital Spacing in Latin lookup 0 subtable" dx=4 dy=0 dh=8 dv=0
EndChar

StartChar: Z
Encoding: 90 90 59
Width: 599
GlyphClass: 2
Flags: MW
HStem: -3 38 626 38<173.5 552 204 450>
VStem: 90 40
LayerCount: 2
Back
Fore
SplineSet
32 15 m 0
 32 29 399 533 455 616 c 0
 459 622 463 626 450 626 c 2
 185 626 l 2
 162 626 145 624 144 618 c 0
 139 595 131 547 130 543 c 0
 128 535 127 531 119 530 c 2
 114 530 l 2
 106 530 90 531 90 540 c 0
 90 548 108 621 114 680 c 0
 114 689 121 689 131 689 c 0
 138 689 150 688 150 681 c 2
 150 672 l 2
 150 668 155 664 204 664 c 2
 552 664 l 2
 565 664 572 661 572 646 c 0
 572 639 482 510 384 369 c 0
 279 217 164 54 161 42 c 0
 161 40 163 35 169 35 c 2
 476 38 l 2
 483 38 488 39 492 51 c 0
 497 65 503 91 515 142 c 0
 517 149 523 150 531 150 c 0
 547 150 554 146 554 137 c 0
 554 130 528 37 521 7 c 0
 518 -4 506 -6 496 -6 c 0
 384 -6 147 -3 43 -3 c 0
 34 -3 32 1 32 15 c 0
EndSplineSet
Position2: "'cpsp' Capital Spacing in Latin lookup 0 subtable" dx=4 dy=0 dh=8 dv=0
EndChar

StartChar: bracketleft
Encoding: 91 91 60
Width: 296
GlyphClass: 2
Flags: MW
HStem: -144 42<138 245 138 245> 651 42<133 138 138 245>
VStem: 77 51<-97.5 -93 -93 642>
LayerCount: 2
Back
Fore
SplineSet
77 -129 m 2
 77 678 l 2
 77 689 79 693 92 693 c 2
 245 693 l 2
 257 693 259 690 259 681 c 2
 259 667 l 2
 259 653 257 651 245 651 c 2
 138 651 l 2
 128 651 128 651 128 642 c 2
 128 -93 l 2
 128 -102 128 -102 138 -102 c 2
 245 -102 l 2
 257 -102 259 -104 259 -118 c 2
 259 -130 l 2
 259 -139 258 -144 245 -144 c 2
 93 -144 l 2
 80 -144 77 -144 77 -129 c 2
EndSplineSet
Substitution2: "'case' Case-Sensitive Forms in Latin lookup 14 subtable" bracketleft.u
Substitution2: "'subs' Subscript in Latin lookup 10 subtable" bracketleft.sub
Substitution2: "'sups' Superscript in Latin lookup 9 subtable" bracketleft.sup
Substitution2: "'dnom' Denominators in Latin lookup 6 subtable" bracketleft.denom
Substitution2: "'numr' Numerators in Latin lookup 5 subtable" bracketleft.numer
AlternateSubs2: "'aalt' Access All Alternates in Latin lookup 1 subtable" bracketleft.u bracketleft.sub bracketleft.sup bracketleft.denom bracketleft.numer
AlternateSubs2: "'aalt' Access All Alternates lookup 0 subtable" bracketleft.u bracketleft.sub bracketleft.sup bracketleft.denom bracketleft.numer
EndChar

StartChar: backslash
Encoding: 92 92 61
Width: 406
GlyphClass: 2
Flags: MW
VStem: 6 57<688 699.5> 335 66<-230 -203>
LayerCount: 2
Back
Fore
SplineSet
6 696 m 0
 6 703 12 707 31 707 c 0
 58 707 58 704 63 688 c 2
 380 -162 l 2
 389 -185 401 -220 401 -224 c 0
 401 -236 383 -236 372 -236 c 0
 345 -236 346 -234 335 -203 c 2
 21 648 l 2
 15 663 6 691 6 696 c 0
EndSplineSet
EndChar

StartChar: bracketright
Encoding: 93 93 62
Width: 296
GlyphClass: 2
Flags: MW
HStem: -144 42<45 158 51 158 158 163 51 206> 651 42<45 203 51 158>
VStem: 168 51<-93 642 642 646.5>
LayerCount: 2
Back
Fore
SplineSet
37 -118 m 2
 37 -104 39 -102 51 -102 c 2
 158 -102 l 2
 168 -102 168 -102 168 -93 c 2
 168 642 l 2
 168 651 168 651 158 651 c 2
 51 651 l 2
 39 651 37 653 37 667 c 2
 37 679 l 2
 37 688 38 693 51 693 c 2
 203 693 l 2
 216 693 219 692 219 679 c 2
 219 -128 l 2
 219 -139 219 -144 206 -144 c 2
 51 -144 l 2
 39 -144 37 -141 37 -132 c 2
 37 -118 l 2
EndSplineSet
Substitution2: "'case' Case-Sensitive Forms in Latin lookup 14 subtable" bracketright.u
Substitution2: "'subs' Subscript in Latin lookup 10 subtable" bracketright.sub
Substitution2: "'sups' Superscript in Latin lookup 9 subtable" bracketright.sup
Substitution2: "'dnom' Denominators in Latin lookup 6 subtable" bracketright.denom
Substitution2: "'numr' Numerators in Latin lookup 5 subtable" bracketright.numer
AlternateSubs2: "'aalt' Access All Alternates in Latin lookup 1 subtable" bracketright.u bracketright.sub bracketright.sup bracketright.denom bracketright.numer
AlternateSubs2: "'aalt' Access All Alternates lookup 0 subtable" bracketright.u bracketright.sub bracketright.sup bracketright.denom bracketright.numer
EndChar

StartChar: asciicircum
Encoding: 94 94 63
Width: 402
GlyphClass: 2
Flags: MW
HStem: 305 328<69 195 195 335>
VStem: 47 312<309 309>
LayerCount: 2
Back
Fore
SplineSet
47 309 m 1
 195 633 l 1
 196 634 l 2
 199 635 201 635 203 635 c 0
 205 635 207 635 210 634 c 2
 211 633 l 1
 359 309 l 1
 349 306 341 305 329 305 c 0
 319 305 313 306 302 308 c 2
 301 308 l 1
 201 535 l 1
 105 308 l 1
 103 308 l 2
 91 306 89 305 75 305 c 0
 63 305 56 306 47 309 c 1
EndSplineSet
EndChar

StartChar: underscore
Encoding: 95 95 64
Width: 410
GlyphClass: 2
Flags: MW
HStem: -73 51<29.5 374 39 374 39 374>
LayerCount: 2
Back
Fore
SplineSet
22 -41 m 2
 22 -27 26 -22 39 -22 c 2
 374 -22 l 2
 387 -22 388 -29 388 -36 c 2
 388 -50 l 2
 388 -57 388 -73 374 -73 c 2
 36 -73 l 2
 23 -73 22 -67 22 -53 c 2
 22 -41 l 2
EndSplineSet
EndChar

StartChar: grave
Encoding: 96 96 65
Width: 400
GlyphClass: 2
Flags: MW
HStem: 446 163<149.5 196 149.5 211>
VStem: 125 93
LayerCount: 2
Back
Fore
SplineSet
125 575 m 0
 125 595 137 609 162 609 c 0
 177 609 188 599 191 583 c 2
 217 457 l 2
 217 456 218 453 218 451 c 0
 218 447 214 446 211 446 c 2
 196 446 l 2
 191 446 188 450 186 454 c 2
 129 561 l 2
 126 566 125 570 125 575 c 0
EndSplineSet
EndChar

StartChar: a
Encoding: 97 97 66
Width: 433
GlyphClass: 2
Flags: MW
HStem: -14 60 344 46<192.5 242>
VStem: 22 73<84.5 117> 251 71<4 84.5> 340 63
LayerCount: 2
Back
Fore
SplineSet
22 59 m 0
 22 175 99 390 252 390 c 0
 262 390 294 379 308 359 c 0
 316 348 324 333 327 333 c 0
 328 333 337 362 340 374 c 0
 343 386 378 387 387 387 c 0
 395 387 403 386 403 379 c 0
 403 363 322 106 322 63 c 0
 322 53 326 46 333 46 c 0
 345 46 390 102 397 102 c 0
 403 102 411 94 411 85 c 0
 411 78 326 -14 281 -14 c 0
 264 -14 251 -5 251 13 c 0
 251 45 284 152 299 200 c 1
 278 165 237 101 188 50 c 0
 153 14 129 -13 90 -13 c 0
 45 -13 22 20 22 59 c 0
95 96 m 0
 95 73 96 46 120 46 c 0
 161 46 246 155 296 237 c 0
 307 255 311 285 311 289 c 0
 311 324 257 344 227 344 c 0
 158 344 95 177 95 96 c 0
EndSplineSet
Substitution2: "'subs' Subscript in Latin lookup 10 subtable" a.sub
Substitution2: "'sups' Superscript in Latin lookup 9 subtable" a.sup
Substitution2: "'dnom' Denominators in Latin lookup 6 subtable" a.denom
Substitution2: "'numr' Numerators in Latin lookup 5 subtable" a.numer
AlternateSubs2: "'aalt' Access All Alternates in Latin lookup 1 subtable" a.sub a.sup a.denom a.numer
AlternateSubs2: "'aalt' Access All Alternates lookup 0 subtable" a.sub a.sup a.denom a.numer
EndChar

StartChar: b
Encoding: 98 98 67
Width: 453
GlyphClass: 2
Flags: MW
HStem: -11 34<157 213> 1 21G<30.5 40> 338 53<317 332> 665 20G<199.5 208.5>
VStem: 22 93<9.5 95> 130 89<606 677> 356 75<247 294.5>
LayerCount: 2
Back
Fore
SplineSet
22 12 m 0x7e
 22 22 34 35 36 37 c 0
 42 45 41 46 43 55 c 0
 85 279 130 589 130 623 c 0
 130 626 129 629 126 629 c 0
 120 629 48 606 40 606 c 0
 34 606 32 618 32 636 c 0
 32 640 33 645 39 647 c 0
 100 662 195 685 204 685 c 0
 213 685 219 682 219 672 c 0
 219 663 186 451 179 413 c 0
 169 357 142 225 133 179 c 1
 150 206 185 262 212 298 c 0
 256 357 284 391 350 391 c 0
 383 391 403 380 416 367 c 0
 429 354 431 339 431 323 c 0
 431 116 256 -11 170 -11 c 0xbe
 123 -11 88 17 82 17 c 0
 81 17 71 13 63 9 c 0
 58 7 45 1 35 1 c 0
 26 1 22 7 22 12 c 0x7e
115 80 m 0
 115 51 134 23 180 23 c 0
 266 23 356 212 356 282 c 0
 356 307 347 338 317 338 c 0
 281 338 256 308 236 280 c 0
 169 187 115 110 115 80 c 0
EndSplineSet
Substitution2: "'subs' Subscript in Latin lookup 10 subtable" b.sub
Substitution2: "'sups' Superscript in Latin lookup 9 subtable" b.sup
Substitution2: "'dnom' Denominators in Latin lookup 6 subtable" b.denom
Substitution2: "'numr' Numerators in Latin lookup 5 subtable" b.numer
AlternateSubs2: "'aalt' Access All Alternates in Latin lookup 1 subtable" b.sub b.sup b.denom b.numer
AlternateSubs2: "'aalt' Access All Alternates lookup 0 subtable" b.sub b.sup b.denom b.numer
EndChar

StartChar: c
Encoding: 99 99 68
Width: 402
GlyphClass: 2
Flags: MW
HStem: -12 55<145 212> 361 33<224.5 259>
VStem: 22 71<131 167.5 131 210.5> 287 70<312 316.5 290 327>
LayerCount: 2
Back
Fore
SplineSet
22 128 m 0
 22 293 149 394 246 394 c 0
 283 394 314 384 334 362 c 0
 347 348 357 329 357 304 c 0
 357 276 339 252 311 252 c 0
 292 252 286 273 286 292 c 0
 286 300 287 308 287 316 c 0
 287 338 275 361 243 361 c 0
 206 361 166 334 140 295 c 0
 110 251 93 191 93 144 c 0
 93 118 94 43 196 43 c 0
 282 43 352 121 358 121 c 0
 362 121 373 110 373 104 c 0
 373 94 262 -12 162 -12 c 0
 53 -12 22 62 22 128 c 0
EndSplineSet
Substitution2: "'subs' Subscript in Latin lookup 10 subtable" c.sub
Substitution2: "'sups' Superscript in Latin lookup 9 subtable" c.sup
Substitution2: "'dnom' Denominators in Latin lookup 6 subtable" c.denom
Substitution2: "'numr' Numerators in Latin lookup 5 subtable" c.numer
AlternateSubs2: "'aalt' Access All Alternates in Latin lookup 1 subtable" c.sub c.sup c.denom c.numer
AlternateSubs2: "'aalt' Access All Alternates lookup 0 subtable" c.sub c.sup c.denom c.numer
EndChar

StartChar: d
Encoding: 100 100 69
Width: 473
GlyphClass: 2
Flags: MW
HStem: -10 58<305.5 383.5> 354 28<197.5 262> 662 20G<442.5 449.5>
VStem: 22 72<84 116.5> 284 76<16.5 85.5>
LayerCount: 2
Back
Fore
SplineSet
22 74 m 0
 22 159 96 382 240 382 c 0
 289 382 314 365 323 361 c 0
 334 356 338 354 341 367 c 0
 354 437 377 608 378 613 c 0
 382 630 371 627 369 626 c 0
 346 620 293 605 288 605 c 0
 283 605 281 609 281 616 c 0
 281 620 281 624 282 629 c 0
 283 641 285 642 292 644 c 0
 382 664 439 682 446 682 c 0
 453 682 460 678 460 664 c 0
 460 648 360 111 360 60 c 0
 360 49 366 48 370 48 c 0
 397 48 458 122 462 122 c 0
 467 122 476 114 476 110 c 0
 476 104 397 -10 314 -10 c 0
 297 -10 284 5 284 28 c 0
 284 61 309 169 320 216 c 1
 304 189 276 142 241 96 c 0
 202 44 165 -7 102 -7 c 0
 86 -7 22 -3 22 74 c 0
94 102 m 0
 94 66 105 49 137 49 c 0
 171 49 227 120 273 188 c 0
 295 220 326 268 326 304 c 0
 326 318 284 354 240 354 c 0
 155 354 94 176 94 102 c 0
EndSplineSet
Substitution2: "'subs' Subscript in Latin lookup 10 subtable" d.sub
Substitution2: "'sups' Superscript in Latin lookup 9 subtable" d.sup
Substitution2: "'dnom' Denominators in Latin lookup 6 subtable" d.denom
Substitution2: "'numr' Numerators in Latin lookup 5 subtable" d.numer
AlternateSubs2: "'aalt' Access All Alternates in Latin lookup 1 subtable" d.sub d.sup d.denom d.numer
AlternateSubs2: "'aalt' Access All Alternates lookup 0 subtable" d.sub d.sup d.denom d.numer
EndChar

StartChar: e
Encoding: 101 101 70
Width: 390
GlyphClass: 2
Flags: MW
HStem: -8 46<159.5 211> 167 29<112.5 118> 364 30<214 262>
VStem: 22 72<92 135.5 92 181> 295 71<293.5 337.5>
LayerCount: 2
Back
Fore
SplineSet
22 105 m 0
 22 257 136 394 270 394 c 0
 312 394 366 381 366 325 c 0
 366 262 305 215 241 191 c 0
 192 173 137 167 99 167 c 0
 97 167 94 147 94 124 c 0
 94 60 132 38 187 38 c 0
 280 38 345 125 357 125 c 0
 366 125 373 114 373 108 c 0
 373 100 271 -8 151 -8 c 0
 82 -8 22 26 22 105 c 0
109 200 m 0
 109 198 109 196 116 196 c 0
 209 196 295 245 295 326 c 0
 295 349 276 364 248 364 c 0
 180 364 143 297 123 244 c 0
 117 229 109 202 109 200 c 0
EndSplineSet
Substitution2: "'subs' Subscript in Latin lookup 10 subtable" e.sub
Substitution2: "'sups' Superscript in Latin lookup 9 subtable" e.sup
Substitution2: "'dnom' Denominators in Latin lookup 6 subtable" e.denom
Substitution2: "'numr' Numerators in Latin lookup 5 subtable" e.numer
AlternateSubs2: "'aalt' Access All Alternates in Latin lookup 1 subtable" e.sub e.sup e.denom e.numer
AlternateSubs2: "'aalt' Access All Alternates lookup 0 subtable" e.sub e.sup e.denom e.numer
EndChar

StartChar: f
Encoding: 102 102 71
Width: 284
GlyphClass: 2
Flags: MW
HStem: -279 59<-73.5 26> 344 31<34.5 115 40 108 197 279> 638 46<261.5 377.5>
LayerCount: 2
Back
Fore
SplineSet
-128 -240 m 0
 -128 -220 -97 -196 -76 -196 c 0
 -48 -196 -28 -220 5 -220 c 0
 47 -220 58 -106 66 -54 c 0
 89 90 119 330 119 335 c 0
 119 344 113 344 108 344 c 2
 37 344 l 2
 32 344 32 346 32 353 c 0
 32 355 34 375 40 375 c 2
 115 375 l 2
 120 375 123 376 124 384 c 0
 126 406 137 489 166 542 c 0
 178 563 208 622 268 656 c 0
 292 670 328 684 361 684 c 0
 394 684 437 663 437 645 c 0
 437 624 401 601 380 601 c 0
 351 601 331 638 299 638 c 0
 224 638 199 431 192 378 c 0
 192 377 192 375 197 375 c 2
 284 375 l 2
 286 375 287 374 287 372 c 0
 287 364 282 344 279 344 c 2
 197 344 l 2
 194 344 189 343 188 336 c 0
 181 289 150 59 131 -54 c 0
 128 -73 102 -186 36 -236 c 0
 14 -252 -18 -279 -57 -279 c 0
 -90 -279 -128 -257 -128 -240 c 0
EndSplineSet
Substitution2: "'subs' Subscript in Latin lookup 10 subtable" f.sub
Substitution2: "'sups' Superscript in Latin lookup 9 subtable" f.sup
Substitution2: "'dnom' Denominators in Latin lookup 6 subtable" f.denom
Substitution2: "'numr' Numerators in Latin lookup 5 subtable" f.numer
AlternateSubs2: "'aalt' Access All Alternates in Latin lookup 1 subtable" f.sub f.sup f.denom f.numer
AlternateSubs2: "'aalt' Access All Alternates lookup 0 subtable" f.sub f.sup f.denom f.numer
EndChar

StartChar: g
Encoding: 103 103 72
Width: 426
GlyphClass: 2
Flags: MW
HStem: -254 35<176.5 229.5> 373 29<201 258.5>
VStem: -9 48<-179.5 -130.5 -179.5 -126> 51 56<-6 47.5> 57 69<186.5 257 184 278> 311 68<243.5 273.5 243.5 301.5> 341 67<-160.5 -111> 361 54
LayerCount: 2
Back
Fore
SplineSet
-9 -157 m 0xf2
 -9 -95 57 -57 84 -45 c 0
 92 -42 90 -39 86 -37 c 0
 69 -29 51 -15 51 3 c 0xf2
 51 13 83 67 98 73 c 2
 152 93 l 2
 160 96 157 96 150 98 c 0
 118 110 57 143 57 230 c 0
 57 326 137 402 237 402 c 0
 289 402 320 374 332 362 c 0
 334 360 337 359 339 363 c 0
 346 376 356 403 361 412 c 0
 365 420 372 423 385 423 c 0
 395 423 415 420 415 409 c 0xe9
 415 381 371 326 369 320 c 0
 369 317 370 313 372 308 c 0
 377 295 379 280 379 267 c 0xe4
 379 220 357 173 325 144 c 0
 287 109 254 99 198 84 c 0
 155 72 107 55 107 40 c 0
 107 15 194 5 274 -8 c 0
 347 -19 408 -37 408 -106 c 0
 408 -215 294 -254 165 -254 c 0
 87 -254 -9 -236 -9 -157 c 0xf2
39 -151 m 0
 39 -208 149 -219 204 -219 c 0
 282 -219 341 -192 341 -133 c 0
 341 -89 296 -77 239 -67 c 0
 193 -59 138 -50 133 -50 c 0
 123 -50 113 -56 102 -61 c 0
 67 -79 39 -110 39 -151 c 0
126 229 m 0xec
 126 139 175 118 197 118 c 0
 243 118 311 184 311 279 c 0
 311 324 281 373 236 373 c 0
 166 373 126 285 126 229 c 0xec
EndSplineSet
Substitution2: "'subs' Subscript in Latin lookup 10 subtable" g.sub
Substitution2: "'sups' Superscript in Latin lookup 9 subtable" g.sup
Substitution2: "'dnom' Denominators in Latin lookup 6 subtable" g.denom
Substitution2: "'numr' Numerators in Latin lookup 5 subtable" g.numer
AlternateSubs2: "'aalt' Access All Alternates in Latin lookup 1 subtable" g.sub g.sup g.denom g.numer
AlternateSubs2: "'aalt' Access All Alternates lookup 0 subtable" g.sub g.sup g.denom g.numer
EndChar

StartChar: h
Encoding: 104 104 73
Width: 468
GlyphClass: 2
Flags: MW
HStem: -3 51<296 368> 343 43<313 316> 634 44
VStem: 22 71<6 6 6 12>
LayerCount: 2
Back
Fore
SplineSet
22 6 m 0
 22 18 86 270 120 619 c 0
 121 627 119 634 116 634 c 0
 98 634 38 608 32 608 c 0
 27 608 26 616 26 621 c 0
 26 629 28 641 35 644 c 0
 75 658 166 678 191 678 c 0
 200 678 200 669 200 660 c 0
 195 568 141 290 112 148 c 1
 130 185 168 258 217 317 c 0
 246 352 283 386 343 386 c 0
 376 386 405 371 405 335 c 0
 405 269 338 94 338 67 c 0
 338 57 344 48 356 48 c 0
 380 48 446 135 451 135 c 0
 456 135 466 127 466 122 c 0
 466 114 386 -3 308 -3 c 0
 284 -3 264 13 264 38 c 0
 264 73 337 256 337 307 c 0
 337 328 326 343 306 343 c 0
 260 343 209 265 168 197 c 0
 146 160 122 123 114 90 c 2
 93 6 l 2
 90 -4 34 -5 33 -5 c 0
 25 -5 22 0 22 6 c 0
EndSplineSet
Substitution2: "'subs' Subscript in Latin lookup 10 subtable" h.sub
Substitution2: "'sups' Superscript in Latin lookup 9 subtable" h.sup
Substitution2: "'dnom' Denominators in Latin lookup 6 subtable" h.denom
Substitution2: "'numr' Numerators in Latin lookup 5 subtable" h.numer
AlternateSubs2: "'aalt' Access All Alternates in Latin lookup 1 subtable" h.sub h.sup h.denom h.numer
AlternateSubs2: "'aalt' Access All Alternates lookup 0 subtable" h.sub h.sup h.denom h.numer
EndChar

StartChar: i
Encoding: 105 105 74
Width: 270
GlyphClass: 2
Flags: MW
HStem: -9 67<79 152.5> 325 61<107 181.5> 498 100<156.5 184.5 155 185>
VStem: 125 91<538 558 533.5 562.5>
LayerCount: 2
Back
Fore
SplineSet
22 282 m 0
 22 292 138 386 176 386 c 0
 187 386 199 380 199 361 c 0
 199 313 134 102 134 75 c 0
 134 64 134 58 144 58 c 0
 161 58 216 122 223 122 c 0
 229 122 238 112 238 107 c 0
 238 90 117 -9 84 -9 c 0
 74 -9 57 -6 57 12 c 0
 57 64 128 250 128 310 c 0
 128 320 126 325 119 325 c 0
 95 325 46 266 37 266 c 0
 30 266 22 275 22 282 c 0
125 549 m 0
 125 576 141 598 169 598 c 0
 200 598 216 569 216 547 c 0
 216 520 198 498 172 498 c 0
 141 498 125 527 125 549 c 0
EndSplineSet
Substitution2: "'subs' Subscript in Latin lookup 10 subtable" i.sub
Substitution2: "'sups' Superscript in Latin lookup 9 subtable" i.sup
Substitution2: "'dnom' Denominators in Latin lookup 6 subtable" i.denom
Substitution2: "'numr' Numerators in Latin lookup 5 subtable" i.numer
Substitution2: "'locl' Localized Forms in Latin lookup 4 subtable" i.TRK
AlternateSubs2: "'aalt' Access All Alternates in Latin lookup 1 subtable" i.sub i.sup i.denom i.numer i.TRK
AlternateSubs2: "'aalt' Access All Alternates lookup 0 subtable" i.sub i.sup i.denom i.numer
EndChar

StartChar: j
Encoding: 106 106 75
Width: 297
GlyphClass: 2
Flags: MW
HStem: -258 51<-31.5 53> 325 61<134.5 208.5> 528 100<185.5 213.5 184 214>
VStem: 154 91<568 588 563.5 592.5> 155 72<297 368.5>
LayerCount: 2
Back
Fore
SplineSet
-72 -221 m 0xe8
 -72 -199 -56 -182 -34 -182 c 0
 4 -182 9 -207 41 -207 c 0
 65 -207 76 -159 88 -101 c 0
 114 27 155 284 155 310 c 0
 155 320 153 325 146 325 c 0
 123 325 56 236 47 236 c 0
 43 236 32 243 32 250 c 0
 32 259 146 386 203 386 c 0
 214 386 227 378 227 359 c 0
 227 311 177 27 172 -3 c 0
 163 -63 145 -166 75 -219 c 0
 53 -235 17 -258 -14 -258 c 0
 -49 -258 -72 -239 -72 -221 c 0xe8
154 579 m 0xf0
 154 606 170 628 198 628 c 0
 229 628 245 599 245 577 c 0
 245 550 227 528 201 528 c 0
 170 528 154 557 154 579 c 0xf0
EndSplineSet
Substitution2: "'subs' Subscript in Latin lookup 10 subtable" j.sub
Substitution2: "'sups' Superscript in Latin lookup 9 subtable" j.sup
Substitution2: "'dnom' Denominators in Latin lookup 6 subtable" j.denom
Substitution2: "'numr' Numerators in Latin lookup 5 subtable" j.numer
AlternateSubs2: "'aalt' Access All Alternates in Latin lookup 1 subtable" j.sub j.sup j.denom j.numer
AlternateSubs2: "'aalt' Access All Alternates lookup 0 subtable" j.sub j.sup j.denom j.numer
EndChar

StartChar: k
Encoding: 107 107 76
Width: 450
GlyphClass: 2
Flags: MW
HStem: -5 45<332 401> 186 16 346 38<302.5 308> 629 53
VStem: 22 71 130 87<623 674> 326 74<305 333.5> 420 33<58 67>
LayerCount: 2
Back
Fore
SplineSet
22 -3 m 0
 22 25 104 352 130 623 c 0
 130 626 129 629 124 629 c 0
 116 629 49 609 46 609 c 0
 41 609 40 613 40 618 c 0
 40 631 41 642 49 644 c 2
 121 662 l 2
 171 675 197 682 203 682 c 0
 211 682 217 680 217 668 c 0
 217 648 146 306 124 198 c 1
 138 223 162 265 187 298 c 0
 227 351 267 384 338 384 c 0
 369 384 400 374 400 344 c 0
 400 249 282 197 233 186 c 0
 229 186 221 184 219 184 c 1
 225 181 232 176 240 169 c 0
 265 145 304 103 313 92 c 0
 338 61 355 40 389 40 c 0
 413 40 420 52 420 64 c 0
 420 70 418 77 418 84 c 0
 418 91 421 99 429 99 c 0
 440 99 453 86 453 53 c 0
 453 17 378 -5 339 -5 c 0
 325 -5 311 0 294 16 c 0
 269 39 244 77 217 111 c 0
 192 143 166 169 166 175 c 0
 166 183 182 197 184 199 c 0
 187 202 191 202 196 202 c 0
 204 202 214 203 223 207 c 0
 267 227 326 282 326 328 c 0
 326 339 318 346 298 346 c 0
 275 346 258 334 237 314 c 0
 206 284 175 232 138 176 c 0
 126 157 119 141 114 119 c 0
 108 94 97 46 93 22 c 0
 90 4 89 -3 80 -3 c 0
 78 -3 41 -9 30 -9 c 0
 26 -9 22 -8 22 -3 c 0
EndSplineSet
Substitution2: "'subs' Subscript in Latin lookup 10 subtable" k.sub
Substitution2: "'sups' Superscript in Latin lookup 9 subtable" k.sup
Substitution2: "'dnom' Denominators in Latin lookup 6 subtable" k.denom
Substitution2: "'numr' Numerators in Latin lookup 5 subtable" k.numer
AlternateSubs2: "'aalt' Access All Alternates in Latin lookup 1 subtable" k.sub k.sup k.denom k.numer
AlternateSubs2: "'aalt' Access All Alternates lookup 0 subtable" k.sub k.sup k.denom k.numer
EndChar

StartChar: l
Encoding: 108 108 77
Width: 272
GlyphClass: 2
Flags: MW
HStem: -13 63<75.5 154> 662 20G<216 223>
VStem: 52 78<13.5 74.5> 147 83
LayerCount: 2
Back
Fore
SplineSet
52 28 m 0
 52 47 122 402 147 612 c 0
 149 622 147 628 135 625 c 0
 108 618 66 606 61 606 c 0
 56 606 54 606 54 616 c 0
 54 619 54 624 55 629 c 0
 56 641 60 643 67 645 c 0
 160 666 212 682 220 682 c 0
 226 682 230 680 230 672 c 0
 230 650 130 81 130 68 c 0
 130 51 138 50 141 50 c 0
 167 50 238 134 241 134 c 0
 244 134 260 122 260 118 c 0
 260 110 154 -13 84 -13 c 0
 67 -13 52 -1 52 28 c 0
EndSplineSet
Substitution2: "'subs' Subscript in Latin lookup 10 subtable" l.sub
Substitution2: "'sups' Superscript in Latin lookup 9 subtable" l.sup
Substitution2: "'dnom' Denominators in Latin lookup 6 subtable" l.denom
Substitution2: "'numr' Numerators in Latin lookup 5 subtable" l.numer
Substitution2: "'locl' Localized Forms in Latin lookup 2 subtable" l.CAT
AlternateSubs2: "'aalt' Access All Alternates in Latin lookup 1 subtable" l.sub l.sup l.denom l.numer l.CAT
AlternateSubs2: "'aalt' Access All Alternates lookup 0 subtable" l.sub l.sup l.denom l.numer
EndChar

StartChar: m
Encoding: 109 109 78
Width: 739
GlyphClass: 2
Flags: MW
HStem: -14 21G<91.5 99> -7 59<550.5 627.5> 330 52<335 406>
VStem: 132 74<263 363.5> 301 70 359 71<301.5 307>
LayerCount: 2
Back
Fore
SplineSet
12 255 m 0xb4
 12 268 134 376 185 376 c 0
 196 376 206 373 206 354 c 0
 206 298 188 216 175 140 c 1
 239 281 313 382 393 382 c 0
 419 382 430 355 430 332 c 0
 430 271 399 163 383 112 c 1
 430 202 526 382 623 382 c 0
 669 382 677 364 677 345 c 0
 677 292 604 111 604 73 c 0
 604 65 607 52 619 52 c 0
 636 52 707 135 713 135 c 0
 717 135 728 124 728 120 c 0
 728 111 618 -7 561 -7 c 0x74
 540 -7 523 7 523 25 c 0
 523 67 601 254 601 314 c 0
 601 323 595 333 583 333 c 0
 557 333 505 269 461 201 c 0
 420 138 392 90 371 14 c 0
 368 5 362 1 354 0 c 0
 338 -2 323 -3 312 -3 c 0
 306 -3 301 0 301 7 c 0xb8
 301 32 359 182 359 296 c 0
 359 318 352 330 341 330 c 0
 329 330 313 315 306 306 c 0
 275 269 242 228 199 140 c 0
 181 104 164 43 158 22 c 0
 156 16 154 4 145 0 c 0
 127 -7 103 -14 95 -14 c 0
 88 -14 86 -6 87 0 c 0
 100 54 132 230 132 296 c 0
 132 305 129 310 121 310 c 0
 97 310 36 235 27 235 c 0
 23 235 12 238 12 255 c 0xb4
EndSplineSet
Substitution2: "'subs' Subscript in Latin lookup 10 subtable" m.sub
Substitution2: "'sups' Superscript in Latin lookup 9 subtable" m.sup
Substitution2: "'dnom' Denominators in Latin lookup 6 subtable" m.denom
Substitution2: "'numr' Numerators in Latin lookup 5 subtable" m.numer
AlternateSubs2: "'aalt' Access All Alternates in Latin lookup 1 subtable" m.sub m.sup m.denom m.numer
AlternateSubs2: "'aalt' Access All Alternates lookup 0 subtable" m.sub m.sup m.denom m.numer
EndChar

StartChar: n
Encoding: 110 110 79
Width: 515
GlyphClass: 2
Flags: MW
HStem: -9 21G<76.5 83.5> -2 55<329 412> 341 48<366 372>
VStem: 132 79<283 374> 305 77<66.5 71.5> 385 74<315.5 322>
LayerCount: 2
Back
Fore
SplineSet
12 287 m 0xbc
 12 293 126 389 187 389 c 0
 197 389 211 383 211 365 c 0
 211 309 184 218 163 139 c 1
 248 287 327 389 405 389 c 0
 452 389 459 360 459 342 c 0
 459 289 382 96 382 70 c 0
 382 63 385 53 398 53 c 0
 426 53 486 129 488 129 c 0
 491 129 503 118 503 113 c 0
 503 104 415 -2 340 -2 c 0x7c
 318 -2 305 17 305 42 c 0
 305 101 385 255 385 315 c 0
 385 329 378 341 366 341 c 0
 331 341 239 213 190 134 c 0
 169 101 152 44 146 23 c 0
 144 17 141 -4 128 -5 c 0
 108 -7 87 -9 80 -9 c 0
 73 -9 71 -1 72 5 c 0
 85 59 132 250 132 316 c 0
 132 326 129 331 122 331 c 0
 100 331 34 267 30 267 c 0
 25 267 12 275 12 287 c 0xbc
EndSplineSet
Substitution2: "'subs' Subscript in Latin lookup 10 subtable" n.sub
Substitution2: "'sups' Superscript in Latin lookup 9 subtable" n.sup
Substitution2: "'dnom' Denominators in Latin lookup 6 subtable" n.denom
Substitution2: "'numr' Numerators in Latin lookup 5 subtable" n.numer
AlternateSubs2: "'aalt' Access All Alternates in Latin lookup 1 subtable" n.sub n.sup n.denom n.numer
AlternateSubs2: "'aalt' Access All Alternates lookup 0 subtable" n.sub n.sup n.denom n.numer
EndChar

StartChar: o
Encoding: 111 111 80
Width: 419
GlyphClass: 2
Flags: MW
HStem: -11 30<129.5 214.5 129.5 229> 371 29<206.5 280>
VStem: 22 68<124.5 189.5 124.5 211.5> 328 69<233 269.5 176 295>
LayerCount: 2
Back
Fore
SplineSet
22 138 m 0
 22 285 121 400 256 400 c 0
 364 400 397 301 397 238 c 0
 397 114 293 -11 165 -11 c 0
 69 -11 22 61 22 138 c 0
90 146 m 0
 90 103 92 19 167 19 c 0
 262 19 328 188 328 278 c 0
 328 312 315 371 245 371 c 0
 168 371 90 233 90 146 c 0
EndSplineSet
Substitution2: "'subs' Subscript in Latin lookup 10 subtable" o.sub
Substitution2: "'sups' Superscript in Latin lookup 9 subtable" o.sup
Substitution2: "'dnom' Denominators in Latin lookup 6 subtable" o.denom
Substitution2: "'numr' Numerators in Latin lookup 5 subtable" o.numer
AlternateSubs2: "'aalt' Access All Alternates in Latin lookup 1 subtable" o.sub o.sup o.denom o.numer
AlternateSubs2: "'aalt' Access All Alternates lookup 0 subtable" o.sub o.sup o.denom o.numer
EndChar

StartChar: p
Encoding: 112 112 81
Width: 486
GlyphClass: 2
Flags: MW
HStem: -284 41 -269 38<23.5 34 21.5 78> -10 32<230 278 230 286.5> 339 46<363.5 371>
VStem: 144 77<271.5 376> 396 68<225.5 294.5>
LayerCount: 2
Back
Fore
SplineSet
7 224 m 0x7c
 7 225 105 398 201 398 c 0
 215 398 221 388 221 364 c 0
 221 328 202 209 193 157 c 1
 216 212 237 256 283 327 c 0
 305 362 342 385 385 385 c 0
 451 385 464 342 464 291 c 0
 464 139 337 -10 236 -10 c 0
 217 -10 188 -3 180 -3 c 0
 174 -3 171 -2 170 -8 c 2
 138 -218 l 2
 135 -232 139 -237 149 -238 c 0
 171 -240 188 -242 200 -243 c 0
 217 -245 226 -248 226 -257 c 0
 226 -278 221 -284 213 -284 c 0xbc
 186 -284 127 -269 29 -269 c 0
 18 -269 8 -268 9 -256 c 0
 11 -231 12 -231 31 -231 c 0
 37 -231 43 -232 48 -232 c 0
 57 -232 63 -229 66 -212 c 0
 124 121 144 239 144 304 c 0
 144 314 142 319 135 319 c 0
 104 319 34 207 26 207 c 0
 22 207 7 218 7 224 c 0x7c
184 51 m 0
 184 27 215 22 245 22 c 0
 311 22 396 173 396 278 c 0
 396 311 387 339 355 339 c 0
 305 339 265 242 239 194 c 0
 207 133 184 79 184 51 c 0
EndSplineSet
Substitution2: "'subs' Subscript in Latin lookup 10 subtable" p.sub
Substitution2: "'sups' Superscript in Latin lookup 9 subtable" p.sup
Substitution2: "'dnom' Denominators in Latin lookup 6 subtable" p.denom
Substitution2: "'numr' Numerators in Latin lookup 5 subtable" p.numer
AlternateSubs2: "'aalt' Access All Alternates in Latin lookup 1 subtable" p.sub p.sup p.denom p.numer
AlternateSubs2: "'aalt' Access All Alternates lookup 0 subtable" p.sub p.sup p.denom p.numer
EndChar

StartChar: q
Encoding: 113 113 82
Width: 455
GlyphClass: 2
Flags: MW
HStem: -291 39 -284 40<267.5 329.5> -10 53<125 136> 358 26<231 292.5 194.5 296>
VStem: 22 70<81 120.5> 339 94<304 368.5>
LayerCount: 2
Back
Fore
SplineSet
22 74 m 0xbc
 22 167 115 384 274 384 c 0
 311 384 343 372 361 364 c 0
 370 360 373 358 374 358 c 0
 377 358 382 360 390 365 c 0
 397 369 412 378 422 378 c 0
 428 378 433 372 433 365 c 0
 433 357 420 333 406 303 c 0
 403 296 401 287 399 278 c 0
 364 72 309 -224 309 -236 c 0
 309 -243 312 -244 320 -244 c 0
 339 -244 340 -244 375 -246 c 0
 386 -247 387 -255 387 -262 c 0
 387 -276 387 -287 368 -287 c 0
 363 -287 326 -284 283 -284 c 0x7c
 252 -284 202 -291 196 -291 c 0
 189 -291 179 -290 180 -276 c 0
 181 -257 187 -255 203 -252 c 0
 230 -248 227 -253 233 -228 c 0
 255 -126 258 -136 322 214 c 1
 322 214 278 134 249 96 c 0
 209 44 163 -10 109 -10 c 0
 93 -10 22 -3 22 74 c 0xbc
92 99 m 0
 92 63 114 43 136 43 c 0
 169 43 230 120 276 188 c 0
 298 220 339 290 339 318 c 0
 339 328 318 358 274 358 c 0
 188 358 92 172 92 99 c 0
EndSplineSet
Substitution2: "'subs' Subscript in Latin lookup 10 subtable" q.sub
Substitution2: "'sups' Superscript in Latin lookup 9 subtable" q.sup
Substitution2: "'dnom' Denominators in Latin lookup 6 subtable" q.denom
Substitution2: "'numr' Numerators in Latin lookup 5 subtable" q.numer
AlternateSubs2: "'aalt' Access All Alternates in Latin lookup 1 subtable" q.sub q.sup q.denom q.numer
AlternateSubs2: "'aalt' Access All Alternates lookup 0 subtable" q.sub q.sup q.denom q.numer
EndChar

StartChar: r
Encoding: 114 114 83
Width: 341
GlyphClass: 2
Flags: MW
HStem: -7 21G<72.5 80> 335 61<249.5 295.5>
VStem: 63 68 111 65<265 371>
LayerCount: 2
Back
Fore
SplineSet
21 291 m 0xd0
 21 301 107 389 155 389 c 0
 173 389 176 376 176 366 c 0xd0
 176 347 160 252 151 199 c 1
 166 239 185 295 209 339 c 0
 224 367 250 396 284 396 c 0
 307 396 334 383 334 357 c 0
 334 340 328 317 309 317 c 0
 285 317 273 335 254 335 c 0
 245 335 239 330 232 319 c 0
 214 291 193 242 175 195 c 0
 169 179 167 168 164 157 c 0
 149 95 143 60 131 6 c 0
 129 -4 84 -7 76 -7 c 0
 69 -7 63 -6 63 0 c 0xe0
 63 9 111 237 111 293 c 0
 111 308 110 328 101 328 c 0
 77 328 38 276 32 276 c 0
 30 276 21 284 21 291 c 0xd0
EndSplineSet
Substitution2: "'subs' Subscript in Latin lookup 10 subtable" r.sub
Substitution2: "'sups' Superscript in Latin lookup 9 subtable" r.sup
Substitution2: "'dnom' Denominators in Latin lookup 6 subtable" r.denom
Substitution2: "'numr' Numerators in Latin lookup 5 subtable" r.numer
AlternateSubs2: "'aalt' Access All Alternates in Latin lookup 1 subtable" r.sub r.sup r.denom r.numer
AlternateSubs2: "'aalt' Access All Alternates lookup 0 subtable" r.sub r.sup r.denom r.numer
EndChar

StartChar: s
Encoding: 115 115 84
Width: 336
GlyphClass: 2
Flags: MW
HStem: -8 32<134.5 164.5 134.5 184.5> 377 25<188.5 210.5>
VStem: 70 67<271.5 315.5> 214 68<76.5 123>
LayerCount: 2
Back
Fore
SplineSet
17 61 m 0
 17 79 35 89 44 89 c 0
 67 89 76 77 89 64 c 0
 113 40 123 24 146 24 c 0
 183 24 214 51 214 94 c 0
 214 152 70 197 70 283 c 0
 70 348 132 402 204 402 c 0
 294 402 304 347 304 335 c 0
 304 322 294 315 283 315 c 0
 257 315 242 334 232 352 c 0
 224 366 218 377 203 377 c 0
 174 377 137 364 137 317 c 0
 137 226 282 219 282 107 c 0
 282 46 221 -8 148 -8 c 0
 87 -8 17 27 17 61 c 0
EndSplineSet
Substitution2: "'hist' Historical Forms in Latin lookup 13 subtable" longs
Substitution2: "'subs' Subscript in Latin lookup 10 subtable" s.sub
Substitution2: "'sups' Superscript in Latin lookup 9 subtable" s.sup
Substitution2: "'dnom' Denominators in Latin lookup 6 subtable" s.denom
Substitution2: "'numr' Numerators in Latin lookup 5 subtable" s.numer
AlternateSubs2: "'aalt' Access All Alternates in Latin lookup 1 subtable" longs s.sub s.sup s.denom s.numer
AlternateSubs2: "'aalt' Access All Alternates lookup 0 subtable" longs s.sub s.sup s.denom s.numer
EndChar

StartChar: t
Encoding: 116 116 85
Width: 284
GlyphClass: 2
Flags: MW
HStem: -5 72<76.5 157> 339 36<40 105 44 98 185 257>
VStem: 129 73
LayerCount: 2
Back
Fore
SplineSet
32 346 m 0
 32 349 33 361 33 365 c 0
 33 368 36 375 44 375 c 2
 105 375 l 2
 111 375 111 374 113 381 c 0
 117 403 126 458 129 481 c 0
 131 494 134 499 150 501 c 0
 156 502 162 502 171 502 c 2
 178 502 l 2
 189 502 202 501 202 494 c 0
 202 490 181 400 178 382 c 0
 177 378 177 375 185 375 c 2
 261 375 l 2
 270 375 271 370 270 364 c 0
 268 347 265 339 257 339 c 2
 179 339 l 2
 174 339 172 338 171 331 c 0
 155 245 130 93 130 85 c 0
 130 77 130 67 146 67 c 0
 168 67 253 159 255 159 c 0
 258 159 272 147 272 143 c 0
 272 137 151 -5 89 -5 c 0
 64 -5 51 8 51 32 c 0
 51 50 104 324 104 331 c 0
 104 337 105 339 98 339 c 2
 43 339 l 2
 37 339 32 340 32 346 c 0
EndSplineSet
Substitution2: "'subs' Subscript in Latin lookup 10 subtable" t.sub
Substitution2: "'sups' Superscript in Latin lookup 9 subtable" t.sup
Substitution2: "'dnom' Denominators in Latin lookup 6 subtable" t.denom
Substitution2: "'numr' Numerators in Latin lookup 5 subtable" t.numer
AlternateSubs2: "'aalt' Access All Alternates in Latin lookup 1 subtable" t.sub t.sup t.denom t.numer
AlternateSubs2: "'aalt' Access All Alternates lookup 0 subtable" t.sub t.sup t.denom t.numer
EndChar

StartChar: u
Encoding: 117 117 86
Width: 521
GlyphClass: 2
Flags: MW
HStem: -8 65<129.5 199.5> 341 53<112.5 181.5>
VStem: 329 69<18 99> 385 68<386 386>
LayerCount: 2
Back
Fore
SplineSet
12 256 m 0xe0
 12 259 36 295 65 329 c 0
 89 358 120 394 168 394 c 0
 195 394 226 383 226 355 c 0
 226 324 162 123 162 77 c 0
 162 67 167 57 187 57 c 0
 212 57 240 87 273 134 c 0
 314 193 354 270 373 332 c 0
 376 342 382 368 385 386 c 0
 386 389 387 392 392 393 c 0
 405 396 439 399 444 399 c 0
 449 399 453 396 453 387 c 0xd0
 453 374 398 109 398 89 c 0
 398 79 400 67 414 67 c 0
 437 67 493 158 497 158 c 0
 500 158 510 152 510 149 c 0
 510 140 428 -3 365 -3 c 0
 346 -3 329 9 329 27 c 0
 329 65 363 189 375 260 c 1
 362 233 340 188 315 151 c 0
 267 78 199 -8 139 -8 c 0
 120 -8 81 -4 81 37 c 0
 81 69 142 249 142 315 c 0
 142 326 141 341 125 341 c 0
 100 341 34 242 30 242 c 0
 26 242 12 250 12 256 c 0xe0
EndSplineSet
Substitution2: "'subs' Subscript in Latin lookup 10 subtable" u.sub
Substitution2: "'sups' Superscript in Latin lookup 9 subtable" u.sup
Substitution2: "'dnom' Denominators in Latin lookup 6 subtable" u.denom
Substitution2: "'numr' Numerators in Latin lookup 5 subtable" u.numer
AlternateSubs2: "'aalt' Access All Alternates in Latin lookup 1 subtable" u.sub u.sup u.denom u.numer
AlternateSubs2: "'aalt' Access All Alternates lookup 0 subtable" u.sub u.sup u.denom u.numer
EndChar

StartChar: v
Encoding: 118 118 87
Width: 443
GlyphClass: 2
Flags: MW
HStem: -8 75<193 217> 347 48<105 107.5> 368 36<333 389.5>
VStem: 117 66<92.5 117.5> 137 71<302.5 324> 367 54<309.5 346.5>
LayerCount: 2
Back
Fore
SplineSet
7 299 m 0xcc
 7 313 86 395 124 395 c 0
 136 395 156 391 167 385 c 0
 197 368 208 361 208 337 c 0xcc
 208 268 183 137 183 100 c 0
 183 85 210 67 214 67 c 0
 220 67 228 68 235 77 c 0
 242 85 254 102 266 118 c 0
 309 176 367 254 367 331 c 0
 367 362 358 368 345 368 c 0
 321 368 290 359 286 359 c 0
 281 359 277 367 277 378 c 0
 277 389 351 404 378 404 c 0
 401 404 421 398 421 361 c 0
 421 258 328 147 249 46 c 0
 242 37 233 23 227 13 c 0
 219 0 213 -8 200 -8 c 0
 186 -8 167 6 157 14 c 0
 129 36 117 49 117 97 c 0xb4
 117 138 137 256 137 319 c 0
 137 329 136 334 128 339 c 0
 122 343 109 347 106 347 c 0
 74 347 34 283 27 283 c 0
 19 283 7 292 7 299 c 0xcc
EndSplineSet
Substitution2: "'subs' Subscript in Latin lookup 10 subtable" v.sub
Substitution2: "'sups' Superscript in Latin lookup 9 subtable" v.sup
Substitution2: "'dnom' Denominators in Latin lookup 6 subtable" v.denom
Substitution2: "'numr' Numerators in Latin lookup 5 subtable" v.numer
AlternateSubs2: "'aalt' Access All Alternates in Latin lookup 1 subtable" v.sub v.sup v.denom v.numer
AlternateSubs2: "'aalt' Access All Alternates lookup 0 subtable" v.sub v.sup v.denom v.numer
EndChar

StartChar: w
Encoding: 119 119 88
Width: 681
GlyphClass: 2
Flags: MW
HStem: -4 61<195 220> 341 48<88 140> 359 38<568 634>
VStem: 123 65<87 98 87 106.5> 145 68<288 305.5> 342 65<84.5 90> 369 68<295 344.5> 602 57<329 341>
LayerCount: 2
Back
Fore
SplineSet
7 302 m 0xc9
 7 316 97 389 134 389 c 0
 146 389 173 376 181 370 c 0
 212 350 213 337 213 322 c 0xc9
 213 254 188 101 188 95 c 0
 188 79 210 57 219 57 c 0
 221 57 230 61 239 74 c 0
 264 109 317 189 336 213 c 0
 353 235 369 287 369 303 c 0
 369 314 358 325 350 333 c 0
 335 348 322 352 322 359 c 0
 322 373 348 398 363 398 c 0
 387 398 437 355 437 334 c 0xb3
 437 301 407 132 407 95 c 0
 407 74 430 55 442 55 c 0
 449 55 458 65 470 79 c 0
 502 116 534 155 558 190 c 0
 587 233 601 272 602 329 c 0
 602 353 593 359 584 359 c 0
 552 359 509 347 505 347 c 0
 500 347 496 357 496 368 c 0
 496 373 589 397 622 397 c 0
 646 397 659 383 659 355 c 0
 659 273 578 148 493 62 c 0
 476 46 461 29 445 12 c 0
 436 3 435 1 427 1 c 0
 378 1 342 39 342 81 c 0
 342 99 359 175 368 219 c 1
 335 168 285 92 251 49 c 0
 244 40 232 21 225 12 c 0
 216 0 213 -4 202 -4 c 0
 188 -4 169 11 159 19 c 0
 131 41 123 51 123 86 c 0xb5
 123 127 145 201 145 298 c 0
 145 313 119 341 104 341 c 0
 72 341 29 284 24 284 c 0
 14 284 7 297 7 302 c 0xc9
EndSplineSet
Substitution2: "'subs' Subscript in Latin lookup 10 subtable" w.sub
Substitution2: "'sups' Superscript in Latin lookup 9 subtable" w.sup
Substitution2: "'dnom' Denominators in Latin lookup 6 subtable" w.denom
Substitution2: "'numr' Numerators in Latin lookup 5 subtable" w.numer
AlternateSubs2: "'aalt' Access All Alternates in Latin lookup 1 subtable" w.sub w.sup w.denom w.numer
AlternateSubs2: "'aalt' Access All Alternates lookup 0 subtable" w.sub w.sup w.denom w.numer
EndChar

StartChar: x
Encoding: 120 120 89
Width: 458
GlyphClass: 2
Flags: MW
HStem: -6 52<69 82.5> -6 61<350 357> 345 46<114.5 134.5> 354 45<387 404>
VStem: 12 44<13 75.5> 413 31
LayerCount: 2
Back
Fore
SplineSet
12 23 m 0x8c
 12 47 24 84 38 115 c 0
 41 121 43 122 49 122 c 0
 51 122 66 120 66 111 c 0
 66 105 56 86 56 65 c 0
 56 52 64 46 74 46 c 0
 104 46 186 147 211 181 c 0
 216 188 215 189 212 199 c 0
 187 270 154 345 115 345 c 0
 85 345 46 287 41 287 c 0
 34 287 26 298 26 304 c 0
 26 312 81 391 148 391 c 0xac
 216 391 230 338 264 249 c 0
 266 244 268 247 271 252 c 0
 305 304 354 399 416 399 c 0
 435 399 444 377 444 356 c 0
 444 334 438 313 436 298 c 0
 436 295 431 294 426 294 c 0
 420 294 413 296 413 299 c 0
 413 301 414 316 414 332 c 0
 414 349 408 354 400 354 c 0
 374 354 314 271 281 222 c 0
 277 217 278 212 280 205 c 0
 295 160 335 55 365 55 c 0
 392 55 419 121 425 121 c 0
 429 121 446 116 446 111 c 0
 446 90 383 -6 331 -6 c 0x5c
 276 -6 258 69 229 153 c 0
 228 156 225 156 222 153 c 0
 183 108 116 -6 49 -6 c 0
 30 -6 12 3 12 23 c 0x8c
EndSplineSet
Substitution2: "'subs' Subscript in Latin lookup 10 subtable" x.sub
Substitution2: "'sups' Superscript in Latin lookup 9 subtable" x.sup
Substitution2: "'dnom' Denominators in Latin lookup 6 subtable" x.denom
Substitution2: "'numr' Numerators in Latin lookup 5 subtable" x.numer
AlternateSubs2: "'aalt' Access All Alternates in Latin lookup 1 subtable" x.sub x.sup x.denom x.numer
AlternateSubs2: "'aalt' Access All Alternates lookup 0 subtable" x.sub x.sup x.denom x.numer
EndChar

StartChar: y
Encoding: 121 121 90
Width: 422
GlyphClass: 2
Flags: MW
HStem: -292 86 334 51<100.5 133> 377 20G<367 377.5>
VStem: 171 62 357 53
LayerCount: 2
Back
Fore
SplineSet
-16 -262 m 0xb8
 -16 -220 30 -217 61 -206 c 0
 80 -199 101 -178 112 -159 c 0
 166 -59 171 -23 171 17 c 0
 171 132 161 334 105 334 c 0
 67 334 29 272 25 272 c 0
 23 272 6 278 6 284 c 0
 6 290 66 385 135 385 c 0xd8
 225 385 225 243 233 54 c 1
 267 119 316 200 340 277 c 0
 352 315 354 342 357 377 c 0
 358 389 363 397 371 397 c 0
 384 397 410 388 410 369 c 0
 410 365 409 358 408 352 c 0
 397 280 307 121 260 40 c 0
 254 29 234 -4 231 -9 c 2
 221 -28 l 2
 199 -70 153 -160 120 -218 c 0
 111 -235 97 -246 79 -257 c 0
 54 -272 25 -292 4 -292 c 0
 -10 -292 -16 -273 -16 -262 c 0xb8
EndSplineSet
Substitution2: "'subs' Subscript in Latin lookup 10 subtable" y.sub
Substitution2: "'sups' Superscript in Latin lookup 9 subtable" y.sup
Substitution2: "'dnom' Denominators in Latin lookup 6 subtable" y.denom
Substitution2: "'numr' Numerators in Latin lookup 5 subtable" y.numer
AlternateSubs2: "'aalt' Access All Alternates in Latin lookup 1 subtable" y.sub y.sup y.denom y.numer
AlternateSubs2: "'aalt' Access All Alternates lookup 0 subtable" y.sub y.sup y.denom y.numer
EndChar

StartChar: z
Encoding: 122 122 91
Width: 414
GlyphClass: 2
Flags: MW
HStem: -13 21G<33 44> -5 59<318 336 336 342.5 318 348> 11 57<62.5 120> 315 40<258 331> 347 52<130.5 153> 372 20G<361 379>
VStem: 349 33
LayerCount: 2
Back
Fore
SplineSet
22 2 m 0xa2
 22 22 44 39 54 50 c 2
 289 312 l 2
 290 314 294 317 289 316 c 0
 283 315 282 315 280 315 c 0xb2
 236 315 169 347 137 347 c 0
 102 347 77 298 71 298 c 0
 66 298 54 306 54 310 c 0
 54 315 103 399 158 399 c 0x0a
 204 399 283 355 324 355 c 0
 338 355 348 392 374 392 c 0
 384 392 392 383 392 373 c 0
 392 344 345 333 332 319 c 2
 112 75 l 2
 107 70 110 68 120 68 c 0x36
 206 64 299 54 337 54 c 0
 348 54 349 56 349 69 c 0
 349 70 348 97 348 99 c 0
 348 106 352 106 362 106 c 2
 367 106 l 2
 372 106 374 105 374 100 c 0
 377 66 382 18 382 12 c 0
 382 -4 364 -5 348 -5 c 2
 336 -5 l 2x42
 283 -5 144 11 65 11 c 0
 60 11 52 -13 36 -13 c 0
 30 -13 22 -9 22 2 c 0xa2
EndSplineSet
Substitution2: "'subs' Subscript in Latin lookup 10 subtable" z.sub
Substitution2: "'sups' Superscript in Latin lookup 9 subtable" z.sup
Substitution2: "'dnom' Denominators in Latin lookup 6 subtable" z.denom
Substitution2: "'numr' Numerators in Latin lookup 5 subtable" z.numer
AlternateSubs2: "'aalt' Access All Alternates in Latin lookup 1 subtable" z.sub z.sup z.denom z.numer
AlternateSubs2: "'aalt' Access All Alternates lookup 0 subtable" z.sub z.sup z.denom z.numer
EndChar

StartChar: braceleft
Encoding: 123 123 92
Width: 307
GlyphClass: 2
Flags: MW
HStem: -144 32<227.5 258 227.5 260.5> 660 32<227.5 258>
VStem: 114 58<52 126 416 422 422 496 496 562.5>
LayerCount: 2
Back
Fore
SplineSet
37 274 m 0
 37 310 114 251 114 416 c 2
 114 496 l 2
 114 629 116 692 255 692 c 0
 266 692 270 689 270 676 c 0
 270 661 263 660 253 660 c 0
 202 660 172 647 172 571 c 2
 172 422 l 2
 172 335 169 297 112 278 c 0
 101 274 102 273 112 270 c 0
 169 251 172 213 172 126 c 2
 172 -23 l 2
 172 -99 202 -112 253 -112 c 0
 263 -112 270 -113 270 -128 c 0
 270 -141 266 -144 255 -144 c 0
 116 -144 114 -81 114 52 c 2
 114 132 l 2
 114 297 37 238 37 274 c 0
EndSplineSet
Substitution2: "'case' Case-Sensitive Forms in Latin lookup 14 subtable" braceleft.u
AlternateSubs2: "'aalt' Access All Alternates in Latin lookup 1 subtable" braceleft.u
AlternateSubs2: "'aalt' Access All Alternates lookup 0 subtable" braceleft.u
EndChar

StartChar: bar
Encoding: 124 124 93
Width: 247
GlyphClass: 2
Flags: MW
VStem: 97 53<-187 745>
LayerCount: 2
Back
Fore
SplineSet
97 -187 m 2
 97 746 l 2
 97 763 106 765 118 765 c 2
 125 765 l 2
 144 765 150 764 150 745 c 2
 150 -187 l 2
 150 -201 150 -212 135 -212 c 2
 114 -212 l 2
 98 -212 97 -208 97 -187 c 2
EndSplineSet
EndChar

StartChar: braceright
Encoding: 125 125 94
Width: 307
GlyphClass: 2
Flags: MW
HStem: -144 32<49 79.5 49 121.5> 660 32<49 79.5>
VStem: 135 58<-14.5 52 52 126 126 132 422 496>
LayerCount: 2
Back
Fore
SplineSet
37 -128 m 0
 37 -113 44 -112 54 -112 c 0
 105 -112 135 -99 135 -23 c 2
 135 126 l 2
 135 213 138 251 195 270 c 0
 208 275 207 273 195 278 c 0
 138 297 135 335 135 422 c 2
 135 571 l 2
 135 647 105 660 54 660 c 0
 44 660 37 661 37 676 c 0
 37 689 41 692 52 692 c 0
 191 692 193 629 193 496 c 2
 193 416 l 2
 193 251 270 310 270 274 c 0
 270 238 193 297 193 132 c 2
 193 52 l 2
 193 -81 191 -144 52 -144 c 0
 41 -144 37 -141 37 -128 c 0
EndSplineSet
Substitution2: "'case' Case-Sensitive Forms in Latin lookup 14 subtable" braceright.u
AlternateSubs2: "'aalt' Access All Alternates in Latin lookup 1 subtable" braceright.u
AlternateSubs2: "'aalt' Access All Alternates lookup 0 subtable" braceright.u
EndChar

StartChar: asciitilde
Encoding: 126 126 95
Width: 793
GlyphClass: 2
Flags: MW
HStem: 107 48<540 620> 245 54<166.5 243>
LayerCount: 2
Back
Fore
SplineSet
42 117 m 0
 42 120 44 129 46 135 c 0
 59 182 105 299 228 299 c 0
 373 299 483 155 597 155 c 0
 669 155 705 258 714 288 c 0
 717 300 722 299 733 297 c 0
 740 295 746 295 746 287 c 0
 746 286 746 283 745 280 c 0
 729 216 678 107 562 107 c 0
 412 107 302 245 184 245 c 0
 111 245 84 156 75 121 c 0
 73 113 72 105 65 105 c 0
 62 105 58 106 54 107 c 0
 47 109 42 109 42 117 c 0
EndSplineSet
EndChar

StartChar: exclamdown
Encoding: 161 161 97
Width: 220
GlyphClass: 2
Flags: MW
HStem: -11 21G<20 30 30 35> 556 104<99 119.5>
VStem: 2 65 62 96<597 619.5 597 624.5> 90 31<499 499>
LayerCount: 2
Back
Fore
SplineSet
2 9 m 0xe8
 2 14 3 17 4 22 c 0
 13 62 44 212 90 499 c 0
 91 506 97 506 101 506 c 2
 109 506 l 2
 115 506 121 505 121 499 c 0
 121 494 113 412 101 316 c 0
 79 141 72 75 67 14 c 0
 66 -6 48 -11 35 -11 c 2
 30 -11 l 2
 10 -11 2 -4 2 9 c 0xe8
62 606 m 0xd0
 62 643 93 660 105 660 c 0
 135 660 158 628 158 611 c 0
 158 583 130 556 109 556 c 0
 89 556 62 584 62 606 c 0xd0
EndSplineSet
Position2: "'cpsp' Capital Spacing in Latin lookup 0 subtable" dx=4 dy=0 dh=8 dv=0
EndChar

StartChar: cent
Encoding: 162 162 98
Width: 407
GlyphClass: 2
Flags: MW
HStem: -13 50<230 248.5>
VStem: 39 68<154.5 223 154.5 228> 252 27<488 493> 311 61
LayerCount: 2
Back
Fore
SplineSet
39 153 m 0
 39 303 140 388 231 400 c 0
 239 401 239 404 240 412 c 0
 246 449 250 477 252 488 c 1
 252 488 252 496 257 496 c 2
 263 496 l 2
 270 496 279 495 279 491 c 0
 279 490 269 433 265 408 c 0
 263 400 265 401 273 399 c 0
 325 389 372 354 372 308 c 0
 372 296 370 289 360 281 c 0
 351 274 338 267 329 267 c 0
 321 267 314 269 311 280 c 0
 302 320 301 358 265 367 c 0
 260 368 258 367 257 359 c 2
 206 48 l 2
 205 39 208 40 211 39 c 0
 216 38 226 37 234 37 c 0
 298 37 339 67 349 67 c 0
 354 67 359 64 358 56 c 0
 357 47 295 -13 202 -13 c 0
 196 -13 195 -12 193 -19 c 0
 182 -83 176 -133 170 -133 c 2
 164 -133 l 2
 158 -133 151 -132 151 -129 c 0
 151 -125 160 -81 169 -18 c 0
 170 -10 170 -11 161 -9 c 0
 83 6 39 67 39 153 c 0
107 182 m 0
 107 127 129 75 174 51 c 0
 176 50 177 49 178 49 c 0
 179 49 180 50 180 52 c 2
 231 360 l 2
 232 365 231 368 228 368 c 0
 227 368 226 367 224 367 c 0
 154 351 107 264 107 182 c 0
EndSplineSet
Substitution2: "'subs' Subscript in Latin lookup 10 subtable" cent.sub
Substitution2: "'sups' Superscript in Latin lookup 9 subtable" cent.sup
Substitution2: "'dnom' Denominators in Latin lookup 6 subtable" cent.denom
Substitution2: "'numr' Numerators in Latin lookup 5 subtable" cent.numer
AlternateSubs2: "'aalt' Access All Alternates in Latin lookup 1 subtable" cent.sub cent.sup cent.denom cent.numer
AlternateSubs2: "'aalt' Access All Alternates lookup 0 subtable" cent.sub cent.sup cent.denom cent.numer
EndChar

StartChar: sterling
Encoding: 163 163 99
Width: 489
GlyphClass: 2
Flags: MW
HStem: -37 59 -17 46<366 370.5> 11 27<102.5 127.5> 245 30<46.5 124 49 122 203 204 204 314> 626 30<340.5 366.5>
VStem: 17 107<-24 40> 411 55<513.5 584.5> 435 32<48.5 72>
LayerCount: 2
Back
Fore
SplineSet
17 -16 m 0x9d
 17 16 62 19 80 22 c 0x9d
 99 25 111 79 116 112 c 0
 122 153 128 196 129 232 c 0
 129 244 129 245 122 245 c 2
 49 245 l 2
 44 245 42 248 42 257 c 0
 42 268 42 275 49 275 c 2
 124 275 l 2
 133 275 133 275 133 281 c 0
 134 289 135 339 147 422 c 0
 160 514 201 601 274 638 c 0
 297 649 326 656 355 656 c 0
 412 656 466 623 466 546 c 0
 466 523 466 481 438 481 c 0
 417 481 411 505 411 522 c 0
 411 538 417 560 417 579 c 0
 417 597 387 626 346 626 c 0
 278 626 248 574 233 518 c 0
 213 443 205 353 198 282 c 0
 198 276 198 275 203 275 c 2
 315 275 l 2
 324 275 325 271 325 260 c 0
 325 249 323 245 314 245 c 2
 204 245 l 2
 194 245 195 247 191 231 c 0
 173 143 144 82 130 54 c 0
 126 47 124 40 124 40 c 2
 124 39 125 38 126 38 c 0x3e
 129 38 134 40 141 43 c 0
 158 50 185 52 196 52 c 0
 249 52 351 29 381 29 c 0
 408 29 435 34 435 63 c 0
 435 81 412 96 405 112 c 0
 404 113 404 115 404 116 c 0
 404 125 422 129 434 129 c 0
 457 129 467 100 467 78 c 0
 467 10 399 -17 342 -17 c 0x5d
 287 -17 128 11 110 11 c 0x3d
 95 11 66 -37 36 -37 c 0
 28 -37 17 -32 17 -16 c 0x9d
EndSplineSet
EndChar

StartChar: currency
Encoding: 164 164 100
Width: 494
GlyphClass: 2
Flags: MW
HStem: -19 20G 23 56<224.5 264> 329 53<224.5 265 224.5 277.5>
VStem: 65 57<184 223.5> 367 58<182.5 222 182.5 236.5>
LayerCount: 2
Back
Fore
SplineSet
22 8 m 0
 22 21 32 29 40 37 c 2
 99 97 l 1
 77 128 65 164 65 204 c 0
 65 243 77 280 98 309 c 1
 40 369 l 2
 39 370 22 382 22 398 c 0
 22 414 35 425 49 425 c 0
 62 425 71 416 79 408 c 2
 139 348 l 1
 169 370 205 382 244 382 c 0
 286 382 323 368 350 348 c 1
 410 408 l 2
 412 410 423 425 439 425 c 0
 455 425 467 412 467 398 c 0
 467 385 457 377 449 369 c 2
 389 308 l 1
 411 277 425 242 425 202 c 0
 425 163 410 126 389 98 c 1
 449 37 l 2
 450 36 467 24 467 8 c 0
 467 -8 453 -20 439 -20 c 0
 426 -20 418 -10 410 -2 c 2
 350 58 l 1
 320 36 284 23 244 23 c 0
 205 23 167 36 139 57 c 1
 79 -2 l 2
 77 -4 65 -19 49 -19 c 0
 33 -19 22 -6 22 8 c 0
122 202 m 0
 122 133 178 79 244 79 c 0
 310 79 367 135 367 203 c 0
 367 270 311 329 244 329 c 0
 176 329 122 270 122 202 c 0
EndSplineSet
EndChar

StartChar: yen
Encoding: 165 165 101
Width: 613
GlyphClass: 2
Flags: MW
HStem: -3 33 220 30<70 221 73 216 303 457> 342 30<90 198 92 198 92 211 349 477> 636 36<32 38 38 46 31.5 83 216.5 224 421 429 429 436.5 572 580>
LayerCount: 2
Back
Fore
SplineSet
17 654 m 0
 17 671 25 672 38 672 c 0
 54 672 109 669 139 669 c 0
 169 669 205 672 228 672 c 0
 242 672 244 668 244 651 c 0
 244 637 240 636 224 636 c 2
 184 636 l 2
 184 634 186 630 187 625 c 0
 203 572 262 429 290 360 c 0
 296 346 299 352 308 366 c 0
 355 437 479 615 479 636 c 1
 429 636 l 2
 413 636 408 637 408 651 c 0
 408 668 411 672 425 672 c 0
 448 672 473 669 503 669 c 0
 533 669 564 672 580 672 c 0
 593 672 596 670 596 654 c 0
 596 637 592 636 580 636 c 2
 542 636 l 1
 529 623 415 468 349 372 c 1
 477 372 l 2
 482 372 482 361 482 357 c 0
 482 353 482 342 477 342 c 2
 328 342 l 1
 321 331 l 2
 317 324 315 318 313 309 c 2
 303 250 l 1
 457 250 l 2
 462 250 462 239 462 235 c 0
 462 231 462 220 457 220 c 2
 298 220 l 1
 279 104 l 2
 273 67 269 42 269 33 c 0
 269 31 269 30 270 30 c 2
 334 30 l 2
 346 30 348 26 348 14 c 0
 348 -1 346 -6 334 -6 c 0
 311 -6 259 -3 229 -3 c 0
 199 -3 156 -6 133 -6 c 0
 119 -6 118 0 118 13 c 0
 118 26 120 30 137 30 c 2
 181 30 l 1
 186 35 193 80 216 220 c 1
 73 220 l 2
 67 220 67 232 67 236 c 0
 67 240 67 250 73 250 c 2
 221 250 l 1
 223 261 l 2
 228 288 228 297 228 301 c 0
 228 302 221 318 211 342 c 1
 92 342 l 2
 88 342 87 354 87 358 c 0
 87 362 88 372 92 372 c 2
 198 372 l 1
 83 636 l 1
 38 636 l 2
 26 636 17 637 17 654 c 0
EndSplineSet
EndChar

StartChar: brokenbar
Encoding: 166 166 102
Width: 247
GlyphClass: 2
Flags: MW
VStem: 97 53<-187 189 379 745>
LayerCount: 2
Back
Fore
SplineSet
97 -187 m 2
 97 189 l 2
 97 202 103 206 111 206 c 2
 136 206 l 2
 144 206 150 202 150 189 c 2
 150 -187 l 2
 150 -201 150 -212 135 -212 c 2
 114 -212 l 2
 98 -212 97 -208 97 -187 c 2
97 379 m 2
 97 746 l 2
 97 763 106 765 118 765 c 2
 125 765 l 2
 144 765 150 764 150 745 c 2
 150 379 l 2
 150 361 145 357 133 357 c 2
 115 357 l 2
 101 357 97 360 97 379 c 2
EndSplineSet
EndChar

StartChar: section
Encoding: 167 167 103
Width: 381
GlyphClass: 2
Flags: MW
HStem: -229 48<194 214.5> 634 46<148.5 174.5>
VStem: 37 45<321 341.5> 60 41<551.5 591> 277 40<-139.5 -94.5> 298 46<104 144.5>
LayerCount: 2
Back
Fore
SplineSet
37 310 m 0xe8
 37 373 88 416 107 430 c 0
 112 433 109 439 105 444 c 0
 92 462 60 512 60 556 c 0
 60 626 109 680 188 680 c 0
 231 680 305 670 305 632 c 0
 305 608 285 601 265 601 c 0
 217 601 200 634 149 634 c 0
 128 634 101 627 101 594 c 0
 101 509 344 316 344 132 c 0xd4
 344 76 299 53 277 36 c 0
 270 30 269 27 269 26 c 0
 269 25 271 20 275 13 c 0
 290 -14 317 -68 317 -102 c 0
 317 -177 261 -229 168 -229 c 0
 125 -229 62 -225 62 -182 c 0
 62 -167 77 -156 93 -156 c 0
 110 -156 123 -164 137 -169 c 0
 151 -174 180 -181 208 -181 c 0
 247 -181 277 -166 277 -132 c 0
 277 -57 37 151 37 310 c 0xe8
82 357 m 0xe4
 82 285 212 102 247 54 c 0
 253 46 254 46 255 46 c 0
 256 46 259 47 267 54 c 0
 281 67 298 87 298 102 c 0
 298 187 162 363 129 409 c 0
 123 417 123 418 115 411 c 0
 102 401 82 379 82 357 c 0xe4
EndSplineSet
EndChar

StartChar: dieresis
Encoding: 168 168 104
Width: 400
GlyphClass: 2
Flags: MW
HStem: 484 100<117.5 145.5 116 146 257.5 285.5>
VStem: 86 91<524 544 519.5 548.5> 226 91<524 544 519.5 548.5>
LayerCount: 2
Back
Fore
SplineSet
86 535 m 0
 86 562 102 584 130 584 c 0
 161 584 177 555 177 533 c 0
 177 506 159 484 133 484 c 0
 102 484 86 513 86 535 c 0
226 535 m 0
 226 562 242 584 270 584 c 0
 301 584 317 555 317 533 c 0
 317 506 299 484 273 484 c 0
 242 484 226 513 226 535 c 0
EndSplineSet
EndChar

StartChar: copyright
Encoding: 169 169 105
Width: 843
GlyphClass: 2
Flags: MW
HStem: -186 38<327 513 327 524.5> -30 36<390.5 477.5> 398 26<374.5 461> 526 38<327 513>
VStem: 51 40<96 282 96 293.5> 193 71<145.5 256.5 145.5 269> 565 33<394 397 397 401.5> 749 40<96 282>
LayerCount: 2
Back
Fore
SplineSet
51 189 m 0
 51 398 211 564 420 564 c 0
 629 564 789 400 789 189 c 0
 789 -20 629 -186 420 -186 c 0
 211 -186 51 -20 51 189 c 0
91 189 m 0
 91 3 234 -148 420 -148 c 0
 606 -148 749 3 749 189 c 0
 749 375 606 526 420 526 c 0
 234 526 91 375 91 189 c 0
193 201 m 0
 193 337 295 424 425 424 c 0
 502 424 546 386 559 377 c 0
 563 374 565 374 565 378 c 2
 565 397 l 2
 565 406 573 406 583 406 c 0
 593 406 598 406 598 397 c 0
 598 391 596 303 596 270 c 0
 596 261 592 258 583 258 c 0
 572 258 562 259 562 266 c 0
 562 269 565 318 565 324 c 0
 565 332 502 398 420 398 c 0
 329 398 264 314 264 199 c 0
 264 92 342 6 439 6 c 0
 536 6 572 56 580 56 c 0
 585 56 595 37 595 34 c 0
 595 24 534 -30 421 -30 c 0
 302 -30 193 45 193 201 c 0
EndSplineSet
EndChar

StartChar: ordfeminine
Encoding: 170 170 106
Width: 379
GlyphClass: 2
Flags: MW
HStem: 338 51<99 99.5> 633 41<169.5 213.5>
VStem: 27 61<420.5 447> 217 61<353.5 419.5> 291 54<658.5 659>
LayerCount: 2
Back
Fore
SplineSet
27 399 m 0
 27 495 91 674 221 674 c 0
 233 674 256 665 267 648 c 0
 273 640 278 632 281 628 c 1
 285 637 291 658 291 659 c 0
 294 671 318 672 328 672 c 0
 335 672 345 670 345 663 c 0
 345 649 278 437 278 402 c 0
 278 394 282 389 286 389 c 0
 295 389 332 436 339 436 c 0
 345 436 352 428 352 420 c 0
 352 413 281 337 243 337 c 0
 229 337 217 346 217 361 c 0
 217 386 239 460 253 504 c 1
 234 473 203 428 166 391 c 0
 137 362 116 338 83 338 c 0
 45 338 27 366 27 399 c 0
88 430 m 0
 88 411 90 389 108 389 c 0
 144 389 212 479 254 547 c 0
 263 561 266 585 266 589 c 0
 266 617 226 633 201 633 c 0
 138 633 88 497 88 430 c 0
EndSplineSet
EndChar

StartChar: guillemotleft
Encoding: 171 171 107
Width: 408
GlyphClass: 2
Flags: MW
HStem: 58 270<183 186 183 186 333 336 183 336>
VStem: 47 92<189 197> 197 92<189 197>
LayerCount: 2
Back
Fore
SplineSet
47 193 m 0
 47 201 75 223 103 250 c 0
 141 285 181 328 185 328 c 0
 187 328 202 315 202 313 c 0
 202 305 139 203 139 193 c 0
 139 183 202 83 202 73 c 0
 202 69 187 58 185 58 c 0
 180 58 141 101 103 136 c 0
 75 162 47 185 47 193 c 0
197 193 m 0
 197 201 225 223 253 250 c 0
 291 285 331 328 335 328 c 0
 337 328 352 315 352 313 c 0
 352 305 289 203 289 193 c 0
 289 183 352 83 352 73 c 0
 352 69 337 58 335 58 c 0
 330 58 291 101 253 136 c 0
 225 162 197 185 197 193 c 0
EndSplineSet
Substitution2: "'case' Case-Sensitive Forms in Latin lookup 14 subtable" guillemotleft.u
AlternateSubs2: "'aalt' Access All Alternates in Latin lookup 1 subtable" guillemotleft.u
AlternateSubs2: "'aalt' Access All Alternates lookup 0 subtable" guillemotleft.u
EndChar

StartChar: logicalnot
Encoding: 172 172 108
Width: 527
GlyphClass: 2
Flags: MW
HStem: 185 50<39.5 477 50 426>
VStem: 449 51<60 171 171 176.5>
LayerCount: 2
Back
Fore
SplineSet
28 215 m 0
 28 234 41 235 50 235 c 2
 477 235 l 2
 495 235 500 231 500 213 c 2
 500 55 l 2
 500 44 495 37 481 37 c 0
 462 37 449 38 449 60 c 2
 449 171 l 2
 449 182 442 185 426 185 c 2
 50 185 l 2
 29 185 28 196 28 215 c 0
EndSplineSet
EndChar

StartChar: uni00AD
Encoding: 173 173 109
Width: 268
GlyphClass: 2
Flags: MW
HStem: 195 49 203 48
VStem: 27 209<198 245>
LayerCount: 2
Back
Fore
SplineSet
27 201 m 0xa0
 27 216 36 243 48 244 c 0xa0
 58 245 226 251 232 251 c 0
 235 251 236 247 236 243 c 0
 236 230 234 204 226 203 c 0x60
 212 202 48 195 34 195 c 0
 30 195 27 195 27 201 c 0xa0
EndSplineSet
Substitution2: "'case' Case-Sensitive Forms in Latin lookup 14 subtable" uni00AD.u
AlternateSubs2: "'aalt' Access All Alternates in Latin lookup 1 subtable" uni00AD.u
AlternateSubs2: "'aalt' Access All Alternates lookup 0 subtable" uni00AD.u
EndChar

StartChar: registered
Encoding: 174 174 110
Width: 536
GlyphClass: 2
Flags: MW
HStem: 220 29<207 329 207 338> 325 24<159 159.5 250 255 255 258.5 404.5 415> 469 21<225 227 225 227> 620 22<266 267.5> 691 29<207 329>
VStem: 22 31<409 531 409 540> 179 46<455.5 464 464 469 490 493.5> 326 49<537.5 574> 340 53<349 349.5 349 363 349 388.5> 483 31<409 531>
LayerCount: 2
Back
Fore
SplineSet
22 470 m 0xfe40
 22 610 128 720 268 720 c 0
 408 720 514 611 514 470 c 0
 514 330 408 220 268 220 c 0
 128 220 22 330 22 470 c 0xfe40
53 470 m 0
 53 348 146 249 268 249 c 0
 390 249 483 348 483 470 c 0
 483 592 390 691 268 691 c 0
 146 691 53 592 53 470 c 0
139 628 m 0
 139 640 145 640 151 640 c 0
 159 640 191 639 204 639 c 0
 217 639 261 642 271 642 c 0
 317 642 375 628 375 559 c 0xff40
 375 516 337 493 316 482 c 1
 347 471 388 446 391 374 c 0
 392 357 393 350 393 349 c 2
 415 349 l 2
 423 349 423 344 423 334 c 0
 423 326 418 325 412 325 c 0
 397 325 350 326 350 326 c 2
 345 326 340 329 340 336 c 2
 340 363 l 2xfec0
 340 414 336 460 279 467 c 0
 264 469 245 469 227 469 c 2
 225 469 l 1
 225 442 227 366 229 349 c 1
 255 349 l 2
 262 349 263 346 263 339 c 0
 263 332 263 325 255 325 c 0
 245 325 216 326 203 326 c 0
 190 326 162 325 157 325 c 0
 149 325 147 329 147 339 c 0
 147 348 151 349 159 349 c 2
 177 349 l 1
 178 359 179 380 179 404 c 2
 179 464 l 2
 179 523 178 600 175 616 c 1
 151 615 l 2
 144 615 139 616 139 628 c 0
225 490 m 1
 227 490 l 2
 249 490 274 489 289 489 c 1
 309 499 326 518 326 553 c 0
 326 595 288 620 247 620 c 0
 240 620 233 619 226 619 c 1
 225 614 225 607 225 599 c 2
 225 490 l 1
EndSplineSet
EndChar

StartChar: macron
Encoding: 175 175 111
Width: 400
GlyphClass: 2
Flags: MW
HStem: 506 44<105 292 111 290>
VStem: 97 206<511 544.5>
LayerCount: 2
Back
Fore
SplineSet
97 515 m 0
 97 517 98 531 99 539 c 0
 100 548 102 550 111 550 c 2
 292 550 l 2
 299 550 303 548 303 541 c 0
 303 539 302 525 301 517 c 0
 300 509 299 506 290 506 c 2
 109 506 l 2
 101 506 97 507 97 515 c 0
EndSplineSet
EndChar

StartChar: degree
Encoding: 176 176 112
Width: 256
GlyphClass: 2
Flags: MW
HStem: 444 37<113 143 113 153> 589 37<113 143>
VStem: 37 37<520 550 520 560> 182 37<520 550>
LayerCount: 2
Back
Fore
SplineSet
37 535 m 0
 37 585 78 626 128 626 c 0
 178 626 219 585 219 535 c 0
 219 485 178 444 128 444 c 0
 78 444 37 485 37 535 c 0
74 535 m 0
 74 505 98 481 128 481 c 0
 158 481 182 505 182 535 c 0
 182 565 158 589 128 589 c 0
 98 589 74 565 74 535 c 0
EndSplineSet
EndChar

StartChar: plusminus
Encoding: 177 177 113
Width: 527
GlyphClass: 2
Flags: MW
HStem: 70 50<42 478 49 475> 298 51<38.5 230 49 225 297 475>
VStem: 238 50<152 284 356 357 357 493>
LayerCount: 2
Back
Fore
SplineSet
28 90 m 0
 28 108 29 120 49 120 c 2
 478 120 l 2
 495 120 499 113 499 97 c 0
 499 82 497 70 475 70 c 2
 48 70 l 2
 36 70 28 73 28 90 c 0
28 324 m 0
 28 336 32 349 49 349 c 2
 230 349 l 2
 238 349 238 351 238 356 c 2
 238 495 l 2
 238 508 247 513 257 513 c 0
 281 513 288 509 288 493 c 2
 288 357 l 2
 288 352 289 349 297 349 c 2
 480 349 l 2
 490 349 499 346 499 331 c 0
 499 311 498 298 475 298 c 2
 297 298 l 2
 289 298 288 294 288 284 c 2
 288 152 l 2
 288 137 279 135 269 135 c 0
 249 135 238 136 238 152 c 2
 238 284 l 2
 238 296 239 298 225 298 c 2
 48 298 l 2
 29 298 28 309 28 324 c 0
EndSplineSet
EndChar

StartChar: uni00B2
Encoding: 178 178 114
Width: 360
GlyphClass: 2
Flags: MW
HStem: 347 53<47.5 275 101 275 101 280> 714 49<159.5 203>
VStem: 250 61<631.5 664.5>
LayerCount: 2
Back
Fore
SplineSet
38 357 m 0
 38 369 92 438 97 442 c 0
 108 452 250 574 250 646 c 0
 250 683 227 714 179 714 c 0
 111 714 81 649 70 649 c 0
 65 649 52 656 52 665 c 0
 52 679 120 763 199 763 c 0
 267 763 311 715 311 652 c 0
 311 611 287 573 259 542 c 0
 212 491 157 456 135 438 c 0
 128 432 109 409 101 400 c 1
 275 400 l 1
 280 413 294 460 299 460 c 0
 304 460 322 457 322 455 c 0
 322 450 300 385 292 354 c 0
 291 347 285 347 280 347 c 2
 52 347 l 2
 43 347 38 351 38 357 c 0
EndSplineSet
EndChar

StartChar: uni00B3
Encoding: 179 179 115
Width: 360
GlyphClass: 2
Flags: MW
HStem: 338 29<135 174 135 177.5> 529 34 727 36<160.5 193>
VStem: 234 61<431.5 483>
LayerCount: 2
Back
Fore
SplineSet
46 377 m 0
 46 389 68 398 79 398 c 0
 111 398 121 367 149 367 c 0
 199 367 234 405 234 458 c 0
 234 508 204 531 151 531 c 0
 141 531 126 529 116 529 c 0
 108 529 106 538 106 545 c 0
 106 547 103 562 113 563 c 0
 130 564 150 568 165 574 c 0
 205 590 233 613 233 665 c 0
 233 705 208 727 178 727 c 0
 134 727 109 693 99 693 c 0
 94 693 83 699 84 708 c 0
 85 719 133 763 188 763 c 0
 259 763 294 716 294 672 c 0
 294 601 214 570 187 560 c 1
 216 554 295 536 295 462 c 0
 295 379 214 338 141 338 c 0
 109 338 46 360 46 377 c 0
EndSplineSet
EndChar

StartChar: acute
Encoding: 180 180 116
Width: 400
GlyphClass: 2
Flags: MW
HStem: 446 161<174.5 278 176 278>
VStem: 169 133<449 590>
LayerCount: 2
Back
Fore
SplineSet
169 451 m 0
 169 454 171 456 172 458 c 2
 233 581 l 2
 241 597 253 607 268 607 c 0
 288 607 302 597 302 583 c 0
 302 573 300 565 292 556 c 2
 201 453 l 2
 198 449 196 446 191 446 c 2
 176 446 l 2
 173 446 169 447 169 451 c 0
EndSplineSet
EndChar

StartChar: uni00B5
Encoding: 181 181 117
Width: 509
GlyphClass: 2
Flags: MW
HStem: -18 59<153.5 171> 359 20G<143 151>
VStem: 22 46<-94.5 -89.5> 317 66<63 67.5> 364 69
LayerCount: 2
Back
Fore
SplineSet
22 -136 m 0xf0
 22 -43 57 41 82 156 c 0
 129 364 136 379 150 379 c 0
 152 379 192 379 192 359 c 0
 192 338 155 240 141 128 c 0
 140 116 138 100 138 85 c 0
 138 60 143 41 164 41 c 0
 230 41 322 224 364 330 c 0
 380 371 382 380 390 380 c 0
 404 380 433 375 433 362 c 0xe8
 433 349 383 114 383 70 c 0
 383 56 395 47 405 47 c 0
 439 47 447 114 466 114 c 0
 477 114 477 105 477 98 c 0
 477 59 423 -20 354 -20 c 0
 323 -20 317 11 317 47 c 0
 317 88 333 174 333 184 c 0
 333 187 333 187 331 184 c 0
 322 169 300 134 277 100 c 0
 247 57 206 -18 136 -18 c 0
 108 -18 96 14 90 34 c 0
 87 45 86 46 83 34 c 0
 76 3 68 -56 68 -79 c 0
 68 -110 92 -145 92 -156 c 0
 92 -161 85 -186 59 -186 c 0
 41 -186 22 -170 22 -136 c 0xf0
EndSplineSet
EndChar

StartChar: paragraph
Encoding: 182 182 118
Width: 492
GlyphClass: 2
Flags: MW
HStem: -234 40<283 348 288 348 348 352 288 376> 617 40<391.5 394 394 444>
VStem: 37 251<318 501> 277 112<-223 -205 -205 -202> 356 33<-189 610> 356 99<625 629 629 643 625 644 625 650>
LayerCount: 2
Back
Fore
SplineSet
37 417 m 0xe0
 37 585 185 647 273 647 c 0
 286 647 288 643 288 633 c 2
 288 162 l 2
 288 156 286 151 280 151 c 0
 209 151 37 219 37 417 c 0xe0
277 -205 m 2xd0
 277 -199 278 -194 288 -194 c 2
 348 -194 l 2
 356 -194 356 -194 356 -189 c 2xe8
 356 644 l 2
 356 656 359 657 368 657 c 2
 444 657 l 2
 454 657 455 653 455 643 c 2
 455 629 l 2xc4
 455 621 455 617 444 617 c 2
 394 617 l 2
 389 617 389 617 389 610 c 2xc8
 389 -224 l 2xd0
 389 -234 389 -234 376 -234 c 2
 288 -234 l 2xe0
 278 -234 277 -229 277 -223 c 2
 277 -205 l 2xd0
EndSplineSet
EndChar

StartChar: periodcentered
Encoding: 183 183 119
Width: 125
GlyphClass: 2
Flags: MW
HStem: 289 100<53.5 81.5 52 82>
VStem: 22 91<329 349 324.5 353.5>
LayerCount: 2
Back
Fore
SplineSet
22 340 m 0
 22 367 38 389 66 389 c 0
 97 389 113 360 113 338 c 0
 113 311 95 289 69 289 c 0
 38 289 22 318 22 340 c 0
EndSplineSet
EndChar

StartChar: cedilla
Encoding: 184 184 120
Width: 400
GlyphClass: 2
Flags: MW
HStem: -220 29<160 195 157.5 216> -103 39<186 243.5> -20 20<204 230 230 230>
VStem: 239 60<-157 -135.5>
LayerCount: 2
Back
Fore
SplineSet
106 -190 m 0
 106 -187 106 -177 117 -177 c 0
 123 -177 142 -191 173 -191 c 0
 217 -191 239 -177 239 -145 c 0
 239 -126 229 -103 195 -103 c 0
 177 -103 164 -109 159 -109 c 0
 157 -109 149 -105 149 -103 c 0
 149 -100 191 -25 204 0 c 1
 230 0 l 1
 230 0 197 -60 194 -66 c 1
 199 -65 213 -64 219 -64 c 0
 268 -64 299 -96 299 -131 c 0
 299 -183 248 -220 184 -220 c 0
 136 -220 106 -198 106 -190 c 0
EndSplineSet
EndChar

StartChar: uni00B9
Encoding: 185 185 121
Width: 360
GlyphClass: 2
Flags: MW
HStem: 345 33<89 95.5 255.5 261 261 265.5> 712 51
VStem: 75 197<354.5 362.5 354 364>
LayerCount: 2
Back
Fore
SplineSet
75 360 m 0
 75 368 75 378 89 378 c 2
 144 378 l 1
 151 425 186 684 189 723 c 1
 174 721 136 712 132 712 c 0
 123 712 122 722 122 724 c 2
 122 732 l 2
 122 738 126 743 133 744 c 0
 160 747 248 763 253 763 c 0
 261 763 263 756 263 752 c 0
 263 744 250 670 241 612 c 2
 206 378 l 1
 261 378 l 2
 272 378 272 366 272 359 c 0
 272 349 270 345 261 345 c 0
 250 345 199 347 179 347 c 0
 159 347 103 345 88 345 c 0
 77 345 75 349 75 360 c 0
EndSplineSet
EndChar

StartChar: ordmasculine
Encoding: 186 186 122
Width: 377
GlyphClass: 2
Flags: MW
HStem: 339 28<117.5 186.5 117.5 200.5> 655 27<182 241>
VStem: 27 59<453 507 453 525.5> 280 60<542.5 573 495.5 594>
LayerCount: 2
Back
Fore
SplineSet
27 464 m 0
 27 587 109 682 222 682 c 0
 312 682 340 599 340 547 c 0
 340 444 254 339 147 339 c 0
 67 339 27 400 27 464 c 0
86 471 m 0
 86 435 87 367 148 367 c 0
 225 367 280 505 280 580 c 0
 280 608 269 655 213 655 c 0
 151 655 86 543 86 471 c 0
EndSplineSet
EndChar

StartChar: guillemotright
Encoding: 187 187 123
Width: 408
GlyphClass: 2
Flags: MW
HStem: 58 270<72 75 222 225>
VStem: 119 92<189 197 189 198> 269 92<189 197 189 198>
LayerCount: 2
Back
Fore
SplineSet
56 73 m 0
 56 81 119 183 119 193 c 0
 119 203 56 303 56 313 c 0
 56 317 71 328 73 328 c 0
 78 328 117 285 155 250 c 0
 183 224 211 201 211 193 c 0
 211 185 183 163 155 136 c 0
 117 101 77 58 73 58 c 0
 71 58 56 71 56 73 c 0
206 73 m 0
 206 81 269 183 269 193 c 0
 269 203 206 303 206 313 c 0
 206 317 221 328 223 328 c 0
 228 328 267 285 305 250 c 0
 333 224 361 201 361 193 c 0
 361 185 333 163 305 136 c 0
 267 101 227 58 223 58 c 0
 221 58 206 71 206 73 c 0
EndSplineSet
Substitution2: "'case' Case-Sensitive Forms in Latin lookup 14 subtable" guillemotright.u
AlternateSubs2: "'aalt' Access All Alternates in Latin lookup 1 subtable" guillemotright.u
AlternateSubs2: "'aalt' Access All Alternates lookup 0 subtable" guillemotright.u
EndChar

StartChar: onequarter
Encoding: 188 188 124
Width: 794
GlyphClass: 2
Flags: MW
HStem: -16 21<221.5 236.5> -14 21<597 606.5> 132 44<469 619 502 610 688 722> 245 33<89 95.5 255.5 261 261 265.5> 612 51 651 20<634 650.5>
VStem: 75 197<254.5 262.5 254 264>
LayerCount: 2
Back
Fore
SplineSet
455 141 m 0x60
 455 149 461 165 473 181 c 0
 507 227 585 301 634 360 c 0
 644 373 654 375 660 381 c 0
 674 395 693 417 702 417 c 0
 712 417 712 405 712 400 c 0
 712 384 687 209 682 180 c 0
 682 178 682 176 688 176 c 2
 725 176 l 2
 730 176 734 173 734 165 c 2
 734 142 l 2
 734 134 730 132 722 132 c 2
 678 132 l 2
 674 132 672 131 671 126 c 0
 665 85 653 6 653 -1 c 0
 652 -8 645 -9 644 -9 c 2
 644 -10 l 1
 643 -10 l 2
 638 -11 612 -14 601 -14 c 0
 593 -14 593 -5 594 0 c 2
 617 126 l 2
 618 131 614 132 610 132 c 2
 471 132 l 2
 467 132 455 132 455 141 c 0x60
502 176 m 2
 619 176 l 2
 622 176 626 177 628 187 c 0
 631 203 647 302 649 337 c 1
 626 314 550 232 511 187 c 0
 508 184 504 179 502 176 c 2
205 -10 m 0x84
 205 -8 209 -2 211 2 c 2
 620 660 l 2
 625 667 623 671 645 671 c 0
 656 671 668 670 668 665 c 0
 668 664 665 659 664 657 c 2
 254 -3 l 2
 246 -16 245 -16 228 -16 c 0
 215 -16 205 -16 205 -10 c 0x84
75 260 m 0x1a
 75 268 75 278 89 278 c 2
 144 278 l 1
 151 325 186 584 189 623 c 1
 174 621 136 612 132 612 c 0
 123 612 122 622 122 624 c 2
 122 632 l 2
 122 638 126 643 133 644 c 0
 160 647 248 663 253 663 c 0
 261 663 263 656 263 652 c 0
 263 644 250 570 241 512 c 2
 206 278 l 1
 261 278 l 2
 272 278 272 266 272 259 c 0
 272 249 270 245 261 245 c 0
 250 245 199 247 179 247 c 0
 159 247 103 245 88 245 c 0
 77 245 75 249 75 260 c 0x1a
EndSplineSet
EndChar

StartChar: onehalf
Encoding: 189 189 125
Width: 844
GlyphClass: 2
Flags: MW
HStem: -16 21<221.5 236.5> -3 53<531.5 759 585 759 585 764> 245 33<89 95.5 255.5 261 261 265.5> 364 49<643.5 687> 612 51 651 20<634 650.5>
VStem: 75 197<254.5 262.5 254 264> 734 61<281.5 314.5>
LayerCount: 2
Back
Fore
SplineSet
522 7 m 0x50
 522 19 576 88 581 92 c 0
 592 102 734 224 734 296 c 0
 734 333 711 364 663 364 c 0
 595 364 565 299 554 299 c 0
 549 299 536 306 536 315 c 0
 536 329 604 413 683 413 c 0
 751 413 795 365 795 302 c 0x51
 795 261 771 223 743 192 c 0
 696 141 641 106 619 88 c 0
 612 82 593 59 585 50 c 1
 759 50 l 1
 764 63 778 110 783 110 c 0
 788 110 806 107 806 105 c 0
 806 100 784 35 776 4 c 0
 775 -3 769 -3 764 -3 c 2
 536 -3 l 2
 527 -3 522 1 522 7 c 0x50
205 -10 m 0x84
 205 -8 209 -2 211 2 c 2
 620 660 l 2
 625 667 623 671 645 671 c 0
 656 671 668 670 668 665 c 0
 668 664 665 659 664 657 c 2
 254 -3 l 2
 246 -16 245 -16 228 -16 c 0
 215 -16 205 -16 205 -10 c 0x84
75 260 m 0x2a
 75 268 75 278 89 278 c 2
 144 278 l 1
 151 325 186 584 189 623 c 1
 174 621 136 612 132 612 c 0
 123 612 122 622 122 624 c 2
 122 632 l 2
 122 638 126 643 133 644 c 0
 160 647 248 663 253 663 c 0
 261 663 263 656 263 652 c 0
 263 644 250 570 241 512 c 2
 206 278 l 1
 261 278 l 2
 272 278 272 266 272 259 c 0
 272 249 270 245 261 245 c 0
 250 245 199 247 179 247 c 0
 159 247 103 245 88 245 c 0
 77 245 75 249 75 260 c 0x2a
EndSplineSet
EndChar

StartChar: threequarters
Encoding: 190 190 126
Width: 794
GlyphClass: 2
Flags: MW
HStem: -16 21<221.5 236.5> -14 21<597 606.5> 132 44<469 619 502 610 688 722> 238 29<135 174 135 177.5> 429 34 627 36<160.5 193> 651 20<634 650.5>
VStem: 234 61<331.5 383>
LayerCount: 2
Back
Fore
SplineSet
455 141 m 0x60
 455 149 461 165 473 181 c 0
 507 227 585 301 634 360 c 0
 644 373 654 375 660 381 c 0
 674 395 693 417 702 417 c 0
 712 417 712 405 712 400 c 0
 712 384 687 209 682 180 c 0
 682 178 682 176 688 176 c 2
 725 176 l 2
 730 176 734 173 734 165 c 2
 734 142 l 2
 734 134 730 132 722 132 c 2
 678 132 l 2
 674 132 672 131 671 126 c 0
 665 85 653 6 653 -1 c 0
 652 -8 645 -9 644 -9 c 2
 644 -10 l 1
 643 -10 l 2
 638 -11 612 -14 601 -14 c 0
 593 -14 593 -5 594 0 c 2
 617 126 l 2
 618 131 614 132 610 132 c 2
 471 132 l 2
 467 132 455 132 455 141 c 0x60
502 176 m 2
 619 176 l 2
 622 176 626 177 628 187 c 0
 631 203 647 302 649 337 c 1
 626 314 550 232 511 187 c 0
 508 184 504 179 502 176 c 2
205 -10 m 0x82
 205 -8 209 -2 211 2 c 2
 620 660 l 2
 625 667 623 671 645 671 c 0
 656 671 668 670 668 665 c 0
 668 664 665 659 664 657 c 2
 254 -3 l 2
 246 -16 245 -16 228 -16 c 0
 215 -16 205 -16 205 -10 c 0x82
46 277 m 0x1d
 46 289 68 298 79 298 c 0
 111 298 121 267 149 267 c 0
 199 267 234 305 234 358 c 0
 234 408 204 431 151 431 c 0
 141 431 126 429 116 429 c 0
 108 429 106 438 106 445 c 0
 106 447 103 462 113 463 c 0
 130 464 150 468 165 474 c 0
 205 490 233 513 233 565 c 0
 233 605 208 627 178 627 c 0
 134 627 109 593 99 593 c 0
 94 593 83 599 84 608 c 0
 85 619 133 663 188 663 c 0
 259 663 294 616 294 572 c 0
 294 501 214 470 187 460 c 1
 216 454 295 436 295 362 c 0
 295 279 214 238 141 238 c 0
 109 238 46 260 46 277 c 0x1d
EndSplineSet
EndChar

StartChar: questiondown
Encoding: 191 191 127
Width: 374
GlyphClass: 2
Flags: MW
HStem: -11 63<169.5 198 169 205.5> 556 104<238 258.5>
VStem: 32 32<121.5 160.5 120 181.5> 201 96<597 619.5 597 624.5> 253 40<444 463.5 423 469.5>
LayerCount: 2
Back
Fore
SplineSet
32 148 m 0xe8
 32 215 52 232 82 266 c 0
 123 312 151 337 187 373 c 0
 207 393 253 431 253 457 c 0
 253 482 225 505 225 510 c 0
 225 514 237 526 242 526 c 0
 250 526 293 484 293 443 c 0
 293 403 264 369 227 332 c 0
 159 264 64 187 64 134 c 0
 64 106 82 77 100 66 c 0
 121 53 151 52 187 52 c 0
 209 52 258 55 267 55 c 0
 281 55 282 38 282 23 c 2
 282 13 l 2
 282 -3 275 -4 261 -6 c 0
 243 -9 214 -11 197 -11 c 0
 142 -11 119 -1 105 8 c 0
 60 38 32 95 32 148 c 0xe8
201 606 m 0xf0
 201 643 232 660 244 660 c 0
 274 660 297 628 297 611 c 0
 297 583 269 556 248 556 c 0
 228 556 201 584 201 606 c 0xf0
EndSplineSet
Position2: "'cpsp' Capital Spacing in Latin lookup 0 subtable" dx=4 dy=0 dh=8 dv=0
EndChar

StartChar: Agrave
Encoding: 192 192 128
Width: 688
GlyphClass: 2
Flags: MW
HStem: -6 36<38 39 197.5 209 209 215 460 466.5 649.5 657 657 663> 278 30<278 469 302 469 469 474 302 477> 670 20<481.5 493> 726 124<419 480 419 498>
VStem: 399 65<823 823 823 826.5>
LayerCount: 2
Back
Fore
SplineSet
399 818 m 0
 399 835 407 850 431 850 c 0
 448 850 457 837 464 823 c 2
 504 738 l 2
 505 736 505 734 505 732 c 0
 505 729 503 726 498 726 c 2
 480 726 l 2
 475 726 473 731 471 733 c 2
 410 793 l 2
 404 799 399 808 399 818 c 0
17 15 m 0
 17 29 22 30 38 30 c 2
 70 30 l 1
 90 54 338 494 418 612 c 0
 432 632 451 642 468 674 c 0
 472 682 477 690 486 690 c 0
 500 690 501 678 502 669 c 0
 521 556 601 60 616 30 c 1
 657 30 l 2
 669 30 671 26 671 14 c 0
 671 -1 669 -6 657 -6 c 0
 642 -6 597 -3 567 -3 c 0
 537 -3 478 -6 455 -6 c 0
 441 -6 439 -2 439 15 c 0
 439 29 444 30 460 30 c 2
 516 30 l 1
 516 38 l 2
 516 78 491 229 488 262 c 0
 486 277 486 278 477 278 c 2
 284 278 l 2
 272 278 271 278 264 265 c 0
 240 220 150 54 143 30 c 1
 209 30 l 2
 221 30 223 26 223 14 c 0
 223 -1 221 -6 209 -6 c 0
 186 -6 152 -3 107 -3 c 0
 77 -3 45 -6 33 -6 c 0
 19 -6 17 -2 17 15 c 0
287 311 m 0
 287 310 289 308 302 308 c 2
 469 308 l 2
 479 308 479 309 479 310 c 0
 479 323 438 573 435 573 c 0
 434 573 310 353 294 325 c 0
 290 318 287 312 287 311 c 0
EndSplineSet
Position2: "'cpsp' Capital Spacing in Latin lookup 0 subtable" dx=4 dy=0 dh=8 dv=0
EndChar

StartChar: Aacute
Encoding: 193 193 129
Width: 688
GlyphClass: 2
Flags: MW
HStem: -6 36<38 39 197.5 209 209 215 460 466.5 649.5 657 657 663> 278 30<278 469 302 469 469 474 302 477> 670 20<481.5 493> 726 124<484.5 599 486 599>
VStem: 479 139<729 832.5>
LayerCount: 2
Back
Fore
SplineSet
479 731 m 0
 479 735 481 737 482 738 c 2
 549 824 l 2
 560 838 572 850 589 850 c 0
 609 850 618 839 618 826 c 0
 618 812 609 800 599 793 c 2
 516 733 l 2
 513 731 510 726 505 726 c 2
 486 726 l 2
 483 726 479 727 479 731 c 0
17 15 m 0
 17 29 22 30 38 30 c 2
 70 30 l 1
 90 54 338 494 418 612 c 0
 432 632 451 642 468 674 c 0
 472 682 477 690 486 690 c 0
 500 690 501 678 502 669 c 0
 521 556 601 60 616 30 c 1
 657 30 l 2
 669 30 671 26 671 14 c 0
 671 -1 669 -6 657 -6 c 0
 642 -6 597 -3 567 -3 c 0
 537 -3 478 -6 455 -6 c 0
 441 -6 439 -2 439 15 c 0
 439 29 444 30 460 30 c 2
 516 30 l 1
 516 38 l 2
 516 78 491 229 488 262 c 0
 486 277 486 278 477 278 c 2
 284 278 l 2
 272 278 271 278 264 265 c 0
 240 220 150 54 143 30 c 1
 209 30 l 2
 221 30 223 26 223 14 c 0
 223 -1 221 -6 209 -6 c 0
 186 -6 152 -3 107 -3 c 0
 77 -3 45 -6 33 -6 c 0
 19 -6 17 -2 17 15 c 0
287 311 m 0
 287 310 289 308 302 308 c 2
 469 308 l 2
 479 308 479 309 479 310 c 0
 479 323 438 573 435 573 c 0
 434 573 310 353 294 325 c 0
 290 318 287 312 287 311 c 0
EndSplineSet
Position2: "'cpsp' Capital Spacing in Latin lookup 0 subtable" dx=4 dy=0 dh=8 dv=0
EndChar

StartChar: Acircumflex
Encoding: 194 194 130
Width: 688
GlyphClass: 2
Flags: MW
HStem: -6 36<38 39 197.5 209 209 215 460 466.5 649.5 657 657 663> 278 30<278 469 302 469 469 474 302 477> 670 20<481.5 493> 726 116<388.5 523 390 523 503 579 503 589>
VStem: 384 214<728 730.5 728 731.5>
LayerCount: 2
Back
Fore
SplineSet
384 730 m 0
 384 733 387 735 390 738 c 2
 481 830 l 2
 491 840 492 842 503 842 c 2
 523 842 l 2
 534 842 536 840 542 830 c 2
 595 738 l 2
 597 735 598 731 598 730 c 0
 598 726 593 726 589 726 c 2
 579 726 l 2
 575 726 572 729 568 733 c 2
 505 785 l 2
 504 786 503 786 501 785 c 2
 416 732 l 2
 411 729 407 726 403 726 c 2
 390 726 l 2
 387 726 384 726 384 730 c 0
17 15 m 0
 17 29 22 30 38 30 c 2
 70 30 l 1
 90 54 338 494 418 612 c 0
 432 632 451 642 468 674 c 0
 472 682 477 690 486 690 c 0
 500 690 501 678 502 669 c 0
 521 556 601 60 616 30 c 1
 657 30 l 2
 669 30 671 26 671 14 c 0
 671 -1 669 -6 657 -6 c 0
 642 -6 597 -3 567 -3 c 0
 537 -3 478 -6 455 -6 c 0
 441 -6 439 -2 439 15 c 0
 439 29 444 30 460 30 c 2
 516 30 l 1
 516 38 l 2
 516 78 491 229 488 262 c 0
 486 277 486 278 477 278 c 2
 284 278 l 2
 272 278 271 278 264 265 c 0
 240 220 150 54 143 30 c 1
 209 30 l 2
 221 30 223 26 223 14 c 0
 223 -1 221 -6 209 -6 c 0
 186 -6 152 -3 107 -3 c 0
 77 -3 45 -6 33 -6 c 0
 19 -6 17 -2 17 15 c 0
287 311 m 0
 287 310 289 308 302 308 c 2
 469 308 l 2
 479 308 479 309 479 310 c 0
 479 323 438 573 435 573 c 0
 434 573 310 353 294 325 c 0
 290 318 287 312 287 311 c 0
EndSplineSet
Position2: "'cpsp' Capital Spacing in Latin lookup 0 subtable" dx=4 dy=0 dh=8 dv=0
EndChar

StartChar: Atilde
Encoding: 195 195 131
Width: 688
GlyphClass: 2
Flags: MW
HStem: -6 36<38 39 197.5 209 209 215 460 466.5 649.5 657 657 663> 278 30<278 469 302 469 469 474 302 477> 670 20<481.5 493> 740 49<535.5 543> 775 50<458.5 463.5>
VStem: 390 219<743 827.5>
LayerCount: 2
Back
Fore
SplineSet
390 744 m 0x10
 390 750 398 766 401 771 c 0
 422 807 450 825 467 825 c 0x08
 499 825 524 789 547 789 c 0
 566 789 577 806 584 820 c 0
 588 828 586 829 595 829 c 2
 608 829 l 2
 609 829 609 828 609 827 c 0
 609 817 603 806 599 797 c 0
 582 765 557 740 529 740 c 0x10
 493 740 478 775 449 775 c 0x08
 430 775 421 761 414 748 c 0
 411 741 412 740 404 740 c 2
 393 740 l 2
 391 740 390 742 390 744 c 0x10
17 15 m 0xe0
 17 29 22 30 38 30 c 2
 70 30 l 1
 90 54 338 494 418 612 c 0
 432 632 451 642 468 674 c 0
 472 682 477 690 486 690 c 0
 500 690 501 678 502 669 c 0
 521 556 601 60 616 30 c 1
 657 30 l 2
 669 30 671 26 671 14 c 0
 671 -1 669 -6 657 -6 c 0
 642 -6 597 -3 567 -3 c 0
 537 -3 478 -6 455 -6 c 0
 441 -6 439 -2 439 15 c 0
 439 29 444 30 460 30 c 2
 516 30 l 1
 516 38 l 2
 516 78 491 229 488 262 c 0
 486 277 486 278 477 278 c 2
 284 278 l 2
 272 278 271 278 264 265 c 0
 240 220 150 54 143 30 c 1
 209 30 l 2
 221 30 223 26 223 14 c 0
 223 -1 221 -6 209 -6 c 0
 186 -6 152 -3 107 -3 c 0
 77 -3 45 -6 33 -6 c 0
 19 -6 17 -2 17 15 c 0xe0
287 311 m 0
 287 310 289 308 302 308 c 2
 469 308 l 2
 479 308 479 309 479 310 c 0
 479 323 438 573 435 573 c 0
 434 573 310 353 294 325 c 0
 290 318 287 312 287 311 c 0
EndSplineSet
Position2: "'cpsp' Capital Spacing in Latin lookup 0 subtable" dx=4 dy=0 dh=8 dv=0
EndChar

StartChar: Adieresis
Encoding: 196 196 132
Width: 688
GlyphClass: 2
Flags: MW
HStem: -6 36<38 39 197.5 209 209 215 460 466.5 649.5 657 657 663> 278 30<278 469 302 469 469 474 302 477> 670 20<481.5 493> 734 100<418.5 446.5 417 447 558.5 586.5>
VStem: 387 91<774 794 769.5 798.5> 527 91<774 794 769.5 798.5>
LayerCount: 2
Back
Fore
SplineSet
387 785 m 0
 387 812 403 834 431 834 c 0
 462 834 478 805 478 783 c 0
 478 756 460 734 434 734 c 0
 403 734 387 763 387 785 c 0
527 785 m 0
 527 812 543 834 571 834 c 0
 602 834 618 805 618 783 c 0
 618 756 600 734 574 734 c 0
 543 734 527 763 527 785 c 0
17 15 m 0
 17 29 22 30 38 30 c 2
 70 30 l 1
 90 54 338 494 418 612 c 0
 432 632 451 642 468 674 c 0
 472 682 477 690 486 690 c 0
 500 690 501 678 502 669 c 0
 521 556 601 60 616 30 c 1
 657 30 l 2
 669 30 671 26 671 14 c 0
 671 -1 669 -6 657 -6 c 0
 642 -6 597 -3 567 -3 c 0
 537 -3 478 -6 455 -6 c 0
 441 -6 439 -2 439 15 c 0
 439 29 444 30 460 30 c 2
 516 30 l 1
 516 38 l 2
 516 78 491 229 488 262 c 0
 486 277 486 278 477 278 c 2
 284 278 l 2
 272 278 271 278 264 265 c 0
 240 220 150 54 143 30 c 1
 209 30 l 2
 221 30 223 26 223 14 c 0
 223 -1 221 -6 209 -6 c 0
 186 -6 152 -3 107 -3 c 0
 77 -3 45 -6 33 -6 c 0
 19 -6 17 -2 17 15 c 0
287 311 m 0
 287 310 289 308 302 308 c 2
 469 308 l 2
 479 308 479 309 479 310 c 0
 479 323 438 573 435 573 c 0
 434 573 310 353 294 325 c 0
 290 318 287 312 287 311 c 0
EndSplineSet
Position2: "'cpsp' Capital Spacing in Latin lookup 0 subtable" dx=4 dy=0 dh=8 dv=0
EndChar

StartChar: Aring
Encoding: 197 197 133
Width: 688
GlyphClass: 2
Flags: MW
HStem: -6 36<38 39 197.5 209 209 215 460 466.5 649.5 657 657 663> 278 30<278 469 302 469 469 474 302 477> 670 20<481.5 493> 710 34<490.5 511.5 490.5 520.5> 818 34<490.5 511.5>
VStem: 430 34<770.5 791.5 770.5 800.5> 538 34<770.5 791.5>
LayerCount: 2
Back
Fore
SplineSet
430 781 m 0
 430 820 462 852 501 852 c 0
 540 852 572 820 572 781 c 0
 572 742 540 710 501 710 c 0
 462 710 430 742 430 781 c 0
464 781 m 0
 464 760 480 744 501 744 c 0
 522 744 538 760 538 781 c 0
 538 802 522 818 501 818 c 0
 480 818 464 802 464 781 c 0
17 15 m 0
 17 29 22 30 38 30 c 2
 70 30 l 1
 90 54 338 494 418 612 c 0
 432 632 451 642 468 674 c 0
 472 682 477 690 486 690 c 0
 500 690 501 678 502 669 c 0
 521 556 601 60 616 30 c 1
 657 30 l 2
 669 30 671 26 671 14 c 0
 671 -1 669 -6 657 -6 c 0
 642 -6 597 -3 567 -3 c 0
 537 -3 478 -6 455 -6 c 0
 441 -6 439 -2 439 15 c 0
 439 29 444 30 460 30 c 2
 516 30 l 1
 516 38 l 2
 516 78 491 229 488 262 c 0
 486 277 486 278 477 278 c 2
 284 278 l 2
 272 278 271 278 264 265 c 0
 240 220 150 54 143 30 c 1
 209 30 l 2
 221 30 223 26 223 14 c 0
 223 -1 221 -6 209 -6 c 0
 186 -6 152 -3 107 -3 c 0
 77 -3 45 -6 33 -6 c 0
 19 -6 17 -2 17 15 c 0
287 311 m 0
 287 310 289 308 302 308 c 2
 469 308 l 2
 479 308 479 309 479 310 c 0
 479 323 438 573 435 573 c 0
 434 573 310 353 294 325 c 0
 290 318 287 312 287 311 c 0
EndSplineSet
Position2: "'cpsp' Capital Spacing in Latin lookup 0 subtable" dx=4 dy=0 dh=8 dv=0
EndChar

StartChar: AE
Encoding: 198 198 134
Width: 968
GlyphClass: 2
Flags: MW
HStem: -6 36<8 15.5 172.5 184 184 190 427 434.5> -6 46<877.5 879 873.5 894.5> 298 30<307 513 337 509> 322 33<604.5 776 612 763> 633 35<449 451.5 443.5 455 443.5 517>
VStem: 798 36<241 241> 810 56 831 35<421 421> 893 37<548.5 552 547 556.5> 914 37
LayerCount: 2
Back
Fore
SplineSet
-13 15 m 0xaa40
 -13 29 -8 30 8 30 c 2
 40 30 l 2
 54 30 418 513 517 633 c 1
 455 633 l 2
 443 633 433 634 433 651 c 0
 433 664 439 668 448 668 c 0
 455 668 567 665 602 665 c 0
 655 665 768 668 811 668 c 0
 880 668 902 670 903 678 c 0
 903 680 904 693 919 693 c 0
 933 693 939 691 939 679 c 0
 939 659 932 632 930 552 c 0
 930 542 925 541 911 541 c 0
 898 541 893 543 893 554 c 0
 893 559 898 617 899 629 c 1
 878 632 742 635 641 635 c 1
 634 615 609 432 601 369 c 0
 600 364 600 360 600 359 c 0
 600 356 599 355 612 355 c 2
 776 355 l 2
 796 355 818 356 820 366 c 2
 831 421 l 2x9980
 832 428 843 428 850 428 c 0
 856 428 866 427 866 419 c 0x9a
 866 409 856 369 849 331 c 0
 843 299 835 254 834 241 c 0
 833 233 825 233 818 233 c 2
 814 233 l 2
 807 233 798 234 798 241 c 0x9c
 798 247 810 308 810 311 c 0
 810 318 806 322 763 322 c 2
 612 322 l 2
 597 322 597 322 595 314 c 0
 592 298 561 83 556 39 c 0
 556 36 557 33 560 33 c 0
 585 33 868 40 879 40 c 1x5a
 886 46 902 106 914 135 c 0
 916 141 919 146 931 146 c 0
 939 146 951 141 951 132 c 0
 951 119 930 70 909 7 c 0
 906 -3 900 -6 889 -6 c 0
 866 -6 556 -3 526 -3 c 0
 496 -3 446 -6 423 -6 c 0
 409 -6 406 -2 406 15 c 0
 406 29 411 30 427 30 c 2
 467 30 l 1
 509 298 l 1
 311 298 l 2
 303 298 298 295 290 284 c 0
 261 242 131 57 119 30 c 1
 184 30 l 2
 196 30 198 26 198 14 c 0
 198 -1 196 -6 184 -6 c 0
 161 -6 107 -3 77 -3 c 0
 47 -3 27 -6 4 -6 c 0
 -10 -6 -13 -2 -13 15 c 0xaa40
332 340 m 2
 325 330 330 328 337 328 c 2
 513 328 l 1x28
 533 470 l 2
 538 506 553 607 553 624 c 0
 553 630 549 626 544 620 c 2
 332 340 l 2
EndSplineSet
Position2: "'cpsp' Capital Spacing in Latin lookup 0 subtable" dx=4 dy=0 dh=8 dv=0
EndChar

StartChar: Ccedilla
Encoding: 199 199 135
Width: 686
GlyphClass: 2
Flags: MW
HStem: -220 29<309 344 306.5 365> -103 39<335 392.5> -17 40 640 34<320 440.5 301 447.5>
VStem: 32 96<204 367 204 400.5> 388 60<-157 -135.5> 573 46 608 46
LayerCount: 2
Back
Fore
SplineSet
32 291 m 0xfe
 32 510 204 674 398 674 c 0
 483 674 563 636 608 590 c 1
 611 600 616 628 622 628 c 0
 630 628 654 624 654 614 c 0xfd
 654 607 624 460 619 434 c 0
 617 425 607 427 603 427 c 0
 590 427 577 434 577 441 c 0
 577 446 599 527 600 538 c 1
 593 550 498 640 397 640 c 0
 243 640 128 446 128 288 c 0
 128 120 236 23 367 23 c 0
 469 23 544 84 548 97 c 0
 559 129 567 159 573 181 c 0
 578 196 587 195 600 192 c 0
 609 190 619 186 619 178 c 0
 619 171 607 131 586 61 c 0
 579 39 464 -13 370 -17 c 1
 360 -35 345 -62 343 -66 c 1
 348 -65 362 -64 368 -64 c 0
 417 -64 448 -96 448 -131 c 0
 448 -183 397 -220 333 -220 c 0
 285 -220 255 -198 255 -190 c 0
 255 -187 255 -177 266 -177 c 0
 272 -177 291 -191 322 -191 c 0
 366 -191 388 -177 388 -145 c 0
 388 -126 378 -103 344 -103 c 0
 326 -103 313 -109 308 -109 c 0
 306 -109 298 -105 298 -103 c 0
 298 -101 327 -49 344 -17 c 1
 186 -12 32 69 32 291 c 0xfe
EndSplineSet
Position2: "'cpsp' Capital Spacing in Latin lookup 0 subtable" dx=4 dy=0 dh=8 dv=0
EndChar

StartChar: Egrave
Encoding: 200 200 136
Width: 579
GlyphClass: 2
Flags: MW
HStem: -6 46<488.5 490 484.5 505.5> -3 36<122 183.5> 322 33<215.5 387 223 374> 633 35<96 100.5 92.5 102 92.5 160> 726 124<270 331 270 349>
VStem: 161 50 161 91 250 65<823 823 823 826.5> 409 36<241 241> 421 56 504 37<548.5 552 547 556.5>
LayerCount: 2
Back
Fore
SplineSet
250 818 m 0x09
 250 835 258 850 282 850 c 0
 299 850 308 837 315 823 c 2
 355 738 l 2
 356 736 356 734 356 732 c 0
 356 729 354 726 349 726 c 2
 331 726 l 2
 326 726 324 731 322 733 c 2
 261 793 l 2
 255 799 250 808 250 818 c 0x09
17 15 m 0x3040
 17 29 22 30 38 30 c 2
 78 30 l 1
 84 70 161 550 161 626 c 0
 161 630 160 633 160 633 c 1
 102 633 l 2
 90 633 84 634 84 651 c 0
 84 664 88 668 97 668 c 0
 104 668 178 665 213 665 c 0
 266 665 379 668 422 668 c 0
 491 668 513 670 514 678 c 0
 514 680 515 693 530 693 c 0
 544 693 550 691 550 679 c 0
 550 659 543 632 541 552 c 0
 541 542 536 541 522 541 c 0
 509 541 504 543 504 554 c 0
 504 559 509 617 510 629 c 1
 489 632 353 635 252 635 c 1x3220
 245 615 220 432 212 369 c 0
 211 364 211 360 211 359 c 0
 211 356 210 355 223 355 c 2
 387 355 l 2
 407 355 429 356 431 366 c 2
 442 421 l 2x34
 443 428 454 428 461 428 c 0
 467 428 477 427 477 419 c 0x3040
 477 409 467 369 460 331 c 0
 454 299 446 254 445 241 c 0
 444 233 436 233 429 233 c 2
 425 233 l 2
 418 233 409 234 409 241 c 0x3080
 409 247 421 308 421 311 c 0
 421 318 417 322 374 322 c 2
 223 322 l 2
 208 322 208 322 206 314 c 0
 203 298 172 83 167 39 c 0
 167 36 168 33 171 33 c 0
 196 33 479 40 490 40 c 1xb040
 497 46 513 106 525 135 c 0
 527 141 530 146 542 146 c 0
 550 146 562 141 562 132 c 0
 562 119 541 70 520 7 c 0
 517 -3 511 -6 500 -6 c 0
 477 -6 167 -3 137 -3 c 0
 107 -3 57 -6 34 -6 c 0
 20 -6 17 -2 17 15 c 0x3040
EndSplineSet
Position2: "'cpsp' Capital Spacing in Latin lookup 0 subtable" dx=4 dy=0 dh=8 dv=0
EndChar

StartChar: Eacute
Encoding: 201 201 137
Width: 579
GlyphClass: 2
Flags: MW
HStem: -6 46<488.5 490 484.5 505.5> -3 36<122 183.5> 322 33<215.5 387 223 374> 633 35<96 100.5 92.5 102 92.5 160> 726 124<335.5 450 337 450>
VStem: 161 50 161 91 330 139<729 832.5> 409 36<241 241> 421 56 504 37<548.5 552 547 556.5>
LayerCount: 2
Back
Fore
SplineSet
330 731 m 0x09
 330 735 332 737 333 738 c 2
 400 824 l 2
 411 838 423 850 440 850 c 0
 460 850 469 839 469 826 c 0
 469 812 460 800 450 793 c 2
 367 733 l 2
 364 731 361 726 356 726 c 2
 337 726 l 2
 334 726 330 727 330 731 c 0x09
17 15 m 0x3040
 17 29 22 30 38 30 c 2
 78 30 l 1
 84 70 161 550 161 626 c 0
 161 630 160 633 160 633 c 1
 102 633 l 2
 90 633 84 634 84 651 c 0
 84 664 88 668 97 668 c 0
 104 668 178 665 213 665 c 0
 266 665 379 668 422 668 c 0
 491 668 513 670 514 678 c 0
 514 680 515 693 530 693 c 0
 544 693 550 691 550 679 c 0
 550 659 543 632 541 552 c 0
 541 542 536 541 522 541 c 0
 509 541 504 543 504 554 c 0
 504 559 509 617 510 629 c 1
 489 632 353 635 252 635 c 1x3220
 245 615 220 432 212 369 c 0
 211 364 211 360 211 359 c 0
 211 356 210 355 223 355 c 2
 387 355 l 2
 407 355 429 356 431 366 c 2
 442 421 l 2x34
 443 428 454 428 461 428 c 0
 467 428 477 427 477 419 c 0x3040
 477 409 467 369 460 331 c 0
 454 299 446 254 445 241 c 0
 444 233 436 233 429 233 c 2
 425 233 l 2
 418 233 409 234 409 241 c 0x3080
 409 247 421 308 421 311 c 0
 421 318 417 322 374 322 c 2
 223 322 l 2
 208 322 208 322 206 314 c 0
 203 298 172 83 167 39 c 0
 167 36 168 33 171 33 c 0
 196 33 479 40 490 40 c 1xb040
 497 46 513 106 525 135 c 0
 527 141 530 146 542 146 c 0
 550 146 562 141 562 132 c 0
 562 119 541 70 520 7 c 0
 517 -3 511 -6 500 -6 c 0
 477 -6 167 -3 137 -3 c 0
 107 -3 57 -6 34 -6 c 0
 20 -6 17 -2 17 15 c 0x3040
EndSplineSet
Position2: "'cpsp' Capital Spacing in Latin lookup 0 subtable" dx=4 dy=0 dh=8 dv=0
EndChar

StartChar: Ecircumflex
Encoding: 202 202 138
Width: 579
GlyphClass: 2
Flags: MW
HStem: -6 46<488.5 490 484.5 505.5> -3 36<122 183.5> 322 33<215.5 387 223 374> 633 35<96 100.5 92.5 102 92.5 160> 726 116<239.5 374 241 374 354 430 354 440>
VStem: 161 50 161 91 235 214<728 730.5 728 731.5> 409 36<241 241> 421 56 504 37<548.5 552 547 556.5>
LayerCount: 2
Back
Fore
SplineSet
235 730 m 0x09
 235 733 238 735 241 738 c 2
 332 830 l 2
 342 840 343 842 354 842 c 2
 374 842 l 2
 385 842 387 840 393 830 c 2
 446 738 l 2
 448 735 449 731 449 730 c 0
 449 726 444 726 440 726 c 2
 430 726 l 2
 426 726 423 729 419 733 c 2
 356 785 l 2
 355 786 354 786 352 785 c 2
 267 732 l 2
 262 729 258 726 254 726 c 2
 241 726 l 2
 238 726 235 726 235 730 c 0x09
17 15 m 0x3040
 17 29 22 30 38 30 c 2
 78 30 l 1
 84 70 161 550 161 626 c 0
 161 630 160 633 160 633 c 1
 102 633 l 2
 90 633 84 634 84 651 c 0
 84 664 88 668 97 668 c 0
 104 668 178 665 213 665 c 0
 266 665 379 668 422 668 c 0
 491 668 513 670 514 678 c 0
 514 680 515 693 530 693 c 0
 544 693 550 691 550 679 c 0
 550 659 543 632 541 552 c 0
 541 542 536 541 522 541 c 0
 509 541 504 543 504 554 c 0
 504 559 509 617 510 629 c 1
 489 632 353 635 252 635 c 1x3220
 245 615 220 432 212 369 c 0
 211 364 211 360 211 359 c 0
 211 356 210 355 223 355 c 2
 387 355 l 2
 407 355 429 356 431 366 c 2
 442 421 l 2x34
 443 428 454 428 461 428 c 0
 467 428 477 427 477 419 c 0x3040
 477 409 467 369 460 331 c 0
 454 299 446 254 445 241 c 0
 444 233 436 233 429 233 c 2
 425 233 l 2
 418 233 409 234 409 241 c 0x3080
 409 247 421 308 421 311 c 0
 421 318 417 322 374 322 c 2
 223 322 l 2
 208 322 208 322 206 314 c 0
 203 298 172 83 167 39 c 0
 167 36 168 33 171 33 c 0
 196 33 479 40 490 40 c 1xb040
 497 46 513 106 525 135 c 0
 527 141 530 146 542 146 c 0
 550 146 562 141 562 132 c 0
 562 119 541 70 520 7 c 0
 517 -3 511 -6 500 -6 c 0
 477 -6 167 -3 137 -3 c 0
 107 -3 57 -6 34 -6 c 0
 20 -6 17 -2 17 15 c 0x3040
EndSplineSet
Position2: "'cpsp' Capital Spacing in Latin lookup 0 subtable" dx=4 dy=0 dh=8 dv=0
EndChar

StartChar: Edieresis
Encoding: 203 203 139
Width: 579
GlyphClass: 2
Flags: MW
HStem: -6 46<488.5 490 484.5 505.5> -3 36<122 183.5> 322 33<215.5 387 223 374> 633 35<96 100.5 92.5 102 92.5 160> 734 100<269.5 297.5 268 298 409.5 437.5>
VStem: 161 50 161 91 238 91<774 794 769.5 798.5> 378 91<774 794 769.5 798.5> 409 36<241 241> 421 56 504 37<548.5 552 547 556.5>
LayerCount: 2
Back
Fore
SplineSet
238 785 m 0x0980
 238 812 254 834 282 834 c 0
 313 834 329 805 329 783 c 0
 329 756 311 734 285 734 c 0
 254 734 238 763 238 785 c 0x0980
378 785 m 0
 378 812 394 834 422 834 c 0
 453 834 469 805 469 783 c 0
 469 756 451 734 425 734 c 0
 394 734 378 763 378 785 c 0
17 15 m 0x3020
 17 29 22 30 38 30 c 2
 78 30 l 1
 84 70 161 550 161 626 c 0
 161 630 160 633 160 633 c 1
 102 633 l 2
 90 633 84 634 84 651 c 0
 84 664 88 668 97 668 c 0
 104 668 178 665 213 665 c 0
 266 665 379 668 422 668 c 0
 491 668 513 670 514 678 c 0
 514 680 515 693 530 693 c 0
 544 693 550 691 550 679 c 0
 550 659 543 632 541 552 c 0
 541 542 536 541 522 541 c 0
 509 541 504 543 504 554 c 0
 504 559 509 617 510 629 c 1
 489 632 353 635 252 635 c 1x3210
 245 615 220 432 212 369 c 0
 211 364 211 360 211 359 c 0
 211 356 210 355 223 355 c 2
 387 355 l 2
 407 355 429 356 431 366 c 2
 442 421 l 2x34
 443 428 454 428 461 428 c 0
 467 428 477 427 477 419 c 0x3020
 477 409 467 369 460 331 c 0
 454 299 446 254 445 241 c 0
 444 233 436 233 429 233 c 2
 425 233 l 2
 418 233 409 234 409 241 c 0x3040
 409 247 421 308 421 311 c 0
 421 318 417 322 374 322 c 2
 223 322 l 2
 208 322 208 322 206 314 c 0
 203 298 172 83 167 39 c 0
 167 36 168 33 171 33 c 0
 196 33 479 40 490 40 c 1xb020
 497 46 513 106 525 135 c 0
 527 141 530 146 542 146 c 0
 550 146 562 141 562 132 c 0
 562 119 541 70 520 7 c 0
 517 -3 511 -6 500 -6 c 0
 477 -6 167 -3 137 -3 c 0
 107 -3 57 -6 34 -6 c 0
 20 -6 17 -2 17 15 c 0x3020
EndSplineSet
Position2: "'cpsp' Capital Spacing in Latin lookup 0 subtable" dx=4 dy=0 dh=8 dv=0
EndChar

StartChar: Igrave
Encoding: 204 204 140
Width: 377
GlyphClass: 2
Flags: MW
HStem: -3 33 636 36<110.5 111 111 125 110.5 178 331.5 339> 726 124<168 229 168 247>
VStem: 148 65<823 823 823 826.5>
LayerCount: 2
Back
Fore
SplineSet
148 818 m 0
 148 835 156 850 180 850 c 0
 197 850 206 837 213 823 c 2
 253 738 l 2
 254 736 254 734 254 732 c 0
 254 729 252 726 247 726 c 2
 229 726 l 2
 224 726 222 731 220 733 c 2
 159 793 l 2
 153 799 148 808 148 818 c 0
17 15 m 0
 17 29 22 30 38 30 c 2
 96 30 l 1
 108 66 184 575 184 623 c 0
 184 633 182 636 178 636 c 2
 111 636 l 2
 103 636 97 639 97 654 c 0
 97 671 104 672 117 672 c 0
 133 672 204 669 234 669 c 0
 264 669 320 672 343 672 c 0
 357 672 360 668 360 651 c 0
 360 637 355 636 339 636 c 2
 283 636 l 1
 268 604 197 97 197 40 c 0
 197 32 199 30 202 30 c 2
 268 30 l 2
 280 30 282 26 282 14 c 0
 282 -1 280 -6 268 -6 c 0
 245 -6 177 -3 147 -3 c 0
 117 -3 57 -6 34 -6 c 0
 20 -6 17 -2 17 15 c 0
EndSplineSet
Position2: "'cpsp' Capital Spacing in Latin lookup 0 subtable" dx=4 dy=0 dh=8 dv=0
EndChar

StartChar: Iacute
Encoding: 205 205 141
Width: 377
GlyphClass: 2
Flags: MW
HStem: -3 33 636 36<110.5 111 111 125 110.5 178 331.5 339> 726 124<233.5 348 235 348>
VStem: 228 139<729 832.5>
LayerCount: 2
Back
Fore
SplineSet
228 731 m 0
 228 735 230 737 231 738 c 2
 298 824 l 2
 309 838 321 850 338 850 c 0
 358 850 367 839 367 826 c 0
 367 812 358 800 348 793 c 2
 265 733 l 2
 262 731 259 726 254 726 c 2
 235 726 l 2
 232 726 228 727 228 731 c 0
17 15 m 0
 17 29 22 30 38 30 c 2
 96 30 l 1
 108 66 184 575 184 623 c 0
 184 633 182 636 178 636 c 2
 111 636 l 2
 103 636 97 639 97 654 c 0
 97 671 104 672 117 672 c 0
 133 672 204 669 234 669 c 0
 264 669 320 672 343 672 c 0
 357 672 360 668 360 651 c 0
 360 637 355 636 339 636 c 2
 283 636 l 1
 268 604 197 97 197 40 c 0
 197 32 199 30 202 30 c 2
 268 30 l 2
 280 30 282 26 282 14 c 0
 282 -1 280 -6 268 -6 c 0
 245 -6 177 -3 147 -3 c 0
 117 -3 57 -6 34 -6 c 0
 20 -6 17 -2 17 15 c 0
EndSplineSet
Position2: "'cpsp' Capital Spacing in Latin lookup 0 subtable" dx=4 dy=0 dh=8 dv=0
EndChar

StartChar: Icircumflex
Encoding: 206 206 142
Width: 377
GlyphClass: 2
Flags: MW
HStem: -3 33 636 36<110.5 111 111 125 110.5 178 331.5 339> 726 116<137.5 272 139 272 252 328 252 338>
VStem: 133 214<728 730.5 728 731.5>
LayerCount: 2
Back
Fore
SplineSet
133 730 m 0
 133 733 136 735 139 738 c 2
 230 830 l 2
 240 840 241 842 252 842 c 2
 272 842 l 2
 283 842 285 840 291 830 c 2
 344 738 l 2
 346 735 347 731 347 730 c 0
 347 726 342 726 338 726 c 2
 328 726 l 2
 324 726 321 729 317 733 c 2
 254 785 l 2
 253 786 252 786 250 785 c 2
 165 732 l 2
 160 729 156 726 152 726 c 2
 139 726 l 2
 136 726 133 726 133 730 c 0
17 15 m 0
 17 29 22 30 38 30 c 2
 96 30 l 1
 108 66 184 575 184 623 c 0
 184 633 182 636 178 636 c 2
 111 636 l 2
 103 636 97 639 97 654 c 0
 97 671 104 672 117 672 c 0
 133 672 204 669 234 669 c 0
 264 669 320 672 343 672 c 0
 357 672 360 668 360 651 c 0
 360 637 355 636 339 636 c 2
 283 636 l 1
 268 604 197 97 197 40 c 0
 197 32 199 30 202 30 c 2
 268 30 l 2
 280 30 282 26 282 14 c 0
 282 -1 280 -6 268 -6 c 0
 245 -6 177 -3 147 -3 c 0
 117 -3 57 -6 34 -6 c 0
 20 -6 17 -2 17 15 c 0
EndSplineSet
Position2: "'cpsp' Capital Spacing in Latin lookup 0 subtable" dx=4 dy=0 dh=8 dv=0
EndChar

StartChar: Idieresis
Encoding: 207 207 143
Width: 377
GlyphClass: 2
Flags: MW
HStem: -3 33 636 36<110.5 111 111 125 110.5 178 331.5 339> 734 100<167.5 195.5 166 196 307.5 335.5>
VStem: 136 91<774 794 769.5 798.5> 276 91<774 794 769.5 798.5>
LayerCount: 2
Back
Fore
SplineSet
136 785 m 0
 136 812 152 834 180 834 c 0
 211 834 227 805 227 783 c 0
 227 756 209 734 183 734 c 0
 152 734 136 763 136 785 c 0
276 785 m 0
 276 812 292 834 320 834 c 0
 351 834 367 805 367 783 c 0
 367 756 349 734 323 734 c 0
 292 734 276 763 276 785 c 0
17 15 m 0
 17 29 22 30 38 30 c 2
 96 30 l 1
 108 66 184 575 184 623 c 0
 184 633 182 636 178 636 c 2
 111 636 l 2
 103 636 97 639 97 654 c 0
 97 671 104 672 117 672 c 0
 133 672 204 669 234 669 c 0
 264 669 320 672 343 672 c 0
 357 672 360 668 360 651 c 0
 360 637 355 636 339 636 c 2
 283 636 l 1
 268 604 197 97 197 40 c 0
 197 32 199 30 202 30 c 2
 268 30 l 2
 280 30 282 26 282 14 c 0
 282 -1 280 -6 268 -6 c 0
 245 -6 177 -3 147 -3 c 0
 117 -3 57 -6 34 -6 c 0
 20 -6 17 -2 17 15 c 0
EndSplineSet
Position2: "'cpsp' Capital Spacing in Latin lookup 0 subtable" dx=4 dy=0 dh=8 dv=0
EndChar

StartChar: Eth
Encoding: 208 208 144
Width: 742
GlyphClass: 2
Flags: MW
HStem: -7 35<23.5 77 309 405.5> 318 30<46.5 117 49 114 222 418> 632 34<327 418.5>
VStem: 611 94<317 442.5>
LayerCount: 2
Back
Fore
SplineSet
16 10 m 0
 16 27 23 28 36 28 c 2
 77 28 l 1
 83 46 103 176 122 309 c 0
 123 318 122 318 114 318 c 2
 49 318 l 2
 44 318 44 326 44 331 c 2
 44 337 l 2
 44 342 44 348 49 348 c 2
 117 348 l 2
 127 348 127 348 128 357 c 0
 131 381 164 613 164 632 c 2
 164 633 l 2
 162 633 93 631 93 631 c 2
 84 631 77 632 77 646 c 0
 77 658 78 665 93 665 c 0
 97 665 178 664 212 664 c 0
 272 664 310 666 344 666 c 0
 552 666 705 572 705 335 c 0
 705 110 537 -7 341 -7 c 0
 277 -7 188 -3 127 -3 c 0
 99 -3 41 -7 30 -7 c 0
 17 -7 16 -2 16 10 c 0
174 46 m 0
 174 37 177 32 179 31 c 0
 183 28 216 28 236 28 c 0
 575 28 611 269 611 365 c 0
 611 520 521 632 316 632 c 0
 297 632 257 631 256 628 c 0
 254 624 216 362 215 357 c 0
 214 350 215 348 222 348 c 2
 418 348 l 2
 422 348 422 337 422 333 c 0
 422 329 422 318 418 318 c 2
 218 318 l 2
 211 318 209 316 208 308 c 0
 190 184 174 66 174 46 c 0
EndSplineSet
Position2: "'cpsp' Capital Spacing in Latin lookup 0 subtable" dx=4 dy=0 dh=8 dv=0
EndChar

StartChar: Ntilde
Encoding: 209 209 145
Width: 824
GlyphClass: 2
Flags: MW
HStem: -24 21 -3 33<38 136> 636 36<93 99 99 106 93 159 611 617 617 625.5 783 786> 740 49<508.5 516> 775 50<431.5 436.5>
VStem: 363 219<743 827.5> 692 54<627 636 636 636>
LayerCount: 2
Back
Fore
SplineSet
363 744 m 0x10
 363 750 371 766 374 771 c 0
 395 807 423 825 440 825 c 0x08
 472 825 497 789 520 789 c 0
 539 789 550 806 557 820 c 0
 561 828 559 829 568 829 c 2
 581 829 l 2
 582 829 582 828 582 827 c 0
 582 817 576 806 572 797 c 0
 555 765 530 740 502 740 c 0x10
 466 740 451 775 422 775 c 0x08
 403 775 394 761 387 748 c 0
 384 741 385 740 377 740 c 2
 366 740 l 2
 364 740 363 742 363 744 c 0x10
17 15 m 0x22
 17 29 22 30 38 30 c 2
 85 30 l 1x22
 113 203 144 373 174 541 c 0
 178 561 185 597 185 614 c 0
 185 617 184 618 180 625 c 0
 175 635 173 636 159 636 c 2
 99 636 l 2
 87 636 87 640 87 652 c 0
 87 667 87 672 99 672 c 0
 113 672 192 669 213 669 c 0
 235 669 251 672 258 672 c 0
 270 672 274 669 281 658 c 2
 609 159 l 2
 616 149 621 148 622 148 c 0
 634 179 692 570 692 627 c 2
 692 636 l 1
 617 636 l 2
 605 636 603 640 603 652 c 0
 603 667 605 672 617 672 c 0
 634 672 669 669 706 669 c 0
 748 669 776 672 790 672 c 0
 804 672 807 668 807 651 c 0
 807 637 802 636 786 636 c 2
 746 636 l 1
 737 607 688 304 667 172 c 0
 663 147 658 120 650 2 c 0
 649 -17 646 -24 632 -24 c 0xa2
 619 -24 610 -5 601 9 c 0
 556 82 527 126 484 189 c 2
 228 563 l 2
 219 575 214 583 212 566 c 0
 210 552 142 128 142 42 c 0
 142 35 143 31 143 30 c 2
 227 30 l 2
 239 30 241 26 241 14 c 0
 241 -1 239 -6 227 -6 c 0x22
 204 -6 151 -3 121 -3 c 0xa2
 91 -3 42 -6 34 -6 c 0
 20 -6 17 -2 17 15 c 0x22
EndSplineSet
Position2: "'cpsp' Capital Spacing in Latin lookup 0 subtable" dx=4 dy=0 dh=8 dv=0
EndChar

StartChar: Ograve
Encoding: 210 210 146
Width: 734
GlyphClass: 2
Flags: MW
HStem: -25 30<273 428.5 273 436.5> 642 34<338.5 480.5> 726 124<357 418 357 436>
VStem: 32 98<217 374 217 400.5> 337 65<823 823 823 826.5> 605 97<293 428.5>
LayerCount: 2
Back
Fore
SplineSet
337 818 m 0
 337 835 345 850 369 850 c 0
 386 850 395 837 402 823 c 2
 442 738 l 2
 443 736 443 734 443 732 c 0
 443 729 441 726 436 726 c 2
 418 726 l 2
 413 726 411 731 409 733 c 2
 348 793 l 2
 342 799 337 808 337 818 c 0
32 280 m 0
 32 521 224 676 407 676 c 0
 590 676 702 543 702 348 c 0
 702 146 539 -25 334 -25 c 0
 173 -25 32 64 32 280 c 0
130 286 m 0
 130 148 195 5 351 5 c 0
 506 5 605 213 605 373 c 0
 605 484 551 642 410 642 c 0
 267 642 130 462 130 286 c 0
EndSplineSet
Position2: "'cpsp' Capital Spacing in Latin lookup 0 subtable" dx=4 dy=0 dh=8 dv=0
EndChar

StartChar: Oacute
Encoding: 211 211 147
Width: 734
GlyphClass: 2
Flags: MW
HStem: -25 30<273 428.5 273 436.5> 642 34<338.5 480.5> 726 124<422.5 537 424 537>
VStem: 32 98<217 374 217 400.5> 417 139<729 832.5> 605 97<293 428.5>
LayerCount: 2
Back
Fore
SplineSet
417 731 m 0
 417 735 419 737 420 738 c 2
 487 824 l 2
 498 838 510 850 527 850 c 0
 547 850 556 839 556 826 c 0
 556 812 547 800 537 793 c 2
 454 733 l 2
 451 731 448 726 443 726 c 2
 424 726 l 2
 421 726 417 727 417 731 c 0
32 280 m 0
 32 521 224 676 407 676 c 0
 590 676 702 543 702 348 c 0
 702 146 539 -25 334 -25 c 0
 173 -25 32 64 32 280 c 0
130 286 m 0
 130 148 195 5 351 5 c 0
 506 5 605 213 605 373 c 0
 605 484 551 642 410 642 c 0
 267 642 130 462 130 286 c 0
EndSplineSet
Position2: "'cpsp' Capital Spacing in Latin lookup 0 subtable" dx=4 dy=0 dh=8 dv=0
EndChar

StartChar: Ocircumflex
Encoding: 212 212 148
Width: 734
GlyphClass: 2
Flags: MW
HStem: -25 30<273 428.5 273 436.5> 642 34<338.5 480.5> 726 116<326.5 461 328 461 441 517 441 527>
VStem: 32 98<217 374 217 400.5> 322 214<728 730.5 728 731.5> 605 97<293 428.5>
LayerCount: 2
Back
Fore
SplineSet
322 730 m 0
 322 733 325 735 328 738 c 2
 419 830 l 2
 429 840 430 842 441 842 c 2
 461 842 l 2
 472 842 474 840 480 830 c 2
 533 738 l 2
 535 735 536 731 536 730 c 0
 536 726 531 726 527 726 c 2
 517 726 l 2
 513 726 510 729 506 733 c 2
 443 785 l 2
 442 786 441 786 439 785 c 2
 354 732 l 2
 349 729 345 726 341 726 c 2
 328 726 l 2
 325 726 322 726 322 730 c 0
32 280 m 0
 32 521 224 676 407 676 c 0
 590 676 702 543 702 348 c 0
 702 146 539 -25 334 -25 c 0
 173 -25 32 64 32 280 c 0
130 286 m 0
 130 148 195 5 351 5 c 0
 506 5 605 213 605 373 c 0
 605 484 551 642 410 642 c 0
 267 642 130 462 130 286 c 0
EndSplineSet
Position2: "'cpsp' Capital Spacing in Latin lookup 0 subtable" dx=4 dy=0 dh=8 dv=0
EndChar

StartChar: Otilde
Encoding: 213 213 149
Width: 734
GlyphClass: 2
Flags: MW
HStem: -25 30<273 428.5 273 436.5> 642 34<338.5 480.5> 740 49<473.5 481> 775 50<396.5 401.5>
VStem: 32 98<217 374 217 400.5> 328 219<743 827.5> 605 97<293 428.5>
LayerCount: 2
Back
Fore
SplineSet
328 744 m 0x20
 328 750 336 766 339 771 c 0
 360 807 388 825 405 825 c 0x10
 437 825 462 789 485 789 c 0
 504 789 515 806 522 820 c 0
 526 828 524 829 533 829 c 2
 546 829 l 2
 547 829 547 828 547 827 c 0
 547 817 541 806 537 797 c 0
 520 765 495 740 467 740 c 0x20
 431 740 416 775 387 775 c 0x10
 368 775 359 761 352 748 c 0
 349 741 350 740 342 740 c 2
 331 740 l 2
 329 740 328 742 328 744 c 0x20
32 280 m 0xca
 32 521 224 676 407 676 c 0
 590 676 702 543 702 348 c 0
 702 146 539 -25 334 -25 c 0
 173 -25 32 64 32 280 c 0xca
130 286 m 0
 130 148 195 5 351 5 c 0
 506 5 605 213 605 373 c 0
 605 484 551 642 410 642 c 0
 267 642 130 462 130 286 c 0
EndSplineSet
Position2: "'cpsp' Capital Spacing in Latin lookup 0 subtable" dx=4 dy=0 dh=8 dv=0
EndChar

StartChar: Odieresis
Encoding: 214 214 150
Width: 734
GlyphClass: 2
Flags: MW
HStem: -25 30<273 428.5 273 436.5> 642 34<338.5 480.5> 734 100<356.5 384.5 355 385 496.5 524.5>
VStem: 32 98<217 374 217 400.5> 325 91<774 794 769.5 798.5> 465 91<774 794 769.5 798.5> 605 97<293 428.5>
LayerCount: 2
Back
Fore
SplineSet
325 785 m 0
 325 812 341 834 369 834 c 0
 400 834 416 805 416 783 c 0
 416 756 398 734 372 734 c 0
 341 734 325 763 325 785 c 0
465 785 m 0
 465 812 481 834 509 834 c 0
 540 834 556 805 556 783 c 0
 556 756 538 734 512 734 c 0
 481 734 465 763 465 785 c 0
32 280 m 0
 32 521 224 676 407 676 c 0
 590 676 702 543 702 348 c 0
 702 146 539 -25 334 -25 c 0
 173 -25 32 64 32 280 c 0
130 286 m 0
 130 148 195 5 351 5 c 0
 506 5 605 213 605 373 c 0
 605 484 551 642 410 642 c 0
 267 642 130 462 130 286 c 0
EndSplineSet
Position2: "'cpsp' Capital Spacing in Latin lookup 0 subtable" dx=4 dy=0 dh=8 dv=0
EndChar

StartChar: multiply
Encoding: 215 215 151
Width: 527
GlyphClass: 2
Flags: MW
HStem: 367 20G<110.5 118.5>
LayerCount: 2
Back
Fore
SplineSet
85 358 m 0
 85 367 105 387 116 387 c 0
 121 387 127 383 132 378 c 2
 248 263 l 2
 256 255 265 247 274 256 c 2
 399 381 l 2
 403 385 409 388 413 388 c 0
 421 388 441 370 441 358 c 0
 441 353 437 348 431 342 c 2
 310 221 l 2
 300 211 301 209 310 200 c 2
 434 76 l 2
 439 71 441 66 441 62 c 0
 441 52 421 32 412 32 c 0
 408 32 402 35 397 40 c 2
 274 164 l 2
 263 175 260 171 249 160 c 2
 129 40 l 2
 124 35 119 32 115 32 c 0
 106 32 86 51 86 61 c 0
 86 66 90 71 95 76 c 2
 215 197 l 2
 225 207 226 212 217 221 c 2
 93 345 l 2
 89 349 85 353 85 358 c 0
EndSplineSet
EndChar

StartChar: Oslash
Encoding: 216 216 152
Width: 734
GlyphClass: 2
Flags: MW
HStem: -25 30<326.5 428.5 326.5 436.5> 642 34<338.5 428>
VStem: 32 98<247.5 374 247.5 400.5> 605 97<293 406.5>
LayerCount: 2
Back
Fore
SplineSet
32 280 m 0
 32 521 224 676 407 676 c 0
 453 676 494 667 531 652 c 0
 537 649 538 651 540 655 c 2
 580 724 l 2
 581 725 582 726 585 726 c 0
 589 726 593 724 597 721 c 0
 601 719 609 713 606 708 c 2
 567 643 l 2
 564 637 564 636 568 632 c 0
 653 577 702 477 702 348 c 0
 702 146 539 -25 334 -25 c 0
 289 -25 246 -18 207 -4 c 0
 199 -1 197 1 193 -6 c 2
 164 -55 l 2
 163 -56 162 -58 159 -58 c 0
 151 -58 134 -47 137 -42 c 2
 163 3 l 2
 168 12 169 14 160 19 c 0
 83 67 32 149 32 280 c 0
130 286 m 0
 130 209 150 131 195 77 c 0
 199 72 202 69 207 78 c 0
 209 82 503 592 506 596 c 0
 509 601 510 603 510 606 c 0
 510 609 508 611 503 614 c 0
 478 632 446 642 410 642 c 0
 267 642 130 462 130 286 c 0
230 43 m 0
 262 19 302 5 351 5 c 0
 506 5 605 213 605 373 c 0
 605 440 585 525 538 581 c 0
 535 584 532 582 530 578 c 2
 230 59 l 2
 226 51 223 49 230 43 c 0
EndSplineSet
Position2: "'cpsp' Capital Spacing in Latin lookup 0 subtable" dx=4 dy=0 dh=8 dv=0
EndChar

StartChar: Ugrave
Encoding: 217 217 153
Width: 759
GlyphClass: 2
Flags: MW
HStem: -10 53<309.5 312> 631 36<70 76 76 84 69.5 139 260.5 268 531 537 537 545 720 721> 726 124<345 406 345 424>
VStem: 73 89<111.5 194.5> 325 65<823 823 823 826.5> 534 41
LayerCount: 2
Back
Fore
SplineSet
325 818 m 0
 325 835 333 850 357 850 c 0
 374 850 383 837 390 823 c 2
 430 738 l 2
 431 736 431 734 431 732 c 0
 431 729 429 726 424 726 c 2
 406 726 l 2
 401 726 399 731 397 733 c 2
 336 793 l 2
 330 799 325 808 325 818 c 0
57 649 m 0
 57 666 63 667 76 667 c 0
 92 667 140 664 170 664 c 0
 200 664 249 667 272 667 c 0
 286 667 287 663 287 646 c 0
 287 632 284 631 268 631 c 2
 235 631 l 1
 222 605 162 246 162 176 c 0
 162 47 297 43 322 43 c 0
 382 43 451 72 485 94 c 0
 499 104 515 123 523 152 c 0
 533 192 544 252 555 315 c 0
 576 437 595 545 603 631 c 1
 537 631 l 2
 525 631 516 632 516 649 c 0
 516 666 524 667 537 667 c 0
 553 667 613 664 643 664 c 0
 673 664 715 667 725 667 c 0
 739 667 742 663 742 646 c 0
 742 632 737 631 721 631 c 2
 691 631 l 1
 683 593 677 554 670 515 c 0
 641 338 609 140 575 25 c 0
 569 3 562 -2 553 -2 c 0
 540 -2 535 1 534 12 c 0
 529 58 529 76 524 76 c 0
 521 76 503 65 480 52 c 0
 438 29 356 -10 268 -10 c 0
 162 -10 73 49 73 151 c 0
 73 238 139 570 139 629 c 2
 139 631 l 1
 76 631 l 2
 64 631 57 632 57 649 c 0
EndSplineSet
Position2: "'cpsp' Capital Spacing in Latin lookup 0 subtable" dx=4 dy=0 dh=8 dv=0
EndChar

StartChar: Uacute
Encoding: 218 218 154
Width: 759
GlyphClass: 2
Flags: MW
HStem: -10 53<309.5 312> 631 36<70 76 76 84 69.5 139 260.5 268 531 537 537 545 720 721> 726 124<410.5 525 412 525>
VStem: 73 89<111.5 194.5> 405 139<729 832.5> 534 41
LayerCount: 2
Back
Fore
SplineSet
405 731 m 0x28
 405 735 407 737 408 738 c 2
 475 824 l 2
 486 838 498 850 515 850 c 0
 535 850 544 839 544 826 c 0
 544 812 535 800 525 793 c 2
 442 733 l 2
 439 731 436 726 431 726 c 2
 412 726 l 2
 409 726 405 727 405 731 c 0x28
57 649 m 0xd4
 57 666 63 667 76 667 c 0
 92 667 140 664 170 664 c 0
 200 664 249 667 272 667 c 0
 286 667 287 663 287 646 c 0
 287 632 284 631 268 631 c 2
 235 631 l 1
 222 605 162 246 162 176 c 0
 162 47 297 43 322 43 c 0
 382 43 451 72 485 94 c 0
 499 104 515 123 523 152 c 0
 533 192 544 252 555 315 c 0
 576 437 595 545 603 631 c 1
 537 631 l 2
 525 631 516 632 516 649 c 0
 516 666 524 667 537 667 c 0
 553 667 613 664 643 664 c 0
 673 664 715 667 725 667 c 0
 739 667 742 663 742 646 c 0
 742 632 737 631 721 631 c 2
 691 631 l 1
 683 593 677 554 670 515 c 0
 641 338 609 140 575 25 c 0
 569 3 562 -2 553 -2 c 0
 540 -2 535 1 534 12 c 0
 529 58 529 76 524 76 c 0
 521 76 503 65 480 52 c 0
 438 29 356 -10 268 -10 c 0
 162 -10 73 49 73 151 c 0
 73 238 139 570 139 629 c 2
 139 631 l 1
 76 631 l 2
 64 631 57 632 57 649 c 0xd4
EndSplineSet
Position2: "'cpsp' Capital Spacing in Latin lookup 0 subtable" dx=4 dy=0 dh=8 dv=0
EndChar

StartChar: Ucircumflex
Encoding: 219 219 155
Width: 759
GlyphClass: 2
Flags: MW
HStem: -10 53<309.5 312> 631 36<70 76 76 84 69.5 139 260.5 268 531 537 537 545 720 721> 726 116<314.5 449 316 449 429 505 429 515>
VStem: 73 89<111.5 194.5> 310 214<728 730.5 728 731.5> 534 41
LayerCount: 2
Back
Fore
SplineSet
310 730 m 0
 310 733 313 735 316 738 c 2
 407 830 l 2
 417 840 418 842 429 842 c 2
 449 842 l 2
 460 842 462 840 468 830 c 2
 521 738 l 2
 523 735 524 731 524 730 c 0
 524 726 519 726 515 726 c 2
 505 726 l 2
 501 726 498 729 494 733 c 2
 431 785 l 2
 430 786 429 786 427 785 c 2
 342 732 l 2
 337 729 333 726 329 726 c 2
 316 726 l 2
 313 726 310 726 310 730 c 0
57 649 m 0
 57 666 63 667 76 667 c 0
 92 667 140 664 170 664 c 0
 200 664 249 667 272 667 c 0
 286 667 287 663 287 646 c 0
 287 632 284 631 268 631 c 2
 235 631 l 1
 222 605 162 246 162 176 c 0
 162 47 297 43 322 43 c 0
 382 43 451 72 485 94 c 0
 499 104 515 123 523 152 c 0
 533 192 544 252 555 315 c 0
 576 437 595 545 603 631 c 1
 537 631 l 2
 525 631 516 632 516 649 c 0
 516 666 524 667 537 667 c 0
 553 667 613 664 643 664 c 0
 673 664 715 667 725 667 c 0
 739 667 742 663 742 646 c 0
 742 632 737 631 721 631 c 2
 691 631 l 1
 683 593 677 554 670 515 c 0
 641 338 609 140 575 25 c 0
 569 3 562 -2 553 -2 c 0
 540 -2 535 1 534 12 c 0
 529 58 529 76 524 76 c 0
 521 76 503 65 480 52 c 0
 438 29 356 -10 268 -10 c 0
 162 -10 73 49 73 151 c 0
 73 238 139 570 139 629 c 2
 139 631 l 1
 76 631 l 2
 64 631 57 632 57 649 c 0
EndSplineSet
Position2: "'cpsp' Capital Spacing in Latin lookup 0 subtable" dx=4 dy=0 dh=8 dv=0
EndChar

StartChar: Udieresis
Encoding: 220 220 156
Width: 759
GlyphClass: 2
Flags: MW
HStem: -10 53<309.5 312> 631 36<70 76 76 84 69.5 139 260.5 268 531 537 537 545 720 721> 734 100<344.5 372.5 343 373 484.5 512.5>
VStem: 73 89<111.5 194.5> 313 91<774 794 769.5 798.5> 453 91<774 794 769.5 798.5> 534 41
LayerCount: 2
Back
Fore
SplineSet
313 785 m 0x2c
 313 812 329 834 357 834 c 0
 388 834 404 805 404 783 c 0
 404 756 386 734 360 734 c 0
 329 734 313 763 313 785 c 0x2c
453 785 m 0
 453 812 469 834 497 834 c 0
 528 834 544 805 544 783 c 0
 544 756 526 734 500 734 c 0
 469 734 453 763 453 785 c 0
57 649 m 0xd2
 57 666 63 667 76 667 c 0
 92 667 140 664 170 664 c 0
 200 664 249 667 272 667 c 0
 286 667 287 663 287 646 c 0
 287 632 284 631 268 631 c 2
 235 631 l 1
 222 605 162 246 162 176 c 0
 162 47 297 43 322 43 c 0
 382 43 451 72 485 94 c 0
 499 104 515 123 523 152 c 0
 533 192 544 252 555 315 c 0
 576 437 595 545 603 631 c 1
 537 631 l 2
 525 631 516 632 516 649 c 0
 516 666 524 667 537 667 c 0
 553 667 613 664 643 664 c 0
 673 664 715 667 725 667 c 0
 739 667 742 663 742 646 c 0
 742 632 737 631 721 631 c 2
 691 631 l 1
 683 593 677 554 670 515 c 0
 641 338 609 140 575 25 c 0
 569 3 562 -2 553 -2 c 0
 540 -2 535 1 534 12 c 0
 529 58 529 76 524 76 c 0
 521 76 503 65 480 52 c 0
 438 29 356 -10 268 -10 c 0
 162 -10 73 49 73 151 c 0
 73 238 139 570 139 629 c 2
 139 631 l 1
 76 631 l 2
 64 631 57 632 57 649 c 0xd2
EndSplineSet
Position2: "'cpsp' Capital Spacing in Latin lookup 0 subtable" dx=4 dy=0 dh=8 dv=0
EndChar

StartChar: Yacute
Encoding: 221 221 157
Width: 613
GlyphClass: 2
Flags: MW
HStem: -3 33 636 36<32 38 38 46 31.5 83 216.5 224 421 429 429 436.5 572 580> 726 124<324.5 439 326 439>
VStem: 319 139<729 832.5>
LayerCount: 2
Back
Fore
SplineSet
319 731 m 0
 319 735 321 737 322 738 c 2
 389 824 l 2
 400 838 412 850 429 850 c 0
 449 850 458 839 458 826 c 0
 458 812 449 800 439 793 c 2
 356 733 l 2
 353 731 350 726 345 726 c 2
 326 726 l 2
 323 726 319 727 319 731 c 0
17 654 m 0
 17 671 25 672 38 672 c 0
 54 672 109 669 139 669 c 0
 169 669 205 672 228 672 c 0
 242 672 244 668 244 651 c 0
 244 637 240 636 224 636 c 2
 184 636 l 2
 184 634 186 630 187 625 c 0
 203 572 262 429 290 360 c 0
 296 346 299 352 308 366 c 0
 355 437 479 615 479 636 c 1
 429 636 l 2
 413 636 408 637 408 651 c 0
 408 668 411 672 425 672 c 0
 448 672 473 669 503 669 c 0
 533 669 564 672 580 672 c 0
 593 672 596 670 596 654 c 0
 596 637 592 636 580 636 c 2
 542 636 l 1
 527 621 376 415 321 331 c 0
 317 324 315 318 313 309 c 2
 279 104 l 2
 273 67 269 42 269 33 c 0
 269 31 269 30 270 30 c 2
 334 30 l 2
 346 30 348 26 348 14 c 0
 348 -1 346 -6 334 -6 c 0
 311 -6 259 -3 229 -3 c 0
 199 -3 156 -6 133 -6 c 0
 119 -6 118 0 118 13 c 0
 118 26 120 30 137 30 c 2
 181 30 l 1
 186 36 194 89 223 261 c 0
 228 288 228 297 228 301 c 0
 228 305 94 612 83 636 c 1
 38 636 l 2
 26 636 17 637 17 654 c 0
EndSplineSet
Position2: "'cpsp' Capital Spacing in Latin lookup 0 subtable" dx=4 dy=0 dh=8 dv=0
EndChar

StartChar: Thorn
Encoding: 222 222 158
Width: 566
GlyphClass: 2
Flags: MW
HStem: -3 33 153 27<278.5 288.5 224 350> 494 26 636 36<102.5 104 104 117 102.5 172 327.5 335>
VStem: 456 83<284.5 392.5>
LayerCount: 2
Back
Fore
SplineSet
11 15 m 0
 11 29 15 30 31 30 c 2
 90 30 l 1
 102 66 178 575 178 623 c 0
 178 633 176 636 172 636 c 2
 104 636 l 2
 96 636 91 639 91 654 c 0
 91 671 96 672 109 672 c 0
 125 672 198 669 228 669 c 0
 258 669 316 672 339 672 c 0
 353 672 354 668 354 651 c 0
 354 637 351 636 335 636 c 2
 277 636 l 1
 273 628 267 587 257 532 c 0
 256 528 256 526 256 524 c 0
 256 520 256 520 260 520 c 0
 266 520 283 524 326 524 c 0
 463 524 539 450 539 350 c 0
 539 196 408 153 292 153 c 0
 265 153 226 155 216 155 c 0
 205 155 202 155 200 141 c 0
 193 99 185 47 185 32 c 2
 185 30 l 1
 262 30 l 2
 274 30 276 26 276 14 c 0
 276 -1 274 -6 262 -6 c 0
 239 -6 171 -3 141 -3 c 0
 111 -3 50 -6 27 -6 c 0
 13 -6 11 -2 11 15 c 0
207 192 m 0
 207 180 214 180 234 180 c 0
 343 180 456 225 456 344 c 0
 456 441 400 494 292 494 c 0
 286 494 274 494 264 493 c 0
 249 492 250 493 248 479 c 2
 236 398 l 2
 226 333 207 194 207 192 c 0
EndSplineSet
Position2: "'cpsp' Capital Spacing in Latin lookup 0 subtable" dx=4 dy=0 dh=8 dv=0
EndChar

StartChar: germandbls
Encoding: 223 223 159
Width: 488
GlyphClass: 2
Flags: MW
HStem: -279 59<-73.5 26> -13 24<264.5 308 264.5 324.5> 354 27 655 26<265 325.5>
VStem: 184 59<45.5 65.5 45.5 77.5> 362 73<173 257.5 139 277.5> 372 64<509 592 500 592.5>
LayerCount: 2
Back
Fore
SplineSet
-128 -240 m 0xfa
 -128 -220 -97 -196 -76 -196 c 0
 -48 -196 -28 -220 5 -220 c 0
 47 -220 58 -106 66 -54 c 0
 108 216 116 322 136 481 c 0
 149 586 202 681 314 681 c 0
 391 681 436 628 436 556 c 0xfa
 436 444 349 390 307 372 c 0
 300 369 296 368 302 366 c 0
 339 353 435 317 435 198 c 0
 435 80 372 -13 277 -13 c 0
 226 -13 184 14 184 63 c 0
 184 92 201 104 225 112 c 0
 238 116 248 111 248 101 c 0
 247 89 243 72 243 59 c 0
 243 32 249 11 280 11 c 0
 336 11 362 133 362 213 c 0xfc
 362 342 289 348 246 354 c 0
 240 354 238 358 238 364 c 0
 238 372 238 380 248 381 c 0
 298 386 372 449 372 569 c 0
 372 616 349 655 302 655 c 0
 228 655 217 554 208 492 c 0
 186 345 165 153 131 -54 c 0
 128 -73 102 -186 36 -236 c 0
 14 -252 -18 -279 -57 -279 c 0
 -90 -279 -128 -257 -128 -240 c 0xfa
EndSplineSet
EndChar

StartChar: agrave
Encoding: 224 224 160
Width: 433
GlyphClass: 2
Flags: MW
HStem: -14 60 344 46<192.5 242> 446 163<233.5 280 233.5 295>
VStem: 22 73<84.5 117> 209 93 251 71<4 84.5> 340 63
LayerCount: 2
Back
Fore
SplineSet
209 575 m 0x28
 209 595 221 609 246 609 c 0
 261 609 272 599 275 583 c 2
 301 457 l 2
 301 456 302 453 302 451 c 0
 302 447 298 446 295 446 c 2
 280 446 l 2
 275 446 272 450 270 454 c 2
 213 561 l 2
 210 566 209 570 209 575 c 0x28
22 59 m 0xd6
 22 175 99 390 252 390 c 0
 262 390 294 379 308 359 c 0
 316 348 324 333 327 333 c 0
 328 333 337 362 340 374 c 0
 343 386 378 387 387 387 c 0
 395 387 403 386 403 379 c 0
 403 363 322 106 322 63 c 0
 322 53 326 46 333 46 c 0
 345 46 390 102 397 102 c 0
 403 102 411 94 411 85 c 0
 411 78 326 -14 281 -14 c 0
 264 -14 251 -5 251 13 c 0
 251 45 284 152 299 200 c 1
 278 165 237 101 188 50 c 0
 153 14 129 -13 90 -13 c 0
 45 -13 22 20 22 59 c 0xd6
95 96 m 0
 95 73 96 46 120 46 c 0
 161 46 246 155 296 237 c 0
 307 255 311 285 311 289 c 0
 311 324 257 344 227 344 c 0
 158 344 95 177 95 96 c 0
EndSplineSet
EndChar

StartChar: aacute
Encoding: 225 225 161
Width: 433
GlyphClass: 2
Flags: MW
HStem: -14 60 344 46<192.5 242> 446 161<258.5 362 260 362>
VStem: 22 73<84.5 117> 251 71<4 84.5> 253 133<449 590> 340 63
LayerCount: 2
Back
Fore
SplineSet
253 451 m 0x24
 253 454 255 456 256 458 c 2
 317 581 l 2
 325 597 337 607 352 607 c 0
 372 607 386 597 386 583 c 0
 386 573 384 565 376 556 c 2
 285 453 l 2
 282 449 280 446 275 446 c 2
 260 446 l 2
 257 446 253 447 253 451 c 0x24
22 59 m 0xda
 22 175 99 390 252 390 c 0
 262 390 294 379 308 359 c 0
 316 348 324 333 327 333 c 0
 328 333 337 362 340 374 c 0
 343 386 378 387 387 387 c 0
 395 387 403 386 403 379 c 0
 403 363 322 106 322 63 c 0
 322 53 326 46 333 46 c 0
 345 46 390 102 397 102 c 0
 403 102 411 94 411 85 c 0
 411 78 326 -14 281 -14 c 0
 264 -14 251 -5 251 13 c 0
 251 45 284 152 299 200 c 1
 278 165 237 101 188 50 c 0
 153 14 129 -13 90 -13 c 0
 45 -13 22 20 22 59 c 0xda
95 96 m 0
 95 73 96 46 120 46 c 0
 161 46 246 155 296 237 c 0
 307 255 311 285 311 289 c 0
 311 324 257 344 227 344 c 0
 158 344 95 177 95 96 c 0
EndSplineSet
EndChar

StartChar: acircumflex
Encoding: 226 226 162
Width: 433
GlyphClass: 2
Flags: MW
HStem: -14 60 344 46<192.5 242> 457 130<174.5 309 176 309 289 363 289 375>
VStem: 22 73<84.5 117> 170 215<459 461.5 459 462.5> 251 71<4 84.5> 340 63
LayerCount: 2
Back
Fore
SplineSet
170 461 m 0x28
 170 464 174 467 176 470 c 2
 267 574 l 2
 278 587 278 587 289 587 c 2
 309 587 l 2
 319 587 321 587 328 573 c 2
 381 470 l 2
 383 466 385 462 385 461 c 0
 385 457 379 457 375 457 c 2
 363 457 l 2
 359 457 358 460 354 464 c 2
 294 523 l 2
 290 527 289 527 283 523 c 2
 202 464 l 2
 197 460 194 457 191 457 c 2
 176 457 l 2
 173 457 170 457 170 461 c 0x28
22 59 m 0xd6
 22 175 99 390 252 390 c 0
 262 390 294 379 308 359 c 0
 316 348 324 333 327 333 c 0
 328 333 337 362 340 374 c 0
 343 386 378 387 387 387 c 0
 395 387 403 386 403 379 c 0
 403 363 322 106 322 63 c 0
 322 53 326 46 333 46 c 0
 345 46 390 102 397 102 c 0
 403 102 411 94 411 85 c 0
 411 78 326 -14 281 -14 c 0
 264 -14 251 -5 251 13 c 0
 251 45 284 152 299 200 c 1
 278 165 237 101 188 50 c 0
 153 14 129 -13 90 -13 c 0
 45 -13 22 20 22 59 c 0xd6
95 96 m 0
 95 73 96 46 120 46 c 0
 161 46 246 155 296 237 c 0
 307 255 311 285 311 289 c 0
 311 324 257 344 227 344 c 0
 158 344 95 177 95 96 c 0
EndSplineSet
EndChar

StartChar: atilde
Encoding: 227 227 163
Width: 433
GlyphClass: 2
Flags: MW
HStem: -14 60 344 46<192.5 242> 490 49<318.5 326> 525 50<241.5 246.5>
VStem: 22 73<84.5 117> 173 219<493 577.5> 251 71<4 84.5> 340 63
LayerCount: 2
Back
Fore
SplineSet
173 494 m 0x20
 173 500 181 516 184 521 c 0
 205 557 233 575 250 575 c 0x10
 282 575 307 539 330 539 c 0
 349 539 360 556 367 570 c 0
 371 578 369 579 378 579 c 2
 391 579 l 2
 392 579 392 578 392 577 c 0
 392 567 386 556 382 547 c 0
 365 515 340 490 312 490 c 0x20
 276 490 261 525 232 525 c 0x10
 213 525 204 511 197 498 c 0
 194 491 195 490 187 490 c 2
 176 490 l 2
 174 490 173 492 173 494 c 0x20
22 59 m 0xcb
 22 175 99 390 252 390 c 0
 262 390 294 379 308 359 c 0
 316 348 324 333 327 333 c 0
 328 333 337 362 340 374 c 0
 343 386 378 387 387 387 c 0
 395 387 403 386 403 379 c 0
 403 363 322 106 322 63 c 0
 322 53 326 46 333 46 c 0
 345 46 390 102 397 102 c 0
 403 102 411 94 411 85 c 0
 411 78 326 -14 281 -14 c 0
 264 -14 251 -5 251 13 c 0
 251 45 284 152 299 200 c 1
 278 165 237 101 188 50 c 0
 153 14 129 -13 90 -13 c 0
 45 -13 22 20 22 59 c 0xcb
95 96 m 0
 95 73 96 46 120 46 c 0
 161 46 246 155 296 237 c 0
 307 255 311 285 311 289 c 0
 311 324 257 344 227 344 c 0
 158 344 95 177 95 96 c 0
EndSplineSet
EndChar

StartChar: adieresis
Encoding: 228 228 164
Width: 433
GlyphClass: 2
Flags: MW
HStem: -14 60 344 46<192.5 242> 484 100<201.5 229.5 200 230 341.5 369.5>
VStem: 22 73<84.5 117> 170 91<524 544 519.5 548.5> 251 71<4 84.5> 310 91<524 544 519.5 548.5> 340 63
LayerCount: 2
Back
Fore
SplineSet
170 535 m 0x2a
 170 562 186 584 214 584 c 0
 245 584 261 555 261 533 c 0
 261 506 243 484 217 484 c 0
 186 484 170 513 170 535 c 0x2a
310 535 m 0
 310 562 326 584 354 584 c 0
 385 584 401 555 401 533 c 0
 401 506 383 484 357 484 c 0
 326 484 310 513 310 535 c 0
22 59 m 0xd5
 22 175 99 390 252 390 c 0
 262 390 294 379 308 359 c 0
 316 348 324 333 327 333 c 0
 328 333 337 362 340 374 c 0
 343 386 378 387 387 387 c 0
 395 387 403 386 403 379 c 0
 403 363 322 106 322 63 c 0
 322 53 326 46 333 46 c 0
 345 46 390 102 397 102 c 0
 403 102 411 94 411 85 c 0
 411 78 326 -14 281 -14 c 0
 264 -14 251 -5 251 13 c 0
 251 45 284 152 299 200 c 1
 278 165 237 101 188 50 c 0
 153 14 129 -13 90 -13 c 0
 45 -13 22 20 22 59 c 0xd5
95 96 m 0
 95 73 96 46 120 46 c 0
 161 46 246 155 296 237 c 0
 307 255 311 285 311 289 c 0
 311 324 257 344 227 344 c 0
 158 344 95 177 95 96 c 0
EndSplineSet
EndChar

StartChar: aring
Encoding: 229 229 165
Width: 433
GlyphClass: 2
Flags: MW
HStem: -14 60 344 46<192.5 242> 460 34<273.5 294.5 273.5 303.5> 568 34<273.5 294.5>
VStem: 22 73<84.5 117> 213 34<520.5 541.5 520.5 550.5> 251 71<4 84.5> 321 34<520.5 541.5> 340 63
LayerCount: 2
Back
Fore
SplineSet
213 531 m 0x35
 213 570 245 602 284 602 c 0
 323 602 355 570 355 531 c 0
 355 492 323 460 284 460 c 0
 245 460 213 492 213 531 c 0x35
247 531 m 0
 247 510 263 494 284 494 c 0
 305 494 321 510 321 531 c 0
 321 552 305 568 284 568 c 0
 263 568 247 552 247 531 c 0
22 59 m 0xca80
 22 175 99 390 252 390 c 0
 262 390 294 379 308 359 c 0
 316 348 324 333 327 333 c 0
 328 333 337 362 340 374 c 0
 343 386 378 387 387 387 c 0
 395 387 403 386 403 379 c 0
 403 363 322 106 322 63 c 0
 322 53 326 46 333 46 c 0
 345 46 390 102 397 102 c 0
 403 102 411 94 411 85 c 0
 411 78 326 -14 281 -14 c 0
 264 -14 251 -5 251 13 c 0
 251 45 284 152 299 200 c 1
 278 165 237 101 188 50 c 0
 153 14 129 -13 90 -13 c 0
 45 -13 22 20 22 59 c 0xca80
95 96 m 0
 95 73 96 46 120 46 c 0
 161 46 246 155 296 237 c 0
 307 255 311 285 311 289 c 0
 311 324 257 344 227 344 c 0
 158 344 95 177 95 96 c 0
EndSplineSet
EndChar

StartChar: ae
Encoding: 230 230 166
Width: 636
GlyphClass: 2
Flags: MW
HStem: -13 59<67.5 136.5> -8 46<405.5 457> 167 29<358.5 364> 344 46<200 247> 364 30<495 508>
VStem: 22 75<84.5 117> 268 72<92 114> 311 44 541 71<293.5 337.5>
LayerCount: 2
Back
Fore
SplineSet
22 59 m 0xa680
 22 175 99 390 252 390 c 0xb680
 276 390 296 379 310 359 c 0
 318 348 323 334 327 333 c 0
 332 342 339 371 340 374 c 0
 344 385 365 385 379 387 c 0
 388 388 403 388 403 379 c 0
 403 376 400 366 398 357 c 1
 434 381 474 394 516 394 c 0
 558 394 612 381 612 325 c 0
 612 262 551 215 487 191 c 0
 438 173 383 167 345 167 c 0
 343 167 340 147 340 124 c 0
 340 60 378 38 433 38 c 0
 526 38 591 125 603 125 c 0
 612 125 619 114 619 108 c 0
 619 100 517 -8 397 -8 c 0x6e80
 328 -8 268 26 268 105 c 0
 268 123 269 143 272 158 c 1
 249 124 221 85 188 50 c 0
 153 14 129 -13 90 -13 c 0
 45 -13 22 20 22 59 c 0xa680
97 96 m 0
 97 73 101 46 120 46 c 0
 153 46 246 155 296 237 c 0
 307 255 311 285 311 289 c 0xb580
 311 324 262 344 232 344 c 0
 168 344 97 177 97 96 c 0
355 200 m 0
 355 198 355 196 362 196 c 0
 455 196 541 245 541 326 c 0
 541 349 522 364 494 364 c 0x2d80
 426 364 389 297 369 244 c 0
 363 229 355 202 355 200 c 0
EndSplineSet
EndChar

StartChar: ccedilla
Encoding: 231 231 167
Width: 402
GlyphClass: 2
Flags: MW
HStem: -220 29<98 133 95.5 154> -103 39<124 181.5> -12 55<161 162 161 161> 361 33<224.5 259>
VStem: 22 71<131 167.5 131 210.5> 177 60<-157 -135.5> 287 70<312 316.5 290 327>
LayerCount: 2
Back
Fore
SplineSet
22 128 m 0
 22 293 149 394 246 394 c 0
 283 394 314 384 334 362 c 0
 347 348 357 329 357 304 c 0
 357 276 339 252 311 252 c 0
 292 252 286 273 286 292 c 0
 286 300 287 308 287 316 c 0
 287 338 275 361 243 361 c 0
 206 361 166 334 140 295 c 0
 110 251 93 191 93 144 c 0
 93 118 94 43 196 43 c 0
 282 43 352 121 358 121 c 0
 362 121 373 110 373 104 c 0
 373 94 262 -12 162 -12 c 2
 161 -12 l 1
 151 -30 134 -62 132 -66 c 1
 137 -65 151 -64 157 -64 c 0
 206 -64 237 -96 237 -131 c 0
 237 -183 186 -220 122 -220 c 0
 74 -220 44 -198 44 -190 c 0
 44 -187 44 -177 55 -177 c 0
 61 -177 80 -191 111 -191 c 0
 155 -191 177 -177 177 -145 c 0
 177 -126 167 -103 133 -103 c 0
 115 -103 102 -109 97 -109 c 0
 95 -109 87 -105 87 -103 c 0
 87 -100 119 -42 136 -11 c 1
 48 0 22 67 22 128 c 0
EndSplineSet
EndChar

StartChar: egrave
Encoding: 232 232 168
Width: 390
GlyphClass: 2
Flags: MW
HStem: -8 46<159.5 211> 167 29<112.5 118> 364 30<214 262> 446 163<232.5 279 232.5 294>
VStem: 22 72<92 135.5 92 181> 208 93 295 71<293.5 337.5>
LayerCount: 2
Back
Fore
SplineSet
208 575 m 0x14
 208 595 220 609 245 609 c 0
 260 609 271 599 274 583 c 2
 300 457 l 2
 300 456 301 453 301 451 c 0
 301 447 297 446 294 446 c 2
 279 446 l 2
 274 446 271 450 269 454 c 2
 212 561 l 2
 209 566 208 570 208 575 c 0x14
22 105 m 0xea
 22 257 136 394 270 394 c 0
 312 394 366 381 366 325 c 0
 366 262 305 215 241 191 c 0
 192 173 137 167 99 167 c 0
 97 167 94 147 94 124 c 0
 94 60 132 38 187 38 c 0
 280 38 345 125 357 125 c 0
 366 125 373 114 373 108 c 0
 373 100 271 -8 151 -8 c 0
 82 -8 22 26 22 105 c 0xea
109 200 m 0
 109 198 109 196 116 196 c 0
 209 196 295 245 295 326 c 0
 295 349 276 364 248 364 c 0
 180 364 143 297 123 244 c 0
 117 229 109 202 109 200 c 0
EndSplineSet
EndChar

StartChar: eacute
Encoding: 233 233 169
Width: 390
GlyphClass: 2
Flags: MW
HStem: -8 46<159.5 211> 167 29<112.5 118> 364 30<214 262> 446 161<257.5 361 259 361>
VStem: 22 72<92 135.5 92 181> 252 133<449 590> 295 71<293.5 337.5>
LayerCount: 2
Back
Fore
SplineSet
252 451 m 0x14
 252 454 254 456 255 458 c 2
 316 581 l 2
 324 597 336 607 351 607 c 0
 371 607 385 597 385 583 c 0
 385 573 383 565 375 556 c 2
 284 453 l 2
 281 449 279 446 274 446 c 2
 259 446 l 2
 256 446 252 447 252 451 c 0x14
22 105 m 0xea
 22 257 136 394 270 394 c 0
 312 394 366 381 366 325 c 0
 366 262 305 215 241 191 c 0
 192 173 137 167 99 167 c 0
 97 167 94 147 94 124 c 0
 94 60 132 38 187 38 c 0
 280 38 345 125 357 125 c 0
 366 125 373 114 373 108 c 0
 373 100 271 -8 151 -8 c 0
 82 -8 22 26 22 105 c 0xea
109 200 m 0
 109 198 109 196 116 196 c 0
 209 196 295 245 295 326 c 0
 295 349 276 364 248 364 c 0
 180 364 143 297 123 244 c 0
 117 229 109 202 109 200 c 0
EndSplineSet
EndChar

StartChar: ecircumflex
Encoding: 234 234 170
Width: 390
GlyphClass: 2
Flags: MW
HStem: -8 46<159.5 211> 167 29<112.5 118> 364 30<214 262> 457 130<173.5 308 175 308 288 362 288 374>
VStem: 22 72<92 135.5 92 181> 169 215<459 461.5 459 462.5> 295 71<293.5 337.5>
LayerCount: 2
Back
Fore
SplineSet
169 461 m 0x14
 169 464 173 467 175 470 c 2
 266 574 l 2
 277 587 277 587 288 587 c 2
 308 587 l 2
 318 587 320 587 327 573 c 2
 380 470 l 2
 382 466 384 462 384 461 c 0
 384 457 378 457 374 457 c 2
 362 457 l 2
 358 457 357 460 353 464 c 2
 293 523 l 2
 289 527 288 527 282 523 c 2
 201 464 l 2
 196 460 193 457 190 457 c 2
 175 457 l 2
 172 457 169 457 169 461 c 0x14
22 105 m 0xea
 22 257 136 394 270 394 c 0
 312 394 366 381 366 325 c 0
 366 262 305 215 241 191 c 0
 192 173 137 167 99 167 c 0
 97 167 94 147 94 124 c 0
 94 60 132 38 187 38 c 0
 280 38 345 125 357 125 c 0
 366 125 373 114 373 108 c 0
 373 100 271 -8 151 -8 c 0
 82 -8 22 26 22 105 c 0xea
109 200 m 0
 109 198 109 196 116 196 c 0
 209 196 295 245 295 326 c 0
 295 349 276 364 248 364 c 0
 180 364 143 297 123 244 c 0
 117 229 109 202 109 200 c 0
EndSplineSet
EndChar

StartChar: edieresis
Encoding: 235 235 171
Width: 390
GlyphClass: 2
Flags: MW
HStem: -8 46<159.5 211> 167 29<112.5 118> 364 30<214 262> 484 100<200.5 228.5 199 229 340.5 368.5>
VStem: 22 72<92 135.5 92 181> 169 91<524 544 519.5 548.5> 295 71<293.5 337.5> 309 91<524 544 519.5 548.5>
LayerCount: 2
Back
Fore
SplineSet
169 535 m 0x15
 169 562 185 584 213 584 c 0
 244 584 260 555 260 533 c 0
 260 506 242 484 216 484 c 0
 185 484 169 513 169 535 c 0x15
309 535 m 0
 309 562 325 584 353 584 c 0
 384 584 400 555 400 533 c 0
 400 506 382 484 356 484 c 0
 325 484 309 513 309 535 c 0
22 105 m 0xea
 22 257 136 394 270 394 c 0
 312 394 366 381 366 325 c 0
 366 262 305 215 241 191 c 0
 192 173 137 167 99 167 c 0
 97 167 94 147 94 124 c 0
 94 60 132 38 187 38 c 0
 280 38 345 125 357 125 c 0
 366 125 373 114 373 108 c 0
 373 100 271 -8 151 -8 c 0
 82 -8 22 26 22 105 c 0xea
109 200 m 0
 109 198 109 196 116 196 c 0
 209 196 295 245 295 326 c 0
 295 349 276 364 248 364 c 0
 180 364 143 297 123 244 c 0
 117 229 109 202 109 200 c 0
EndSplineSet
EndChar

StartChar: igrave
Encoding: 236 236 172
Width: 270
GlyphClass: 2
Flags: MW
HStem: -9 67<79 152.5> 325 61<107 181.5> 446 163<135.5 182 135.5 197>
VStem: 22 177<278.5 370.5> 111 93
LayerCount: 2
Back
Fore
SplineSet
111 575 m 0x28
 111 595 123 609 148 609 c 0
 163 609 174 599 177 583 c 2
 203 457 l 2
 203 456 204 453 204 451 c 0
 204 447 200 446 197 446 c 2
 182 446 l 2
 177 446 174 450 172 454 c 2
 115 561 l 2
 112 566 111 570 111 575 c 0x28
22 282 m 0xc0
 22 292 138 386 176 386 c 0
 187 386 199 380 199 361 c 0
 199 313 134 102 134 75 c 0
 134 64 134 58 144 58 c 0
 161 58 216 122 223 122 c 0
 229 122 238 112 238 107 c 0
 238 90 117 -9 84 -9 c 0
 74 -9 57 -6 57 12 c 0
 57 64 128 250 128 310 c 0
 128 320 126 325 119 325 c 0
 95 325 46 266 37 266 c 0
 30 266 22 275 22 282 c 0xc0
EndSplineSet
EndChar

StartChar: iacute
Encoding: 237 237 173
Width: 270
GlyphClass: 2
Flags: MW
HStem: -9 67<79 152.5> 325 61<107 181.5> 446 161<160.5 264 162 264>
VStem: 22 177<278.5 370.5> 155 133<449 590>
LayerCount: 2
Back
Fore
SplineSet
155 451 m 0x28
 155 454 157 456 158 458 c 2
 219 581 l 2
 227 597 239 607 254 607 c 0
 274 607 288 597 288 583 c 0
 288 573 286 565 278 556 c 2
 187 453 l 2
 184 449 182 446 177 446 c 2
 162 446 l 2
 159 446 155 447 155 451 c 0x28
22 282 m 0xc0
 22 292 138 386 176 386 c 0
 187 386 199 380 199 361 c 0
 199 313 134 102 134 75 c 0
 134 64 134 58 144 58 c 0
 161 58 216 122 223 122 c 0
 229 122 238 112 238 107 c 0
 238 90 117 -9 84 -9 c 0
 74 -9 57 -6 57 12 c 0
 57 64 128 250 128 310 c 0
 128 320 126 325 119 325 c 0
 95 325 46 266 37 266 c 0
 30 266 22 275 22 282 c 0xc0
EndSplineSet
EndChar

StartChar: icircumflex
Encoding: 238 238 174
Width: 270
GlyphClass: 2
Flags: MW
HStem: -9 67<79 152.5> 325 61<107 181.5> 457 130<76.5 211 78 211 191 265 191 277>
VStem: 22 177<278.5 370.5> 72 215<459 461.5 459 462.5>
LayerCount: 2
Back
Fore
SplineSet
72 461 m 0x28
 72 464 76 467 78 470 c 2
 169 574 l 2
 180 587 180 587 191 587 c 2
 211 587 l 2
 221 587 223 587 230 573 c 2
 283 470 l 2
 285 466 287 462 287 461 c 0
 287 457 281 457 277 457 c 2
 265 457 l 2
 261 457 260 460 256 464 c 2
 196 523 l 2
 192 527 191 527 185 523 c 2
 104 464 l 2
 99 460 96 457 93 457 c 2
 78 457 l 2
 75 457 72 457 72 461 c 0x28
22 282 m 0xc0
 22 292 138 386 176 386 c 0
 187 386 199 380 199 361 c 0
 199 313 134 102 134 75 c 0
 134 64 134 58 144 58 c 0
 161 58 216 122 223 122 c 0
 229 122 238 112 238 107 c 0
 238 90 117 -9 84 -9 c 0
 74 -9 57 -6 57 12 c 0
 57 64 128 250 128 310 c 0
 128 320 126 325 119 325 c 0
 95 325 46 266 37 266 c 0
 30 266 22 275 22 282 c 0xc0
EndSplineSet
EndChar

StartChar: idieresis
Encoding: 239 239 175
Width: 270
GlyphClass: 2
Flags: MW
HStem: -9 67<79 152.5> 325 61<107 181.5> 484 100<110.5 138.5 109 139 236.5 264.5>
VStem: 22 177<278.5 370.5> 79 91<524 544 519.5 548.5> 205 91<524 544 519.5 548.5>
LayerCount: 2
Back
Fore
SplineSet
79 535 m 0x2c
 79 562 95 584 123 584 c 0
 154 584 170 555 170 533 c 0
 170 506 152 484 126 484 c 0
 95 484 79 513 79 535 c 0x2c
205 535 m 0
 205 562 221 584 249 584 c 0
 280 584 296 555 296 533 c 0
 296 506 278 484 252 484 c 0
 221 484 205 513 205 535 c 0
22 282 m 0xc0
 22 292 138 386 176 386 c 0
 187 386 199 380 199 361 c 0
 199 313 134 102 134 75 c 0
 134 64 134 58 144 58 c 0
 161 58 216 122 223 122 c 0
 229 122 238 112 238 107 c 0
 238 90 117 -9 84 -9 c 0
 74 -9 57 -6 57 12 c 0
 57 64 128 250 128 310 c 0
 128 320 126 325 119 325 c 0
 95 325 46 266 37 266 c 0
 30 266 22 275 22 282 c 0xc0
EndSplineSet
EndChar

StartChar: eth
Encoding: 240 240 176
Width: 411
GlyphClass: 2
Flags: MW
HStem: -11 30<127.5 212.5 127.5 229> 371 27<204.5 265.5 186.5 278> 653 20G<195 201>
VStem: 22 68<124.5 189.5 124.5 211.5> 321 68<233 295>
LayerCount: 2
Back
Fore
SplineSet
22 138 m 0
 22 285 119 398 254 398 c 0
 277 398 300 389 311 384 c 1
 302 427 276 486 261 512 c 0
 257 518 255 518 249 516 c 2
 249 516 144 487 141 487 c 0
 137 487 125 509 125 514 c 0
 125 516 205 536 235 544 c 0
 243 546 241 546 237 552 c 0
 215 586 187 623 149 659 c 0
 145 663 137 672 151 672 c 2
 195 673 l 2
 207 673 245 627 293 564 c 0
 296 560 299 561 302 562 c 2
 302 562 401 588 403 588 c 0
 408 588 418 567 418 562 c 0
 418 560 338 541 319 536 c 0
 312 534 313 535 316 529 c 0
 351 469 389 375 389 265 c 0
 389 111 295 -11 163 -11 c 0
 70 -11 22 61 22 138 c 0
90 146 m 0
 90 103 90 19 165 19 c 0
 260 19 321 188 321 278 c 0
 321 312 313 371 243 371 c 0
 166 371 90 233 90 146 c 0
EndSplineSet
EndChar

